<svg width="40" height="40" fill="none" xmlns="http://www.w3.org/2000/svg"><path d="M31.186 4.607a19.293 19.293 0 0 0-2.202-1.38L27.83 5.372c.668.36 1.31.763 1.925 1.208l1.43-1.974z" fill="#577AAB"/><path d="M39.073 17.794a19.28 19.28 0 0 0-2.638-7.488l-2.086 1.264a16.785 16.785 0 0 1 2.065 5.166H23.417V3.741c.798.174 1.582.405 2.347.692l.853-2.282a19.432 19.432 0 0 0-4.266-1.07L20.979.897v18.277h18.278l-.184-1.38z" fill="#577AAB"/><path d="M33.047 9.708l1.897-1.529a19.534 19.534 0 0 0-1.76-1.911l-1.679 1.769a16.8 16.8 0 0 1 1.542 1.67zM18.542.897l-1.381.184C7.497 2.4.285 10.641.257 20.393a19.324 19.324 0 0 0 4.01 11.817l.846 1.107 13.429-13.428V.897zM5.4 29.583a16.822 16.822 0 0 1-2.67-8.236L8.18 26.8 5.4 29.583zm4.51-4.51l-7.036-7.029c.133-.95.347-1.889.64-2.803l8.113 8.113-1.717 1.719zm3.444-3.444l-8.842-8.835a16.96 16.96 0 0 1 1.287-2.163l9.277 9.276-1.722 1.722zm2.75-4.142l-8.76-8.76a17.13 17.13 0 0 1 1.802-1.65l6.958 6.958v3.452zm0-6.9L11.19 5.675a16.872 16.872 0 0 1 4.914-1.933v6.847zM6.84 35.04l1.108.846a19.323 19.323 0 0 0 11.813 4.01c9.753-.027 17.994-7.24 19.312-16.904l.184-1.38H20.266L6.84 35.04zm29.573-10.99a17.107 17.107 0 0 1-16.652 13.41 16.855 16.855 0 0 1-9.19-2.705L21.275 24.05h15.138z" fill="#577AAB"/></svg>