<svg width="38" height="39" fill="none" xmlns="http://www.w3.org/2000/svg"><path d="M4.88 15.666l-1.99 1.382a8.836 8.836 0 0 0 1.904 2.06l1.452-1.947a6.411 6.411 0 0 1-1.365-1.495zm29.522-7.133L32.41 7.151a6.414 6.414 0 0 1-1.37 1.499l1.452 1.946a8.838 8.838 0 0 0 1.91-2.063z" fill="#577AAB"/><path d="M36.218.87a21.126 21.126 0 0 0-5.623-.863 8.884 8.884 0 0 0-4.477 1.012c-2.478 1.439-3.842 3.458-3.842 5.688a5.36 5.36 0 0 0 .302 1.74l-2.722 1.643V2.507h-2.42v16.098l-2.723-1.642c.196-.56.299-1.148.303-1.74 0-2.23-1.364-4.25-3.844-5.689a8.877 8.877 0 0 0-4.477-1.012 21.126 21.126 0 0 0-5.623.864L0 9.729l.254 1.094a22.238 22.238 0 0 0 1.35 3.915l2.2-1.015a19.853 19.853 0 0 1-.877-2.31 17.72 17.72 0 0 1 3.768-.462 6.572 6.572 0 0 1 3.267.686c1.694.986 2.632 2.258 2.632 3.582a3.09 3.09 0 0 1-.435 1.55A2.929 2.929 0 0 1 9.5 18.32a4.665 4.665 0 0 1-1.452-.25l-.751 2.311c.71.238 1.453.36 2.202.365a5.329 5.329 0 0 0 3.968-1.703l3.968 2.399v4.177h-6.192L12.722 39h11.853l1.479-13.38h-6.198V12.926l3.966-2.392a5.329 5.329 0 0 0 3.968 1.703 7.076 7.076 0 0 0 2.202-.365l-.751-2.311c-.468.16-.958.244-1.452.25a2.932 2.932 0 0 1-2.662-1.548 3.095 3.095 0 0 1-.431-1.557c0-1.324.934-2.596 2.632-3.581a6.572 6.572 0 0 1 3.267-.686c1.269.018 2.532.173 3.768.46a19.85 19.85 0 0 1-.876 2.312l2.2 1.014a22.166 22.166 0 0 0 1.351-3.915l.254-1.104L36.218.87zM23.344 28.052l-.941 8.515h-7.508l-.942-8.515h9.391z" fill="#577AAB"/><path d="M33.166 14.671h-2.42v2.657a3.646 3.646 0 0 0-2.213 4.643 3.623 3.623 0 0 0 3.423 2.432c.669 0 1.21.544 1.21 1.216 0 .672-.541 1.217-1.21 1.217h-3.63v2.433h2.42V31.7h2.42v-2.656A3.646 3.646 0 0 0 35.38 24.4a3.623 3.623 0 0 0-3.423-2.431c-.668 0-1.21-.545-1.21-1.217s.542-1.216 1.21-1.216h3.63v-2.433h-2.42V14.67z" fill="#5BC99C"/></svg>