<svg xmlns="http://www.w3.org/2000/svg" viewBox="0 0 473.7 473.7"><style>.a{fill:#29337a}.b{fill:#fff}.c{fill:#d32030}.f{fill:#d71f28}</style><path d="M41.7 102.6c-15.3 22.2-26.9 47.1-33.9 73.8h107.7l-73.8-73.8zM170.5 9.5c-27.3 7.9-52.6 20.6-74.8 37.2l74.8 74.8V9.5zM101.3 431c20.9 14.6 44.2 25.9 69.3 33.2V361.8L101.3 431zM10.5 306.8c7.8 25.4 19.8 48.9 35.2 69.8l69.8-69.8h-105z" class="a"/><path d="M45.6 97.1c-1.3 1.8-2.6 3.6-3.9 5.5l73.8 73.8H7.8c-1.7 6.6-3.2 13.4-4.3 20.3h141.8L45.6 97.1zm50.2 330c1.8 1.3 3.7 2.6 5.5 3.9l69.3-69.2v102.5c6.7 1.9 13.4 3.6 20.3 5V332.1l-95.1 95zM5.3 286.5c1.5 6.9 3.2 13.6 5.3 20.3h105l-69.8 69.8c7.6 10.4 16 20.1 25.2 29.1l119.1-119.2H5.3zm165.2-277v112L95.7 46.7c-10.3 7.7-20 16.2-28.9 25.4l124 124V4.5c-6.9 1.4-13.6 3-20.3 5z" class="b"/><path class="c" d="M170.5 306.1l-.7.7h.7zm19.6-19.6h.7v-.7zm91.1-89.8h-.7v.7zm-110-20.2l-.7-.7v.7zm19.6 19.5v.7h.7z"/><path d="M300.8 411.8v53.1c25.4-7.1 49-18.3 70.2-32.9l-57.5-57.5c-4.6 16.1-6.3 24.4-12.7 37.3zm13-303.3l62.8-62.8c-22.5-16.5-48.1-29.1-75.8-36.9v54.5c7.4 14.8 8 26.1 13 45.2zM427 378c15.8-21.3 28.1-45.3 36.1-71.2H355.7L427 378zm38.9-201.5c-7.2-27.3-19.1-52.7-34.9-75.2l-75.2 75.2h110.1z" fill="#252f6c"/><path d="M327.6 290.5l16.3 16.3 77.9 77.9c1.8-2.2 3.5-4.4 5.2-6.7l-71.2-71.2h107.4c2-6.6 3.8-13.4 5.3-20.3H329.2c-.3 2.9-1.3 1.1-1.6 4zm-16.2-170.2L382 49.7c-1.8-1.4-3.5-2.7-5.3-4.1l-62.8 62.8c.6 2.6-3.2 9.4-2.5 11.9zM300.8 59V8.8c-6.6-1.9-13.4-3.4-20.3-4.7v24.5c7.6 8.1 14.4 18.4 20.3 30.4zM326 196.7h144.2c-1.2-6.9-2.6-13.6-4.3-20.3H355.8l75.2-75.2c-7.4-10.5-15.6-20.4-24.6-29.6l-84.7 84.7c2.3 15.3 3.3 24.2 4.3 40.4zM310.1 371l61 61c10.1-7 19.7-14.8 28.6-23.2l-80.2-80.2c-2.6 14.8-5.6 29.1-9.4 42.4zm-29.6 71.3v27.3c6.9-1.3 13.6-2.9 20.3-4.7v-53.1c-5.9 11.9-12.7 22.3-20.3 30.5z" fill="#e7e7e7"/><path d="M321.7 156.3l84.7-84.7c-7.6-7.8-15.8-15.1-24.4-21.8l-66.5 66.6c2.9 12.3 4.2 26.4 6.2 39.9z" class="f"/><path d="M225 .3zm11.8 473.4zm0 0c14.9 0 29.5-1.4 43.7-4.1v-27.3c-12.4 13.5-27 31.4-43.7 31.4z" class="c"/><path d="M470.2 196.7H327.9c1.9 29.7 1.7 60.2-.7 89.8h141.2c3.4-16 5.3-32.6 5.3-49.6 0-13.7-1.2-27.1-3.5-40.2zm-142.6 93.8c-1.3 14-5.9 24.9-8.2 38.1l80.2 80.2c7.9-7.5 15.3-15.6 22.2-24.1l-77.9-77.9-16.3-16.3z" class="f"/><path d="M280.5 30.3V4.1C266.4 1.4 251.8 0 236.8 0c16.7 0 31.3 16.8 43.7 30.3z" class="c"/><path d="M300.8 422c6.4-12.8 11.9-27.6 16.5-43.8l-16.5-16.5V422zm18.6-319.1c-5-19.1-11.2-36.4-18.6-51.2v69.8l18.6-18.6z" class="a"/><path d="M332.2 295.1c.3-2.9.5-5.7.7-8.6h-9.3l8.6 8.6zm-31.4-173.6V51.7c-6-12-12.7-22.3-20.3-30.4v129.9l40.7-40.7c-.6-2.5-1.3-5-1.9-7.5l-18.5 18.5zm-19.6 75.2h52.4c-1-16.2-2.7-32.1-4.9-47.5l-47.5 47.5zm-.7 255.7c7.5-8.2 14.3-18.5 20.3-30.4v-60.3l16.5 16.5c3.8-13.3 7-27.4 9.5-42.3l-46.3-46.3v162.8z" class="b"/><path d="M280.5 452.4V289.7l46.3 46.3c2.3-13.2 4.1-26.9 5.4-40.9l-8.6-8.6h9.3c2.3-29.5 2.6-60 .7-89.7h-52.4l47.5-47.5c-2-13.5-4.5-26.5-7.4-38.8l-40.7 40.7v-130C268.1 7.8 253.5 0 236.8 0c-3.9 0-7.9.1-11.8.3-11.6.6-23.1 2-34.2 4.2V196L66.8 72.1C59.2 80 52.1 88.3 45.6 97.2l79.3 79.3 20.3 20.3H3.4c-2.2 13-3.4 26.4-3.4 40 0 17 1.8 33.6 5.3 49.6h184.8L70.8 405.7c7.8 7.7 16.1 14.8 24.9 21.3l95-95v137.1c11.2 2.2 22.6 3.6 34.2 4.2 3.9.2 7.9.3 11.8.3 16.8.1 31.4-7.7 43.8-21.2z" fill="#E51D35"/></svg>