<svg width="14" height="15" fill="none" xmlns="http://www.w3.org/2000/svg"><circle cx="7" cy="7" r="7" transform="translate(0 .984)" fill="#CF142B"/><path d="M4.347 6.077l.428 1.318H6.16l-1.12.815.428 1.318-1.121-.815-1.122.815.429-1.318-1.122-.815h1.386l.429-1.318zm4.861-2.082l-.041.659.614.242-.64.165-.04.658-.355-.557-.639.165.42-.509-.353-.557.614.243.42-.51zm2.127 1.975l-.301.588.465.468-.651-.105-.302.587-.101-.652-.652-.105.59-.298-.102-.652.465.468.589-.298zm-.644 2.479l.204.627h.66l-.534.388.204.628-.534-.388-.534.388.204-.628-.534-.388h.66l.204-.627zm-1.475 1.834l-.047.658.612.248-.641.16-.047.657-.35-.56-.64.159.425-.505-.349-.56.612.248.425-.505z" fill="#FFCE00"/></svg>