<svg width="80" viewBox="0 0 100 100" xmlns="http://www.w3.org/2000/svg" xmlns:xlink="http://www.w3.org/1999/xlink"><g transform="translate(4344 -2838)"><mask id="a"><use xlink:href="#path0_fill" fill="#fff" transform="translate(-4344 2838)"/></mask><g mask="url(#a)"><use xlink:href="#path1_stroke_2x" transform="translate(-4344 2838)" fill="url(#paint0_linear)" style="mix-blend-mode:darken"/></g></g><defs><linearGradient id="paint0_linear" x2="1" gradientUnits="userSpaceOnUse" gradientTransform="matrix(0 100 -100 0 100 0)"><stop offset="0" stop-color="#56CCF2"/><stop offset="1" stop-color="#59DDA9"/></linearGradient><path id="path0_fill" d="M0 50C0 22.386 22.386 0 50 0s50 22.386 50 50-22.386 50-50 50S0 77.614 0 50z"/><path id="path1_stroke_2x" d="M50 95C25.147 95 5 74.853 5 50H-5c0 30.376 24.624 55 55 55V95zm45-45c0 24.853-20.147 45-45 45v10c30.376 0 55-24.624 55-55H95zM50 5c24.853 0 45 20.147 45 45h10c0-30.376-24.624-55-55-55V5zm0-10C19.624-5-5 19.624-5 50H5C5 25.147 25.147 5 50 5V-5z"/></defs></svg>