<svg width="4" height="134" xmlns="http://www.w3.org/2000/svg" xmlns:xlink="http://www.w3.org/1999/xlink"><g transform="rotate(90 1.86 1.86)" fill="#FFF"><use xlink:href="#path0_fill"/><use xlink:href="#path1_fill"/><use xlink:href="#path2_fill"/><use xlink:href="#path3_fill"/><use xlink:href="#path4_fill"/><use xlink:href="#path5_fill"/><use xlink:href="#path6_fill"/><use xlink:href="#path7_fill"/><use xlink:href="#path8_fill"/><use xlink:href="#path9_fill"/><use xlink:href="#path10_fill"/><use xlink:href="#path11_fill"/><use xlink:href="#path12_fill"/><use xlink:href="#path13_fill"/><use xlink:href="#path14_fill"/><use xlink:href="#path15_fill"/></g><defs><path id="path0_fill" d="M2.88 1.44c0 .42-.144.762-.432 1.026a1.404 1.404 0 0 1-1.008.396c-.408 0-.75-.132-1.026-.396S0 1.86 0 1.44C0 1.02.138.678.414.414A1.393 1.393 0 0 1 1.44 0c.396 0 .732.138 1.008.414.288.264.432.606.432 1.026z"/><path id="path1_fill" d="M11.621 1.44c0 .42-.144.762-.432 1.026a1.404 1.404 0 0 1-1.008.396c-.408 0-.75-.132-1.026-.396s-.414-.606-.414-1.026c0-.42.138-.762.414-1.026A1.393 1.393 0 0 1 10.181 0c.396 0 .732.138 1.008.414.288.264.432.606.432 1.026z"/><path id="path2_fill" d="M20.363 1.44c0 .42-.145.762-.433 1.026a1.404 1.404 0 0 1-1.008.396c-.407 0-.75-.132-1.026-.396s-.413-.606-.413-1.026c0-.42.137-.762.413-1.026A1.393 1.393 0 0 1 18.922 0c.396 0 .732.138 1.008.414.288.264.433.606.433 1.026z"/><path id="path3_fill" d="M29.104 1.44c0 .42-.144.762-.432 1.026a1.404 1.404 0 0 1-1.008.396c-.408 0-.75-.132-1.026-.396s-.414-.606-.414-1.026c0-.42.138-.762.414-1.026A1.393 1.393 0 0 1 27.664 0c.396 0 .732.138 1.008.414.288.264.432.606.432 1.026z"/><path id="path4_fill" d="M37.845 1.44c0 .42-.144.762-.432 1.026a1.404 1.404 0 0 1-1.008.396c-.408 0-.75-.132-1.026-.396s-.414-.606-.414-1.026c0-.42.138-.762.414-1.026A1.393 1.393 0 0 1 36.405 0c.396 0 .732.138 1.008.414.288.264.432.606.432 1.026z"/><path id="path5_fill" d="M46.586 1.44c0 .42-.144.762-.432 1.026a1.404 1.404 0 0 1-1.008.396c-.408 0-.75-.132-1.026-.396s-.414-.606-.414-1.026c0-.42.138-.762.414-1.026A1.393 1.393 0 0 1 45.146 0c.396 0 .732.138 1.008.414.288.264.432.606.432 1.026z"/><path id="path6_fill" d="M55.328 1.44c0 .42-.145.762-.433 1.026a1.404 1.404 0 0 1-1.008.396c-.407 0-.75-.132-1.026-.396-.275-.264-.413-.606-.413-1.026 0-.42.138-.762.413-1.026A1.393 1.393 0 0 1 53.889 0c.395 0 .732.138 1.008.414.288.264.431.606.431 1.026z"/><path id="path7_fill" d="M64.069 1.44c0 .42-.144.762-.432 1.026a1.404 1.404 0 0 1-1.008.396c-.408 0-.75-.132-1.026-.396s-.414-.606-.414-1.026c0-.42.138-.762.414-1.026A1.393 1.393 0 0 1 62.629 0c.396 0 .732.138 1.008.414.288.264.432.606.432 1.026z"/><path id="path8_fill" d="M72.81 1.44c0 .42-.144.762-.432 1.026a1.404 1.404 0 0 1-1.008.396c-.408 0-.75-.132-1.026-.396s-.414-.606-.414-1.026c0-.42.138-.762.414-1.026A1.393 1.393 0 0 1 71.37 0c.396 0 .732.138 1.008.414.288.264.432.606.432 1.026z"/><path id="path9_fill" d="M81.551 1.44c0 .42-.144.762-.432 1.026a1.404 1.404 0 0 1-1.008.396c-.408 0-.75-.132-1.026-.396s-.414-.606-.414-1.026c0-.42.138-.762.414-1.026A1.393 1.393 0 0 1 80.111 0c.396 0 .732.138 1.008.414.288.264.432.606.432 1.026z"/><path id="path10_fill" d="M90.293 1.44c0 .42-.145.762-.433 1.026a1.404 1.404 0 0 1-1.007.396c-.408 0-.75-.132-1.026-.396s-.415-.606-.415-1.026c0-.42.138-.762.414-1.026A1.393 1.393 0 0 1 88.853 0c.396 0 .732.138 1.008.414.287.264.431.606.431 1.026z"/><path id="path11_fill" d="M99.034 1.44c0 .42-.144.762-.432 1.026a1.404 1.404 0 0 1-1.008.396c-.408 0-.75-.132-1.026-.396s-.414-.606-.414-1.026c0-.42.138-.762.414-1.026A1.394 1.394 0 0 1 97.594 0c.396 0 .732.138 1.008.414.288.264.432.606.432 1.026z"/><path id="path12_fill" d="M107.775 1.44c0 .42-.144.762-.432 1.026a1.404 1.404 0 0 1-1.008.396c-.408 0-.75-.132-1.026-.396s-.414-.606-.414-1.026c0-.42.138-.762.414-1.026A1.393 1.393 0 0 1 106.335 0c.396 0 .732.138 1.008.414.288.264.432.606.432 1.026z"/><path id="path13_fill" d="M116.516 1.44c0 .42-.144.762-.432 1.026a1.404 1.404 0 0 1-1.008.396c-.408 0-.75-.132-1.026-.396s-.414-.606-.414-1.026c0-.42.138-.762.414-1.026A1.393 1.393 0 0 1 115.076 0c.396 0 .732.138 1.008.414.288.264.432.606.432 1.026z"/><path id="path14_fill" d="M125.257 1.44c0 .42-.143.762-.431 1.026a1.406 1.406 0 0 1-1.008.396c-.408 0-.75-.132-1.026-.396s-.414-.606-.414-1.026c0-.42.138-.762.414-1.026A1.393 1.393 0 0 1 123.818 0c.396 0 .731.138 1.008.414.288.264.431.606.431 1.026z"/><path id="path15_fill" d="M133.999 1.44c0 .42-.144.762-.432 1.026a1.404 1.404 0 0 1-1.008.396c-.408 0-.75-.132-1.026-.396s-.414-.606-.414-1.026c0-.42.138-.762.414-1.026A1.393 1.393 0 0 1 132.559 0c.396 0 .732.138 1.008.414.288.264.432.606.432 1.026z"/></defs></svg>