<svg width="293" height="4" xmlns="http://www.w3.org/2000/svg" xmlns:xlink="http://www.w3.org/1999/xlink"><g transform="translate(.95 .37)" fill="#FFF"><use xlink:href="#path0_fill"/><use xlink:href="#path1_fill"/><use xlink:href="#path2_fill"/><use xlink:href="#path3_fill"/><use xlink:href="#path4_fill"/><use xlink:href="#path5_fill"/><use xlink:href="#path6_fill"/><use xlink:href="#path7_fill"/><use xlink:href="#path8_fill"/><use xlink:href="#path9_fill"/><use xlink:href="#path10_fill"/><use xlink:href="#path11_fill"/><use xlink:href="#path12_fill"/><use xlink:href="#path13_fill"/><use xlink:href="#path14_fill"/><use xlink:href="#path15_fill"/><use xlink:href="#path16_fill"/><use xlink:href="#path17_fill"/><use xlink:href="#path18_fill"/><use xlink:href="#path19_fill"/><use xlink:href="#path20_fill"/><use xlink:href="#path21_fill"/><use xlink:href="#path22_fill"/><use xlink:href="#path23_fill"/><use xlink:href="#path24_fill"/><use xlink:href="#path25_fill"/><use xlink:href="#path26_fill"/><use xlink:href="#path27_fill"/><use xlink:href="#path28_fill"/><use xlink:href="#path29_fill"/><use xlink:href="#path30_fill"/><use xlink:href="#path31_fill"/><use xlink:href="#path32_fill"/><use xlink:href="#path33_fill"/></g><defs><path id="path0_fill" d="M2.88 1.44c0 .42-.144.762-.432 1.026a1.404 1.404 0 0 1-1.008.396c-.408 0-.75-.132-1.026-.396S0 1.86 0 1.44C0 1.02.138.678.414.414A1.393 1.393 0 0 1 1.44 0c.396 0 .732.138 1.008.414.288.264.432.606.432 1.026z"/><path id="path1_fill" d="M11.621 1.44c0 .42-.144.762-.432 1.026a1.404 1.404 0 0 1-1.008.396c-.408 0-.75-.132-1.026-.396s-.414-.606-.414-1.026c0-.42.138-.762.414-1.026A1.393 1.393 0 0 1 10.181 0c.396 0 .732.138 1.008.414.288.264.432.606.432 1.026z"/><path id="path2_fill" d="M20.363 1.44c0 .42-.145.762-.433 1.026a1.404 1.404 0 0 1-1.008.396c-.407 0-.75-.132-1.026-.396s-.413-.606-.413-1.026c0-.42.137-.762.413-1.026A1.393 1.393 0 0 1 18.922 0c.396 0 .732.138 1.008.414.288.264.433.606.433 1.026z"/><path id="path3_fill" d="M29.104 1.44c0 .42-.144.762-.432 1.026a1.404 1.404 0 0 1-1.008.396c-.408 0-.75-.132-1.026-.396s-.414-.606-.414-1.026c0-.42.138-.762.414-1.026A1.393 1.393 0 0 1 27.664 0c.396 0 .732.138 1.008.414.288.264.432.606.432 1.026z"/><path id="path4_fill" d="M37.845 1.44c0 .42-.144.762-.432 1.026a1.404 1.404 0 0 1-1.008.396c-.408 0-.75-.132-1.026-.396s-.414-.606-.414-1.026c0-.42.138-.762.414-1.026A1.393 1.393 0 0 1 36.405 0c.396 0 .732.138 1.008.414.288.264.432.606.432 1.026z"/><path id="path5_fill" d="M46.586 1.44c0 .42-.144.762-.432 1.026a1.404 1.404 0 0 1-1.008.396c-.408 0-.75-.132-1.026-.396s-.414-.606-.414-1.026c0-.42.138-.762.414-1.026A1.393 1.393 0 0 1 45.146 0c.396 0 .732.138 1.008.414.288.264.432.606.432 1.026z"/><path id="path6_fill" d="M55.328 1.44c0 .42-.145.762-.433 1.026a1.404 1.404 0 0 1-1.008.396c-.407 0-.75-.132-1.026-.396-.275-.264-.413-.606-.413-1.026 0-.42.138-.762.413-1.026A1.393 1.393 0 0 1 53.889 0c.395 0 .732.138 1.008.414.288.264.431.606.431 1.026z"/><path id="path7_fill" d="M64.069 1.44c0 .42-.144.762-.432 1.026a1.404 1.404 0 0 1-1.008.396c-.408 0-.75-.132-1.026-.396s-.414-.606-.414-1.026c0-.42.138-.762.414-1.026A1.393 1.393 0 0 1 62.629 0c.396 0 .732.138 1.008.414.288.264.432.606.432 1.026z"/><path id="path8_fill" d="M72.81 1.44c0 .42-.144.762-.432 1.026a1.404 1.404 0 0 1-1.008.396c-.408 0-.75-.132-1.026-.396s-.414-.606-.414-1.026c0-.42.138-.762.414-1.026A1.393 1.393 0 0 1 71.37 0c.396 0 .732.138 1.008.414.288.264.432.606.432 1.026z"/><path id="path9_fill" d="M81.551 1.44c0 .42-.144.762-.432 1.026a1.404 1.404 0 0 1-1.008.396c-.408 0-.75-.132-1.026-.396s-.414-.606-.414-1.026c0-.42.138-.762.414-1.026A1.393 1.393 0 0 1 80.111 0c.396 0 .732.138 1.008.414.288.264.432.606.432 1.026z"/><path id="path10_fill" d="M90.293 1.44c0 .42-.145.762-.433 1.026a1.404 1.404 0 0 1-1.007.396c-.408 0-.75-.132-1.026-.396s-.415-.606-.415-1.026c0-.42.138-.762.414-1.026A1.393 1.393 0 0 1 88.853 0c.396 0 .732.138 1.008.414.287.264.431.606.431 1.026z"/><path id="path11_fill" d="M99.034 1.44c0 .42-.144.762-.432 1.026a1.404 1.404 0 0 1-1.008.396c-.408 0-.75-.132-1.026-.396s-.414-.606-.414-1.026c0-.42.138-.762.414-1.026A1.394 1.394 0 0 1 97.594 0c.396 0 .732.138 1.008.414.288.264.432.606.432 1.026z"/><path id="path12_fill" d="M107.775 1.44c0 .42-.144.762-.432 1.026a1.404 1.404 0 0 1-1.008.396c-.408 0-.75-.132-1.026-.396s-.414-.606-.414-1.026c0-.42.138-.762.414-1.026A1.393 1.393 0 0 1 106.335 0c.396 0 .732.138 1.008.414.288.264.432.606.432 1.026z"/><path id="path13_fill" d="M116.516 1.44c0 .42-.144.762-.432 1.026a1.404 1.404 0 0 1-1.008.396c-.408 0-.75-.132-1.026-.396s-.414-.606-.414-1.026c0-.42.138-.762.414-1.026A1.393 1.393 0 0 1 115.076 0c.396 0 .732.138 1.008.414.288.264.432.606.432 1.026z"/><path id="path14_fill" d="M125.257 1.44c0 .42-.143.762-.431 1.026a1.406 1.406 0 0 1-1.008.396c-.408 0-.75-.132-1.026-.396s-.414-.606-.414-1.026c0-.42.138-.762.414-1.026A1.393 1.393 0 0 1 123.818 0c.396 0 .731.138 1.008.414.288.264.431.606.431 1.026z"/><path id="path15_fill" d="M133.999 1.44c0 .42-.144.762-.432 1.026a1.404 1.404 0 0 1-1.008.396c-.408 0-.75-.132-1.026-.396s-.414-.606-.414-1.026c0-.42.138-.762.414-1.026A1.393 1.393 0 0 1 132.559 0c.396 0 .732.138 1.008.414.288.264.432.606.432 1.026z"/><path id="path16_fill" d="M142.74 1.44c0 .42-.144.762-.432 1.026a1.404 1.404 0 0 1-1.008.396c-.408 0-.75-.132-1.026-.396s-.414-.606-.414-1.026c0-.42.138-.762.414-1.026A1.393 1.393 0 0 1 141.3 0c.396 0 .732.138 1.008.414.288.264.432.606.432 1.026z"/><path id="path17_fill" d="M151.481 1.44c0 .42-.144.762-.432 1.026a1.404 1.404 0 0 1-1.008.396c-.408 0-.75-.132-1.026-.396s-.414-.606-.414-1.026c0-.42.138-.762.414-1.026A1.393 1.393 0 0 1 150.041 0c.396 0 .732.138 1.008.414.288.264.432.606.432 1.026z"/><path id="path18_fill" d="M160.223 1.44c0 .42-.145.762-.433 1.026a1.403 1.403 0 0 1-1.007.396c-.409 0-.75-.132-1.026-.396-.277-.264-.415-.606-.415-1.026 0-.42.138-.762.415-1.026A1.392 1.392 0 0 1 158.783 0c.395 0 .731.138 1.007.414.288.264.433.606.433 1.026z"/><path id="path19_fill" d="M168.964 1.44c0 .42-.144.762-.432 1.026a1.404 1.404 0 0 1-1.008.396c-.408 0-.75-.132-1.026-.396s-.414-.606-.414-1.026c0-.42.138-.762.414-1.026A1.393 1.393 0 0 1 167.524 0c.396 0 .732.138 1.008.414.288.264.432.606.432 1.026z"/><path id="path20_fill" d="M177.705 1.44c0 .42-.144.762-.432 1.026a1.404 1.404 0 0 1-1.008.396c-.408 0-.75-.132-1.026-.396s-.414-.606-.414-1.026c0-.42.138-.762.414-1.026A1.393 1.393 0 0 1 176.265 0c.396 0 .732.138 1.008.414.288.264.432.606.432 1.026z"/><path id="path21_fill" d="M186.446 1.44c0 .42-.144.762-.432 1.026a1.404 1.404 0 0 1-1.008.396c-.408 0-.75-.132-1.026-.396s-.414-.606-.414-1.026c0-.42.138-.762.414-1.026A1.393 1.393 0 0 1 185.006 0c.396 0 .732.138 1.008.414.288.264.432.606.432 1.026z"/><path id="path22_fill" d="M195.188 1.44c0 .42-.145.762-.433 1.026a1.404 1.404 0 0 1-1.008.396c-.408 0-.75-.132-1.026-.396s-.414-.606-.414-1.026c0-.42.138-.762.414-1.026A1.393 1.393 0 0 1 193.747 0c.396 0 .732.138 1.008.414.288.264.433.606.433 1.026z"/><path id="path23_fill" d="M203.929 1.44c0 .42-.144.762-.432 1.026a1.404 1.404 0 0 1-1.008.396c-.408 0-.75-.132-1.026-.396s-.414-.606-.414-1.026c0-.42.138-.762.414-1.026A1.393 1.393 0 0 1 202.489 0c.396 0 .732.138 1.008.414.288.264.432.606.432 1.026z"/><path id="path24_fill" d="M212.67 1.44c0 .42-.144.762-.432 1.026a1.404 1.404 0 0 1-1.008.396c-.408 0-.75-.132-1.026-.396s-.414-.606-.414-1.026c0-.42.138-.762.414-1.026A1.393 1.393 0 0 1 211.23 0c.396 0 .732.138 1.008.414.288.264.432.606.432 1.026z"/><path id="path25_fill" d="M221.411 1.44c0 .42-.144.762-.432 1.026a1.404 1.404 0 0 1-1.008.396c-.408 0-.75-.132-1.026-.396s-.414-.606-.414-1.026c0-.42.138-.762.414-1.026A1.393 1.393 0 0 1 219.971 0c.396 0 .732.138 1.008.414.288.264.432.606.432 1.026z"/><path id="path26_fill" d="M230.153 1.44c0 .42-.145.762-.432 1.026a1.404 1.404 0 0 1-1.008.396c-.408 0-.75-.132-1.026-.396s-.414-.606-.414-1.026c0-.42.138-.762.414-1.026A1.393 1.393 0 0 1 228.713 0c.396 0 .732.138 1.008.414.287.264.432.606.432 1.026z"/><path id="path27_fill" d="M238.894 1.44c0 .42-.144.762-.432 1.026a1.404 1.404 0 0 1-1.008.396c-.408 0-.75-.132-1.026-.396s-.414-.606-.414-1.026c0-.42.138-.762.414-1.026A1.393 1.393 0 0 1 237.454 0c.396 0 .732.138 1.008.414.288.264.432.606.432 1.026z"/><path id="path28_fill" d="M247.635 1.44c0 .42-.144.762-.432 1.026a1.404 1.404 0 0 1-1.008.396c-.408 0-.75-.132-1.026-.396s-.414-.606-.414-1.026c0-.42.138-.762.414-1.026A1.393 1.393 0 0 1 246.195 0c.396 0 .732.138 1.008.414.288.264.432.606.432 1.026z"/><path id="path29_fill" d="M256.376 1.44c0 .42-.144.762-.432 1.026a1.404 1.404 0 0 1-1.008.396c-.408 0-.75-.132-1.026-.396s-.414-.606-.414-1.026c0-.42.138-.762.414-1.026A1.393 1.393 0 0 1 254.936 0c.396 0 .732.138 1.008.414.288.264.432.606.432 1.026z"/><path id="path30_fill" d="M265.117 1.44c0 .42-.144.762-.432 1.026a1.404 1.404 0 0 1-1.008.396c-.407 0-.75-.132-1.026-.396s-.414-.606-.414-1.026c0-.42.138-.762.414-1.026A1.395 1.395 0 0 1 263.677 0c.396 0 .732.138 1.008.414.288.264.432.606.432 1.026z"/><path id="path31_fill" d="M273.859 1.44c0 .42-.144.762-.432 1.026a1.404 1.404 0 0 1-1.008.396c-.408 0-.75-.132-1.026-.396s-.414-.606-.414-1.026c0-.42.138-.762.414-1.026A1.393 1.393 0 0 1 272.419 0c.396 0 .732.138 1.008.414.288.264.432.606.432 1.026z"/><path id="path32_fill" d="M282.6 1.44c0 .42-.144.762-.432 1.026a1.404 1.404 0 0 1-1.008.396c-.408 0-.75-.132-1.026-.396s-.414-.606-.414-1.026c0-.42.138-.762.414-1.026A1.393 1.393 0 0 1 281.16 0c.396 0 .732.138 1.008.414.288.264.432.606.432 1.026z"/><path id="path33_fill" d="M291.341 1.44c0 .42-.144.762-.432 1.026a1.404 1.404 0 0 1-1.008.396c-.408 0-.75-.132-1.026-.396s-.414-.606-.414-1.026c0-.42.138-.762.414-1.026A1.393 1.393 0 0 1 289.901 0c.396 0 .732.138 1.008.414.288.264.432.606.432 1.026z"/></defs></svg>