<svg width="938" height="316" fill="none" xmlns="http://www.w3.org/2000/svg"><path d="M249.38 312.091l.753-47.199 6.784-23.275 1.995-18.726v-23.296l-19.131-17.431-10.131-34.653 38.595-38.494 25.67 13.34 26.447 23.463 31.811 11.648-6.673 32.378-26.956 34.924-22.634 38.348-29.638 36.031-18.888 14.8" stroke="#374E7E" stroke-width=".5" stroke-miterlimit="10"/><path d="M268.245 111.605l-6.584 25.384-32.01 12.4-22.257-46.719-44.026-24.382-36.2-43.358L111.45-1.121l-14.098-38.14-29.13-23.88L2.45-79.802l17.38-44.046 116.958 11.294 44.181 17.702 10.153 26.553 43.25 26.449 48.482-17.326-16.072 54.901-24.119 27.535-24.673 24.153-34.272 26.762 25.294 1.064 13.345 33.776 45.888 2.589zm.001 57.93l-6.584-31.021m39.748 30.434l-39.748-31.96 32.255-14.633 26.446 23.464-18.954 23.13zm-38.131-31.96l60.873 8.83m-33.007 69.517l10.264-44.882m0-1.523l17.136 55.841m-17.136-55.841l44.092 20.917m5.498-32.796l-47.972 11.878m-44.114 30.667l10.109-30.666m-.002 0l22.124 46.406m.001 1.061l2.771 47.429m-36.911-23.045l36.134 24.11m-34.535-43.128l34.626-6.033m24.627 10.207l-25.316-9.54m-43.182 51.084l16.914 30.75m-15.982-30.75l43.627-3.653m-54.136-83.543l21.88-41.771m7.358 30.416h32.387m-44.491 72.684l35.624-25.217M175.45-21.14l-8.535 39.433M127.17 34.93l41.366-16.637m7.268-40.519l42.186 69.64m-42.186-69.64l67.568 44.506m-76.457-3.987l51.075 29.121m-34.272 26.762l-16.803-55.883m-4.367 61.06l21.946-4.113m-.001 0l20.15 27.43m.003-.041l4.367-25.864m-4.367 25.905l19.308 6.346m-1.242-.417l6.939 40.519M111.451-1.121l55.464 19.414M500.83 247.711l-12.7-41.311-2.771-37.45-9.865-29.309-27.622-14.696-38.838-17.806 4.655-51.374 53.625-33.234 40.723 16.868 46.796 49.85 18.355 18.245 14.631-4.092-11.283 31.71-10.818 7.14-10.087 18.995 3.348 24.007-9.643 11.752-13.146 32.357-35.358 20.938M413.779 56.83l39.282 36.532m0-.002l14.254-70.83m-.002 0l29.993 82.75m29.376-10.417l-18.666-55.466m0 0L497.31 105.28m24.628 42.23l-24.341-44.11m24.341 44.11l4.744-52.647m-.046-.147l-29.284 8.83m-44.291-10.185l45.023 10.041M453.06 93.361l-5.187 31.585m-36.864-17.807l42.053-13.778m-.001 0l21.303 47.011m0-.002l23.72-36.97m-11.859 65.526l11.084-65.694m-14.699 65.697l39.326-21.418m.421-.584l31.301-58.263m-26.977 6.198l29.594-5.616m-.001 1.422l9.444 51.583m.002-.001l-43.782 5.26m0-1.503l27.4 50.998M520.34 211.66l1.596-65.653m14.254 85.212l-15.85-21.084m0 .001l-30.237-1.858m30.237 1.86l28.996-13.131m5.499-107.759l-14.742-35.55m-126.314 3.13l21.015-28.224m.133.522l34.094-8.08" stroke="#374E7E" stroke-width=".5" stroke-miterlimit="10"/><path d="M508.014 38.771l32.055 14.926 10.33 9.205 12.37 24.383 16.626 4.78 32.055-20.207-10.84-11.544-14.498 3.611-5.675-17.556 7.293 4.572 36.356 12.984 20.949 6.388 1.064 11.482 15.517 34.694 18.71-34.694 14.143-9.436 17.424 16.324 7.626 18.12 20.86.355-1.219-30.52 22.168-5.051 19.109-26.261-1.308-24.383-9.709-5.74 11.327-4.99 44.47-24.319 7.758-26.574-12.236-4.176L841.51-66.9l77.943-7.786 15.983-43.003-92.707-18.788-78.851-2.589-55.709-16.992-81.312 38.306-69.253 24.946-14.299-22.337-44.114 1.19-22.855 24.717-11.483 19.184 32.454-2.735 9.776-22.086 16.47 9.812-15.517 32.189-15.163 8.058-15.517-13.047-1.707 13.402-13.301 7.098-16.737 16.178 1.197 19.205h-17.934l-3.303 9.373 2.749 15.135 19.64-5.762L461.883.715l18.112 1.921L485.58-9.89l16.781 24.132 11.439 5.449.665-12.212 23.609-16.074 14.077 7.557-5.942 11.105-26.402 7.348s8.978 10.96 9.909 11.252c.932.292 16.493-2.588 16.493-2.588l-2.748 11.898-15.097 4.175-20.261-3.507M425.482 7.418l22.39 8.37m-19.641 6.744l18.488-25.155M462.947.403l32.742-31.814m19.064 40.332l-19.441-38.807m29.838-2.61L514.044 7.522M629.607-3.709l-62.27 48.535m73.619-16.22L629.606-3.71" stroke="#374E7E" stroke-width=".5" stroke-miterlimit="10"/><path d="M624.507 62.382l5.099-66.091 28.441-63.252s13.722 34.465 13.722 31.876c0-2.588 39.26-73.397 39.26-73.397l25.316 69.243-61.85 49.203 69.897 6.805-28.176 31.084 44.07 22.962 9.134-55.611 25.049-58.618-4.744-40.853 51.896 14.613 11.838-37.367-9.089-29.601 73.575 62.96" stroke="#374E7E" stroke-width=".5" stroke-miterlimit="10"/><path d="M671.748-35.086l2.771 45.09 19.176 61.562-52.738-44.465 4.079 43.191m-69.651 3.548l4.766 17.744 5.963-27.68L565.72 43.32l-18.266-16.325 4.633-28.119 77.522-2.588-60.63-47.638m102.769 16.264l-30.791 62.083m-59.189 19.331l47.839-47.45m107.116-36.552l7.67 54.443m-69.872-6.764l43.272 39.37m-.001-1.522l-6.761 40.31m-30.814-8.999l-39.26-53.587m103.436-8.808l25.116-1.566m.001.001l-33.164-54.401M550.4 62.903l16.936-18.078m-27.243 8.872L565.719 43.3M552.086-2.623l13.633 47.45m156.439 97.423h47.351m-11.016 73.439c2.217.125 40.9 31.521 40.9 31.521l-1.596-28.494 22.013-40.707-61.317 39.162" stroke="#374E7E" stroke-width=".5" stroke-miterlimit="10"/><path d="M844.369 264.893l-2.771-27.033 14.609-26.992-56.817 6.325 44.979 47.7zm-27.33-86.717l41.92 32.524m-15.743 27.156L799.39 217.19m-2.593 27.912l44.824 19.957m-42.228-47.866l-40.9-2.589M565.719 44.825l9.665 29.017m-25.537-11.459l25.538 11.46m-.002-.001l10.751-9.937m54.823-36.908l33.562-16.992m-108.8 34.82l16.05 1.503M542.84 36.81l-2.128 17.43m3.747-17.43l22.877 8.016m-38.351-3.027l11.727 12.441" stroke="#374E7E" stroke-width=".5" stroke-miterlimit="10"/><path d="M249.757 270.382c1.518 0 2.749-1.159 2.749-2.588 0-1.43-1.231-2.589-2.75-2.589-1.517 0-2.748 1.159-2.748 2.589s1.23 2.588 2.749 2.588zm8.756-67.885c1.518 0 2.749-1.159 2.749-2.588 0-1.43-1.231-2.589-2.75-2.589-1.517 0-2.748 1.159-2.748 2.589s1.23 2.588 2.749 2.588zm35.005-77.239c1.518 0 2.749-1.159 2.749-2.588 0-1.43-1.231-2.589-2.75-2.589-1.517 0-2.748 1.159-2.748 2.589s1.23 2.588 2.749 2.588zm-25.65-10.751c1.518 0 2.749-1.159 2.749-2.588 0-1.43-1.231-2.589-2.75-2.589-1.517 0-2.748 1.159-2.748 2.589s1.23 2.588 2.749 2.588zm-50.276-64.191c1.518 0 2.749-1.16 2.749-2.589 0-1.43-1.231-2.588-2.75-2.588-1.517 0-2.748 1.159-2.748 2.588 0 1.43 1.23 2.589 2.749 2.589zm207.516-40.019c1.518 0 2.749-1.159 2.749-2.588 0-1.43-1.231-2.589-2.75-2.589-1.517 0-2.748 1.16-2.748 2.589 0 1.43 1.23 2.588 2.749 2.588zm22.387 117.551c1.518 0 2.749-1.159 2.749-2.588 0-1.43-1.231-2.589-2.75-2.589-1.517 0-2.748 1.159-2.748 2.589s1.23 2.588 2.749 2.588zM413.38 59.732c1.518 0 2.749-1.16 2.749-2.589 0-1.43-1.231-2.588-2.75-2.588-1.517 0-2.748 1.159-2.748 2.588 0 1.43 1.23 2.589 2.749 2.589zm21.037-28.225c1.518 0 2.749-1.159 2.749-2.588 0-1.43-1.231-2.589-2.75-2.589-1.517 0-2.748 1.159-2.748 2.589s1.23 2.588 2.749 2.588zm79.938-8.684c1.518 0 2.749-1.16 2.749-2.589 0-1.43-1.231-2.589-2.75-2.589-1.517 0-2.748 1.16-2.748 2.589 0 1.43 1.23 2.589 2.749 2.589zM484.982 171.83c1.518 0 2.749-1.159 2.749-2.588 0-1.43-1.231-2.589-2.75-2.589-1.517 0-2.748 1.159-2.748 2.589s1.23 2.588 2.749 2.588zm15.473 81.373c1.518 0 2.749-1.159 2.749-2.588 0-1.43-1.231-2.589-2.75-2.589-1.517 0-2.748 1.159-2.748 2.589s1.23 2.588 2.749 2.588zm48.482-53.315c1.518 0 2.749-1.159 2.749-2.588 0-1.43-1.231-2.589-2.75-2.589-1.517 0-2.748 1.159-2.748 2.589s1.23 2.588 2.749 2.588zm5.52-107.738c1.518 0 2.749-1.16 2.749-2.589 0-1.43-1.231-2.588-2.75-2.588-1.517 0-2.748 1.159-2.748 2.588 0 1.43 1.23 2.589 2.749 2.589zm-14.765-35.572c1.518 0 2.749-1.158 2.749-2.588 0-1.43-1.231-2.589-2.75-2.589-1.517 0-2.748 1.16-2.748 2.589 0 1.43 1.23 2.588 2.749 2.588zm47.751 49.726c1.518 0 2.749-1.159 2.749-2.588 0-1.43-1.231-2.589-2.75-2.589-1.517 0-2.748 1.159-2.748 2.589s1.23 2.588 2.749 2.588zM507.638 42.3c1.518 0 2.749-1.159 2.749-2.588 0-1.43-1.231-2.589-2.75-2.589-1.517 0-2.748 1.159-2.748 2.589s1.23 2.588 2.749 2.588zm39.437-12.422c1.518 0 2.749-1.159 2.749-2.588 0-1.43-1.231-2.589-2.75-2.589-1.517 0-2.748 1.16-2.748 2.589 0 1.43 1.23 2.588 2.749 2.588zm76.635 35.905c1.519 0 2.75-1.158 2.75-2.588 0-1.43-1.231-2.589-2.75-2.589-1.517 0-2.748 1.16-2.748 2.589 0 1.43 1.23 2.588 2.749 2.588zm137.155 8.684c1.518 0 2.749-1.159 2.749-2.588 0-1.43-1.231-2.589-2.75-2.589-1.517 0-2.748 1.159-2.748 2.589s1.23 2.588 2.749 2.588zm5.495 70.663c1.519 0 2.75-1.159 2.75-2.588 0-1.43-1.231-2.589-2.75-2.589-1.517 0-2.748 1.159-2.748 2.589s1.23 2.588 2.749 2.588zm-8.267 74.963c1.518 0 2.749-1.159 2.749-2.588 0-1.43-1.231-2.589-2.75-2.589-1.517 0-2.748 1.159-2.748 2.589s1.23 2.588 2.749 2.588zm39.303 27.911c1.518 0 2.749-1.159 2.749-2.588 0-1.43-1.231-2.589-2.75-2.589-1.517 0-2.748 1.159-2.748 2.589s1.23 2.588 2.749 2.588zm24.88-67.548c1.518-.1 2.662-1.34 2.556-2.77-.106-1.43-1.423-2.507-2.941-2.407-1.518.1-2.663 1.34-2.557 2.77.107 1.43 1.424 2.507 2.942 2.407zm21.932 87.286c1.515-.098 2.659-1.333 2.555-2.76-.104-1.426-1.416-2.503-2.93-2.405-1.515.098-2.659 1.333-2.555 2.76.104 1.426 1.416 2.503 2.93 2.405zm11.816-54.017c1.515-.098 2.658-1.334 2.554-2.76-.105-1.427-1.417-2.503-2.932-2.405-1.514.098-2.657 1.334-2.553 2.76.104 1.427 1.417 2.503 2.931 2.405zM721.78 145.13c1.518 0 2.749-1.159 2.749-2.588 0-1.43-1.231-2.589-2.75-2.589-1.517 0-2.748 1.159-2.748 2.589s1.23 2.588 2.749 2.588zm56.973-121.22c1.518 0 2.749-1.158 2.749-2.588 0-1.43-1.231-2.589-2.75-2.589-1.517 0-2.748 1.16-2.748 2.589 0 1.43 1.23 2.588 2.749 2.588zm-98.915 60.746c1.518 0 2.749-1.16 2.749-2.589 0-1.43-1.231-2.589-2.75-2.589-1.517 0-2.748 1.16-2.748 2.589 0 1.43 1.23 2.589 2.749 2.589zm64.178-64.985c1.518 0 2.749-1.159 2.749-2.588 0-1.43-1.231-2.589-2.75-2.589-1.517 0-2.748 1.159-2.748 2.589s1.23 2.588 2.749 2.588zM629.23 1.948c3.134 0 5.675-2.393 5.675-5.344 0-2.952-2.54-5.344-5.675-5.344-3.134 0-5.675 2.392-5.675 5.344 0 2.951 2.54 5.344 5.675 5.344zm-518.156-.166c1.518 0 2.749-1.16 2.749-2.589 0-1.43-1.231-2.589-2.75-2.589-1.517 0-2.748 1.16-2.748 2.589 0 1.43 1.23 2.589 2.749 2.589zm72.268 75.275c1.518 0 2.749-1.159 2.749-2.589s-1.231-2.588-2.75-2.588c-1.517 0-2.748 1.159-2.748 2.588 0 1.43 1.23 2.589 2.749 2.589zm-21.17 5.198c1.518 0 2.749-1.159 2.749-2.588 0-1.43-1.231-2.589-2.75-2.589-1.517 0-2.748 1.159-2.748 2.589s1.23 2.588 2.749 2.588zm42.074 23.318c1.518 0 2.749-1.159 2.749-2.588 0-1.43-1.231-2.589-2.75-2.589-1.517 0-2.748 1.159-2.748 2.589s1.23 2.588 2.749 2.588zm113.922 122.078c1.518 0 2.749-1.159 2.749-2.588 0-1.43-1.231-2.589-2.75-2.589-1.517 0-2.748 1.159-2.748 2.589s1.23 2.588 2.749 2.588zm26.957-34.904c1.518 0 2.749-1.159 2.749-2.588 0-1.43-1.231-2.589-2.75-2.589-1.517 0-2.748 1.159-2.748 2.589s1.23 2.588 2.749 2.588zm-79.252 109.301c1.518 0 2.749-1.159 2.749-2.588 0-1.43-1.231-2.589-2.75-2.589-1.517 0-2.748 1.159-2.748 2.589s1.23 2.588 2.749 2.588zm-7.36-76.964c1.102 0 1.995-.842 1.995-1.88 0-1.037-.893-1.878-1.995-1.878s-1.995.841-1.995 1.879c0 1.037.893 1.879 1.995 1.879zm42.52-53.044c1.64 0 2.97-1.253 2.97-2.798 0-1.545-1.33-2.797-2.97-2.797-1.641 0-2.971 1.252-2.971 2.797 0 1.545 1.33 2.798 2.97 2.798zM529.517 30.441c.894 0 1.619-.682 1.619-1.524 0-.841-.725-1.523-1.619-1.523-.893 0-1.618.682-1.618 1.523 0 .842.725 1.524 1.618 1.524zm35.825 17.726c1.776 0 3.215-1.355 3.215-3.027 0-1.672-1.44-3.027-3.215-3.027s-3.214 1.355-3.214 3.027c0 1.672 1.44 3.027 3.214 3.027zM550.09 64.7c.88 0 1.595-.673 1.595-1.503 0-.83-.714-1.503-1.596-1.503-.881 0-1.596.673-1.596 1.503 0 .83.715 1.503 1.596 1.503zm30.282-15.385c1.567 0 2.837-1.197 2.837-2.672 0-1.476-1.27-2.672-2.837-2.672-1.568 0-2.838 1.196-2.838 2.672 0 1.475 1.27 2.672 2.838 2.672zm5.918 16.408c.894 0 1.619-.683 1.619-1.524 0-.842-.725-1.524-1.619-1.524-.893 0-1.618.682-1.618 1.524 0 .841.725 1.524 1.618 1.524zm14.211-3.591c.894 0 1.619-.682 1.619-1.524s-.725-1.524-1.619-1.524-1.618.682-1.618 1.524.724 1.524 1.618 1.524zm9.709 12.044c.894 0 1.619-.683 1.619-1.524 0-.842-.725-1.524-1.619-1.524-.893 0-1.618.682-1.618 1.524 0 .841.725 1.524 1.618 1.524zm-35.203 1.503c.894 0 1.619-.683 1.619-1.524 0-.842-.725-1.524-1.619-1.524s-1.618.682-1.618 1.524c0 .841.724 1.524 1.618 1.524zm4.764 18.205c.894 0 1.619-.683 1.619-1.524 0-.842-.725-1.524-1.619-1.524-.893 0-1.618.682-1.618 1.524 0 .841.725 1.524 1.618 1.524zm-17.556-5.407c.894 0 1.619-.682 1.619-1.523 0-.842-.725-1.524-1.619-1.524-.893 0-1.618.682-1.618 1.524 0 .841.725 1.523 1.618 1.523zm78.343-59.58c.882 0 1.596-.673 1.596-1.503 0-.83-.714-1.503-1.596-1.503-.881 0-1.596.673-1.596 1.503 0 .83.715 1.503 1.596 1.503zm4.61 43.756c.894 0 1.619-.682 1.619-1.524 0-.841-.725-1.524-1.619-1.524-.893 0-1.618.683-1.618 1.524 0 .842.725 1.524 1.618 1.524zm0 10.937c.894 0 1.619-.681 1.619-1.523 0-.842-.725-1.524-1.619-1.524-.893 0-1.618.682-1.618 1.524s.725 1.524 1.618 1.524zm16.316 34.674c.882 0 1.596-.673 1.596-1.503 0-.83-.714-1.503-1.596-1.503-.881 0-1.596.673-1.596 1.503 0 .83.715 1.503 1.596 1.503zm31.812-44.108c.882 0 1.596-.672 1.596-1.503 0-.83-.714-1.503-1.596-1.503-.881 0-1.596.673-1.596 1.503 0 .83.715 1.503 1.596 1.503zM711.494 90.5c.894 0 1.619-.681 1.619-1.523 0-.842-.725-1.524-1.619-1.524-.893 0-1.618.682-1.618 1.524s.725 1.524 1.618 1.524zm7.539 18.476c.894 0 1.619-.682 1.619-1.524s-.725-1.524-1.619-1.524-1.618.682-1.618 1.524.724 1.524 1.618 1.524zm20.149 0c.894 0 1.619-.682 1.619-1.524s-.725-1.524-1.619-1.524-1.618.682-1.618 1.524.724 1.524 1.618 1.524zM542.464 38.605c.882 0 1.596-.673 1.596-1.503 0-.83-.714-1.503-1.596-1.503-.881 0-1.596.673-1.596 1.503 0 .83.715 1.503 1.596 1.503zM527.9 43.823c.893 0 1.618-.682 1.618-1.524 0-.841-.725-1.524-1.619-1.524-.893 0-1.618.683-1.618 1.524 0 .842.725 1.524 1.618 1.524zm146.22-32.002c.894 0 1.619-.682 1.619-1.524 0-.841-.725-1.524-1.619-1.524-.893 0-1.618.683-1.618 1.524 0 .842.725 1.524 1.618 1.524zm43.292 37.87c.894 0 1.619-.682 1.619-1.524 0-.841-.725-1.523-1.619-1.523-.893 0-1.618.682-1.618 1.523 0 .842.725 1.524 1.618 1.524zm21.77 29.016c.894 0 1.619-.682 1.619-1.524s-.725-1.524-1.619-1.524-1.618.682-1.618 1.524.724 1.524 1.618 1.524zm41.168-30.541c.894 0 1.619-.682 1.619-1.524s-.725-1.524-1.619-1.524c-.893 0-1.618.682-1.618 1.524s.725 1.524 1.618 1.524zM769.133 17.5c.882 0 1.596-.673 1.596-1.503 0-.83-.714-1.503-1.596-1.503-.881 0-1.596.673-1.596 1.503 0 .83.715 1.503 1.596 1.503zm28.263 201.527c.894 0 1.619-.682 1.619-1.524s-.725-1.524-1.619-1.524c-.893 0-1.618.682-1.618 1.524s.725 1.524 1.618 1.524zm43.826 20.65c.894 0 1.619-.682 1.619-1.524s-.725-1.524-1.619-1.524c-.893 0-1.618.682-1.618 1.524s.725 1.524 1.618 1.524zM551.685.717c.894 0 1.619-.683 1.619-1.524 0-.842-.725-1.524-1.619-1.524-.893 0-1.618.682-1.618 1.524 0 .841.725 1.524 1.618 1.524zm-6.629 11.104c.894 0 1.619-.682 1.619-1.524 0-.841-.725-1.524-1.619-1.524-.893 0-1.618.683-1.618 1.524 0 .842.725 1.524 1.618 1.524zm-20.814 6.578c.54 0 .976-.412.976-.919 0-.507-.437-.918-.976-.918-.538 0-.975.41-.975.918 0 .507.437.919.975.919zM479.53 5.268c.893 0 1.618-.683 1.618-1.524 0-.842-.725-1.524-1.619-1.524-.893 0-1.618.682-1.618 1.524 0 .841.725 1.524 1.618 1.524zm-32.035 12.357c.894 0 1.619-.682 1.619-1.524s-.725-1.524-1.619-1.524c-.893 0-1.618.682-1.618 1.524s.725 1.524 1.618 1.524zm-19.639 6.723c.882 0 1.596-.673 1.596-1.503 0-.83-.714-1.503-1.596-1.503-.881 0-1.596.673-1.596 1.503 0 .83.715 1.503 1.596 1.503zm74.039-8.267c.882 0 1.596-.673 1.596-1.503 0-.83-.714-1.503-1.596-1.503-.881 0-1.596.673-1.596 1.503 0 .83.715 1.503 1.596 1.503zm12.459-6.848c.894 0 1.619-.682 1.619-1.524 0-.841-.725-1.523-1.619-1.523-.893 0-1.618.682-1.618 1.523 0 .842.725 1.524 1.618 1.524zm-51.807-7.014c.882 0 1.596-.673 1.596-1.503 0-.83-.714-1.503-1.596-1.503-.881 0-1.596.673-1.596 1.503 0 .83.715 1.503 1.596 1.503zM521.56 150.35c1.482 0 2.683-1.131 2.683-2.526 0-1.395-1.201-2.526-2.683-2.526-1.481 0-2.682 1.13-2.682 2.526 0 1.395 1.2 2.526 2.682 2.526zm-1.619 61.624c.894 0 1.619-.682 1.619-1.524s-.725-1.524-1.619-1.524c-.893 0-1.618.682-1.618 1.524s.725 1.524 1.618 1.524zm6.362-115.273c.894 0 1.619-.682 1.619-1.524 0-.841-.725-1.524-1.619-1.524-.893 0-1.618.683-1.618 1.524 0 .842.725 1.524 1.618 1.524zm-73.621-.627c1.42 0 2.572-1.084 2.572-2.421 0-1.337-1.151-2.422-2.572-2.422-1.42 0-2.571 1.085-2.571 2.422 0 1.337 1.151 2.421 2.571 2.421zM262.04 139.685c1.395 0 2.526-1.066 2.526-2.38 0-1.315-1.131-2.38-2.527-2.38-1.396 0-2.527 1.065-2.527 2.38 0 1.314 1.131 2.38 2.527 2.38zM166.537 20.13c.894 0 1.619-.681 1.619-1.523 0-.842-.725-1.524-1.619-1.524-.893 0-1.618.682-1.618 1.524s.725 1.524 1.618 1.524zm42.075 58.472c.894 0 1.619-.682 1.619-1.523 0-.842-.725-1.524-1.619-1.524-.893 0-1.618.682-1.618 1.524 0 .841.725 1.523 1.618 1.523zm13.345 32.232c.894 0 1.619-.682 1.619-1.524s-.725-1.524-1.619-1.524c-.893 0-1.618.682-1.618 1.524s.725 1.524 1.618 1.524zm21.037-86.468c.894 0 1.619-.682 1.619-1.524 0-.841-.725-1.524-1.619-1.524-.893 0-1.618.683-1.618 1.524 0 .842.725 1.524 1.618 1.524zm5.346 290.794c1.628 0 2.948-1.242 2.948-2.776 0-1.533-1.32-2.776-2.949-2.776-1.628 0-2.948 1.243-2.948 2.776 0 1.534 1.32 2.777 2.948 2.777zm19.529-143.455c1.09 0 1.973-.832 1.973-1.858 0-1.026-.883-1.858-1.973-1.858s-1.973.832-1.973 1.858c0 1.026.883 1.858 1.973 1.858zM124.795 37.102c1.09 0 1.973-.831 1.973-1.857s-.883-1.858-1.973-1.858-1.973.832-1.973 1.858c0 1.026.883 1.857 1.973 1.857zm165.973 181.092c1.493 0 2.704-1.14 2.704-2.547 0-1.407-1.21-2.547-2.704-2.547-1.494 0-2.705 1.14-2.705 2.547 0 1.406 1.21 2.547 2.705 2.547zm59.032-58.531c1.102 0 1.995-.842 1.995-1.88 0-1.037-.893-1.878-1.995-1.878s-1.995.841-1.995 1.879c0 1.037.893 1.879 1.995 1.879zm58.858-50.333c1.102 0 1.995-.84 1.995-1.878 0-1.038-.893-1.879-1.995-1.879s-1.995.841-1.995 1.879c0 1.037.893 1.879 1.995 1.879zm58.256-84.61c1.102 0 1.995-.84 1.995-1.878 0-1.038-.893-1.88-1.995-1.88s-1.995.842-1.995 1.88c0 1.037.893 1.878 1.995 1.878zm98.427 119.703c1.102 0 1.995-.842 1.995-1.88 0-1.037-.893-1.878-1.995-1.878s-1.995.841-1.995 1.879c0 1.037.893 1.879 1.995 1.879zm-9.467 18.661c1.102 0 1.995-.842 1.995-1.88 0-1.037-.893-1.878-1.995-1.878s-1.995.841-1.995 1.879c0 1.037.893 1.879 1.995 1.879zm1.996 24.758c1.102 0 1.995-.842 1.995-1.88 0-1.037-.893-1.878-1.995-1.878s-1.995.841-1.995 1.879c0 1.037.893 1.879 1.995 1.879zm-83.905-45.278c1.102 0 1.995-.842 1.995-1.88 0-1.037-.893-1.878-1.995-1.878s-1.995.841-1.995 1.879c0 1.037.893 1.879 1.995 1.879zm22.945-35.468c1.983 0 3.59-1.515 3.59-3.382 0-1.868-1.607-3.382-3.59-3.382-1.984 0-3.592 1.514-3.592 3.382 0 1.867 1.608 3.382 3.591 3.382zm-9.178 103.334c1.09 0 1.973-.832 1.973-1.858 0-1.026-.883-1.858-1.973-1.858s-1.973.832-1.973 1.858c0 1.026.883 1.858 1.973 1.858zm48.08 22.982c1.102 0 1.995-.842 1.995-1.88 0-1.037-.893-1.878-1.995-1.878s-1.995.841-1.995 1.879c0 1.037.893 1.879 1.995 1.879zm-296.409-50.957c1.09 0 1.973-.832 1.973-1.858 0-1.026-.883-1.858-1.973-1.858s-1.973.832-1.973 1.858c0 1.026.883 1.858 1.973 1.858zm-10.15-30.916c1.09 0 1.973-.832 1.973-1.858 0-1.026-.883-1.858-1.973-1.858s-1.973.832-1.973 1.858c0 1.026.883 1.858 1.973 1.858zM256.54 245.5c2.094 0 3.791-1.599 3.791-3.57 0-1.972-1.697-3.57-3.79-3.57-2.094 0-3.791 1.598-3.791 3.57 0 1.971 1.697 3.57 3.79 3.57zm63.424-95.819c2.093 0 3.79-1.598 3.79-3.57 0-1.97-1.697-3.569-3.79-3.569-2.094 0-3.791 1.598-3.791 3.57 0 1.971 1.697 3.57 3.79 3.57z" fill="#374E7E"/></svg>