<svg xmlns="http://www.w3.org/2000/svg" width="562" height="374" viewBox="0 0 562 374" fill="none">
    <style>
        svg:hover .b-chart-part {
        opacity: .8;
        }

        .b-chart-part {
        -webkit-transition: all .2s;
        transition: all .2s
        }

        .b-chart-part:hover {
        opacity: 1!important
        }

        .b-chart-part:hover .b-chart-piece {
        -webkit-transform: scale(1.05);
        transform: scale(1.05)
        }

        .b-chart-part .b-chart-piece {
        -webkit-transition: all .2s;
        transition: all .2s;
        -webkit-transform-origin: 50% 50%;
        transform-origin: 50% 50%
        }
    </style>
    <g class="b-chart-part">
        <path d="M4.248 17.27C3.924 17.27 3.588 17.246 3.24 17.198C2.904 17.162 2.58 17.108 2.268 17.036C1.968 16.976 1.692 16.91 1.44 16.838C1.188 16.754 0.996 16.676 0.864 16.604L1.296 14.75C1.548 14.87 1.914 15.008 2.394 15.164C2.874 15.308 3.468 15.38 4.176 15.38C5.124 15.38 5.808 15.2 6.228 14.84C6.648 14.468 6.858 13.976 6.858 13.364C6.858 12.968 6.774 12.638 6.606 12.374C6.45 12.11 6.228 11.9 5.94 11.744C5.664 11.576 5.34 11.462 4.968 11.402C4.608 11.33 4.224 11.294 3.816 11.294H3.078V9.53H3.978C4.254 9.53 4.53 9.506 4.806 9.458C5.094 9.398 5.352 9.302 5.58 9.17C5.808 9.026 5.994 8.84 6.138 8.612C6.282 8.384 6.354 8.09 6.354 7.73C6.354 7.442 6.3 7.196 6.192 6.992C6.084 6.788 5.94 6.62 5.76 6.488C5.592 6.356 5.394 6.26 5.166 6.2C4.938 6.14 4.698 6.11 4.446 6.11C3.906 6.11 3.426 6.194 3.006 6.362C2.586 6.518 2.214 6.698 1.89 6.902L1.098 5.282C1.266 5.174 1.47 5.06 1.71 4.94C1.95 4.82 2.214 4.706 2.502 4.598C2.802 4.49 3.12 4.406 3.456 4.346C3.792 4.274 4.146 4.238 4.518 4.238C5.214 4.238 5.814 4.322 6.318 4.49C6.822 4.658 7.236 4.898 7.56 5.21C7.896 5.51 8.142 5.87 8.298 6.29C8.466 6.698 8.55 7.148 8.55 7.64C8.55 8.216 8.388 8.732 8.064 9.188C7.752 9.644 7.344 9.992 6.84 10.232C7.488 10.46 8.022 10.838 8.442 11.366C8.874 11.894 9.09 12.572 9.09 13.4C9.09 13.952 8.994 14.468 8.802 14.948C8.61 15.416 8.316 15.824 7.92 16.172C7.524 16.508 7.02 16.778 6.408 16.982C5.808 17.174 5.088 17.27 4.248 17.27ZM13.0025 17C13.0745 16.088 13.2365 15.128 13.4885 14.12C13.7405 13.112 14.0465 12.134 14.4065 11.186C14.7785 10.226 15.1805 9.332 15.6125 8.504C16.0565 7.664 16.4945 6.962 16.9265 6.398H11.1845V4.526H19.5185V6.182C19.1225 6.626 18.6905 7.232 18.2225 8C17.7545 8.768 17.3105 9.638 16.8905 10.61C16.4705 11.57 16.1045 12.602 15.7925 13.706C15.4925 14.81 15.3065 15.908 15.2345 17H13.0025ZM27.3549 7.658C27.3549 8.75 27.0729 9.59 26.5089 10.178C25.9569 10.766 25.2309 11.06 24.3309 11.06C23.8869 11.06 23.4789 10.988 23.1069 10.844C22.7349 10.688 22.4169 10.466 22.1529 10.178C21.8889 9.89 21.6789 9.536 21.5229 9.116C21.3789 8.684 21.3069 8.198 21.3069 7.658C21.3069 6.554 21.5829 5.714 22.1349 5.138C22.6989 4.55 23.4309 4.256 24.3309 4.256C25.2309 4.256 25.9569 4.55 26.5089 5.138C27.0729 5.714 27.3549 6.554 27.3549 7.658ZM25.6449 7.658C25.6449 7.022 25.5249 6.548 25.2849 6.236C25.0569 5.912 24.7389 5.75 24.3309 5.75C23.9229 5.75 23.6049 5.912 23.3769 6.236C23.1489 6.548 23.0349 7.022 23.0349 7.658C23.0349 8.294 23.1489 8.774 23.3769 9.098C23.6049 9.41 23.9229 9.566 24.3309 9.566C24.7389 9.566 25.0569 9.41 25.2849 9.098C25.5249 8.774 25.6449 8.294 25.6449 7.658ZM31.0089 4.526H33.0789L26.0409 17H23.9709L31.0089 4.526ZM35.7609 13.886C35.7609 14.978 35.4789 15.818 34.9149 16.406C34.3629 16.994 33.6369 17.288 32.7369 17.288C32.2929 17.288 31.8849 17.21 31.5129 17.054C31.1409 16.91 30.8229 16.694 30.5589 16.406C30.2949 16.118 30.0849 15.764 29.9289 15.344C29.7849 14.912 29.7129 14.426 29.7129 13.886C29.7129 12.782 29.9889 11.942 30.5409 11.366C31.1049 10.778 31.8369 10.484 32.7369 10.484C33.6369 10.484 34.3629 10.778 34.9149 11.366C35.4789 11.942 35.7609 12.782 35.7609 13.886ZM34.0509 13.886C34.0509 13.25 33.9309 12.776 33.6909 12.464C33.4629 12.14 33.1449 11.978 32.7369 11.978C32.3289 11.978 32.0109 12.14 31.7829 12.464C31.5549 12.776 31.4409 13.25 31.4409 13.886C31.4409 14.522 31.5549 15.002 31.7829 15.326C32.0109 15.638 32.3289 15.794 32.7369 15.794C33.1449 15.794 33.4629 15.638 33.6909 15.326C33.9309 15.002 34.0509 14.522 34.0509 13.886Z"
              transform="translate(457.499 75.0764)" fill="#565561"/>
        <path d="M3.24 2.6C4.408 2.6 5.304 2.824 5.928 3.272C6.56 3.712 6.876 4.372 6.876 5.252C6.876 5.732 6.788 6.144 6.612 6.488C6.444 6.824 6.196 7.1 5.868 7.316C5.548 7.524 5.156 7.676 4.692 7.772C4.228 7.868 3.704 7.916 3.12 7.916H2.196V11H1.032V2.804C1.36 2.724 1.724 2.672 2.124 2.648C2.532 2.616 2.904 2.6 3.24 2.6ZM3.336 3.62C2.84 3.62 2.46 3.632 2.196 3.656V6.92H3.072C3.472 6.92 3.832 6.896 4.152 6.848C4.472 6.792 4.74 6.704 4.956 6.584C5.18 6.456 5.352 6.284 5.472 6.068C5.592 5.852 5.652 5.576 5.652 5.24C5.652 4.92 5.588 4.656 5.46 4.448C5.34 4.24 5.172 4.076 4.956 3.956C4.748 3.828 4.504 3.74 4.224 3.692C3.944 3.644 3.648 3.62 3.336 3.62ZM10.5648 4.628C10.6608 4.628 10.7688 4.636 10.8888 4.652C11.0168 4.66 11.1408 4.676 11.2608 4.7C11.3808 4.716 11.4888 4.736 11.5848 4.76C11.6888 4.776 11.7648 4.792 11.8128 4.808L11.6208 5.78C11.5328 5.748 11.3848 5.712 11.1768 5.672C10.9768 5.624 10.7168 5.6 10.3968 5.6C10.1888 5.6 9.98078 5.624 9.77278 5.672C9.57278 5.712 9.44078 5.74 9.37678 5.756V11H8.26078V5.024C8.52478 4.928 8.85278 4.84 9.24478 4.76C9.63678 4.672 10.0768 4.628 10.5648 4.628ZM18.3977 7.88C18.3977 8.376 18.3257 8.824 18.1817 9.224C18.0377 9.624 17.8337 9.968 17.5697 10.256C17.3137 10.544 17.0057 10.768 16.6457 10.928C16.2857 11.08 15.8937 11.156 15.4697 11.156C15.0457 11.156 14.6537 11.08 14.2937 10.928C13.9337 10.768 13.6217 10.544 13.3577 10.256C13.1017 9.968 12.9017 9.624 12.7577 9.224C12.6137 8.824 12.5417 8.376 12.5417 7.88C12.5417 7.392 12.6137 6.948 12.7577 6.548C12.9017 6.14 13.1017 5.792 13.3577 5.504C13.6217 5.216 13.9337 4.996 14.2937 4.844C14.6537 4.684 15.0457 4.604 15.4697 4.604C15.8937 4.604 16.2857 4.684 16.6457 4.844C17.0057 4.996 17.3137 5.216 17.5697 5.504C17.8337 5.792 18.0377 6.14 18.1817 6.548C18.3257 6.948 18.3977 7.392 18.3977 7.88ZM17.2337 7.88C17.2337 7.176 17.0737 6.62 16.7537 6.212C16.4417 5.796 16.0137 5.588 15.4697 5.588C14.9257 5.588 14.4937 5.796 14.1737 6.212C13.8617 6.62 13.7057 7.176 13.7057 7.88C13.7057 8.584 13.8617 9.144 14.1737 9.56C14.4937 9.968 14.9257 10.172 15.4697 10.172C16.0137 10.172 16.4417 9.968 16.7537 9.56C17.0737 9.144 17.2337 8.584 17.2337 7.88ZM23.9998 6.08C23.8638 5.968 23.6678 5.86 23.4118 5.756C23.1558 5.652 22.8758 5.6 22.5718 5.6C22.2518 5.6 21.9758 5.66 21.7438 5.78C21.5198 5.892 21.3358 6.052 21.1918 6.26C21.0478 6.46 20.9438 6.7 20.8798 6.98C20.8158 7.26 20.7838 7.56 20.7838 7.88C20.7838 8.608 20.9638 9.172 21.3238 9.572C21.6838 9.964 22.1638 10.16 22.7638 10.16C23.0678 10.16 23.3198 10.148 23.5198 10.124C23.7278 10.092 23.8878 10.06 23.9998 10.028V6.08ZM23.9998 1.88L25.1158 1.688V10.82C24.8598 10.892 24.5318 10.964 24.1318 11.036C23.7318 11.108 23.2718 11.144 22.7518 11.144C22.2718 11.144 21.8398 11.068 21.4558 10.916C21.0718 10.764 20.7438 10.548 20.4718 10.268C20.1998 9.988 19.9878 9.648 19.8358 9.248C19.6918 8.84 19.6198 8.384 19.6198 7.88C19.6198 7.4 19.6798 6.96 19.7998 6.56C19.9278 6.16 20.1118 5.816 20.3518 5.528C20.5918 5.24 20.8838 5.016 21.2278 4.856C21.5798 4.696 21.9798 4.616 22.4278 4.616C22.7878 4.616 23.1038 4.664 23.3758 4.76C23.6558 4.856 23.8638 4.948 23.9998 5.036V1.88ZM32.0022 10.82C31.7462 10.884 31.4062 10.952 30.9822 11.024C30.5662 11.096 30.0822 11.132 29.5302 11.132C29.0502 11.132 28.6462 11.064 28.3182 10.928C27.9902 10.784 27.7262 10.584 27.5262 10.328C27.3262 10.072 27.1822 9.772 27.0942 9.428C27.0062 9.076 26.9622 8.688 26.9622 8.264V4.76H28.0782V8.024C28.0782 8.784 28.1982 9.328 28.4382 9.656C28.6782 9.984 29.0822 10.148 29.6502 10.148C29.7702 10.148 29.8942 10.144 30.0222 10.136C30.1502 10.128 30.2702 10.12 30.3822 10.112C30.4942 10.096 30.5942 10.084 30.6822 10.076C30.7782 10.06 30.8462 10.044 30.8862 10.028V4.76H32.0022V10.82ZM36.6368 11.144C36.1328 11.144 35.6888 11.064 35.3048 10.904C34.9288 10.744 34.6088 10.52 34.3448 10.232C34.0888 9.944 33.8968 9.604 33.7688 9.212C33.6408 8.812 33.5768 8.372 33.5768 7.892C33.5768 7.412 33.6448 6.972 33.7808 6.572C33.9248 6.172 34.1248 5.828 34.3808 5.54C34.6368 5.244 34.9488 5.016 35.3168 4.856C35.6928 4.688 36.1088 4.604 36.5648 4.604C36.8448 4.604 37.1248 4.628 37.4048 4.676C37.6848 4.724 37.9528 4.8 38.2088 4.904L37.9568 5.852C37.7888 5.772 37.5928 5.708 37.3688 5.66C37.1528 5.612 36.9208 5.588 36.6728 5.588C36.0488 5.588 35.5688 5.784 35.2328 6.176C34.9048 6.568 34.7408 7.14 34.7408 7.892C34.7408 8.228 34.7768 8.536 34.8488 8.816C34.9288 9.096 35.0488 9.336 35.2088 9.536C35.3768 9.736 35.5888 9.892 35.8448 10.004C36.1008 10.108 36.4128 10.16 36.7808 10.16C37.0768 10.16 37.3448 10.132 37.5848 10.076C37.8248 10.02 38.0128 9.96 38.1488 9.896L38.3048 10.832C38.2408 10.872 38.1488 10.912 38.0288 10.952C37.9088 10.984 37.7728 11.012 37.6208 11.036C37.4688 11.068 37.3048 11.092 37.1288 11.108C36.9608 11.132 36.7968 11.144 36.6368 11.144ZM40.547 4.76H42.911V5.696H40.547V8.576C40.547 8.888 40.571 9.148 40.619 9.356C40.667 9.556 40.739 9.716 40.835 9.836C40.931 9.948 41.051 10.028 41.195 10.076C41.339 10.124 41.507 10.148 41.699 10.148C42.035 10.148 42.303 10.112 42.503 10.04C42.711 9.96 42.855 9.904 42.935 9.872L43.151 10.796C43.039 10.852 42.843 10.92 42.563 11C42.283 11.088 41.963 11.132 41.603 11.132C41.179 11.132 40.827 11.08 40.547 10.976C40.275 10.864 40.055 10.7 39.887 10.484C39.719 10.268 39.599 10.004 39.527 9.692C39.463 9.372 39.431 9.004 39.431 8.588V3.02L40.547 2.828V4.76ZM4.992 20.08C4.856 19.968 4.66 19.86 4.404 19.756C4.148 19.652 3.868 19.6 3.564 19.6C3.244 19.6 2.968 19.66 2.736 19.78C2.512 19.892 2.328 20.052 2.184 20.26C2.04 20.46 1.936 20.7 1.872 20.98C1.808 21.26 1.776 21.56 1.776 21.88C1.776 22.608 1.956 23.172 2.316 23.572C2.676 23.964 3.156 24.16 3.756 24.16C4.06 24.16 4.312 24.148 4.512 24.124C4.72 24.092 4.88 24.06 4.992 24.028V20.08ZM4.992 15.88L6.108 15.688V24.82C5.852 24.892 5.524 24.964 5.124 25.036C4.724 25.108 4.264 25.144 3.744 25.144C3.264 25.144 2.832 25.068 2.448 24.916C2.064 24.764 1.736 24.548 1.464 24.268C1.192 23.988 0.98 23.648 0.828 23.248C0.684 22.84 0.612 22.384 0.612 21.88C0.612 21.4 0.672 20.96 0.792 20.56C0.92 20.16 1.104 19.816 1.344 19.528C1.584 19.24 1.876 19.016 2.22 18.856C2.572 18.696 2.972 18.616 3.42 18.616C3.78 18.616 4.096 18.664 4.368 18.76C4.648 18.856 4.856 18.948 4.992 19.036V15.88ZM7.67841 21.892C7.67841 21.34 7.75841 20.86 7.91841 20.452C8.07841 20.036 8.29041 19.692 8.55441 19.42C8.81841 19.148 9.12241 18.944 9.46641 18.808C9.81041 18.672 10.1624 18.604 10.5224 18.604C11.3624 18.604 12.0064 18.868 12.4544 19.396C12.9024 19.916 13.1264 20.712 13.1264 21.784C13.1264 21.832 13.1264 21.896 13.1264 21.976C13.1264 22.048 13.1224 22.116 13.1144 22.18H8.84241C8.89041 22.828 9.07841 23.32 9.40641 23.656C9.73441 23.992 10.2464 24.16 10.9424 24.16C11.3344 24.16 11.6624 24.128 11.9264 24.064C12.1984 23.992 12.4024 23.924 12.5384 23.86L12.6944 24.796C12.5584 24.868 12.3184 24.944 11.9744 25.024C11.6384 25.104 11.2544 25.144 10.8224 25.144C10.2784 25.144 9.80641 25.064 9.40641 24.904C9.01441 24.736 8.69041 24.508 8.43441 24.22C8.17841 23.932 7.98641 23.592 7.85841 23.2C7.73841 22.8 7.67841 22.364 7.67841 21.892ZM11.9624 21.28C11.9704 20.776 11.8424 20.364 11.5784 20.044C11.3224 19.716 10.9664 19.552 10.5104 19.552C10.2544 19.552 10.0264 19.604 9.82641 19.708C9.63441 19.804 9.47041 19.932 9.33441 20.092C9.19841 20.252 9.09041 20.436 9.01041 20.644C8.93841 20.852 8.89041 21.064 8.86641 21.28H11.9624ZM19.6015 18.76C19.2895 19.928 18.9215 21.048 18.4975 22.12C18.0815 23.192 17.6775 24.152 17.2855 25H16.2775C15.8855 24.152 15.4775 23.192 15.0535 22.12C14.6375 21.048 14.2735 19.928 13.9615 18.76H15.1615C15.2575 19.152 15.3695 19.572 15.4975 20.02C15.6335 20.46 15.7735 20.9 15.9175 21.34C16.0695 21.772 16.2215 22.192 16.3735 22.6C16.5255 23.008 16.6695 23.372 16.8055 23.692C16.9415 23.372 17.0855 23.008 17.2375 22.6C17.3895 22.192 17.5375 21.772 17.6815 21.34C17.8335 20.9 17.9735 20.46 18.1015 20.02C18.2375 19.572 18.3535 19.152 18.4495 18.76H19.6015ZM20.2409 21.892C20.2409 21.34 20.3209 20.86 20.4809 20.452C20.6409 20.036 20.8529 19.692 21.1169 19.42C21.3809 19.148 21.6849 18.944 22.0289 18.808C22.3729 18.672 22.7249 18.604 23.0849 18.604C23.9249 18.604 24.5689 18.868 25.0169 19.396C25.4649 19.916 25.6889 20.712 25.6889 21.784C25.6889 21.832 25.6889 21.896 25.6889 21.976C25.6889 22.048 25.6849 22.116 25.6769 22.18H21.4049C21.4529 22.828 21.6409 23.32 21.9689 23.656C22.2969 23.992 22.8089 24.16 23.5049 24.16C23.8969 24.16 24.2249 24.128 24.4889 24.064C24.7609 23.992 24.9649 23.924 25.1009 23.86L25.2569 24.796C25.1209 24.868 24.8809 24.944 24.5369 25.024C24.2009 25.104 23.8169 25.144 23.3849 25.144C22.8409 25.144 22.3689 25.064 21.9689 24.904C21.5769 24.736 21.2529 24.508 20.9969 24.22C20.7409 23.932 20.5489 23.592 20.4209 23.2C20.3009 22.8 20.2409 22.364 20.2409 21.892ZM24.5249 21.28C24.5329 20.776 24.4049 20.364 24.1409 20.044C23.8849 19.716 23.5289 19.552 23.0729 19.552C22.8169 19.552 22.5889 19.604 22.3889 19.708C22.1969 19.804 22.0329 19.932 21.8969 20.092C21.7609 20.252 21.6529 20.436 21.5729 20.644C21.5009 20.852 21.4529 21.064 21.4289 21.28H24.5249ZM29.164 25.12C28.476 25.104 27.988 24.956 27.7 24.676C27.412 24.396 27.268 23.96 27.268 23.368V15.88L28.384 15.688V23.188C28.384 23.372 28.4 23.524 28.432 23.644C28.464 23.764 28.516 23.86 28.588 23.932C28.66 24.004 28.756 24.06 28.876 24.1C28.996 24.132 29.144 24.16 29.32 24.184L29.164 25.12ZM36.0813 21.88C36.0813 22.376 36.0093 22.824 35.8653 23.224C35.7213 23.624 35.5173 23.968 35.2533 24.256C34.9973 24.544 34.6893 24.768 34.3293 24.928C33.9693 25.08 33.5773 25.156 33.1533 25.156C32.7293 25.156 32.3373 25.08 31.9773 24.928C31.6173 24.768 31.3053 24.544 31.0413 24.256C30.7853 23.968 30.5853 23.624 30.4413 23.224C30.2973 22.824 30.2253 22.376 30.2253 21.88C30.2253 21.392 30.2973 20.948 30.4413 20.548C30.5853 20.14 30.7853 19.792 31.0413 19.504C31.3053 19.216 31.6173 18.996 31.9773 18.844C32.3373 18.684 32.7293 18.604 33.1533 18.604C33.5773 18.604 33.9693 18.684 34.3293 18.844C34.6893 18.996 34.9973 19.216 35.2533 19.504C35.5173 19.792 35.7213 20.14 35.8653 20.548C36.0093 20.948 36.0813 21.392 36.0813 21.88ZM34.9173 21.88C34.9173 21.176 34.7573 20.62 34.4373 20.212C34.1253 19.796 33.6973 19.588 33.1533 19.588C32.6093 19.588 32.1773 19.796 31.8573 20.212C31.5453 20.62 31.3893 21.176 31.3893 21.88C31.3893 22.584 31.5453 23.144 31.8573 23.56C32.1773 23.968 32.6093 24.172 33.1533 24.172C33.6973 24.172 34.1253 23.968 34.4373 23.56C34.7573 23.144 34.9173 22.584 34.9173 21.88ZM41.9834 21.892C41.9834 21.164 41.8034 20.604 41.4434 20.212C41.0834 19.82 40.6034 19.624 40.0034 19.624C39.6674 19.624 39.4034 19.636 39.2114 19.66C39.0274 19.684 38.8794 19.712 38.7674 19.744V23.68C38.9034 23.792 39.0994 23.9 39.3554 24.004C39.6114 24.108 39.8914 24.16 40.1954 24.16C40.5154 24.16 40.7874 24.104 41.0114 23.992C41.2434 23.872 41.4314 23.712 41.5754 23.512C41.7194 23.304 41.8234 23.064 41.8874 22.792C41.9514 22.512 41.9834 22.212 41.9834 21.892ZM43.1474 21.892C43.1474 22.364 43.0834 22.8 42.9554 23.2C42.8354 23.6 42.6554 23.944 42.4154 24.232C42.1754 24.52 41.8794 24.744 41.5274 24.904C41.1834 25.064 40.7874 25.144 40.3394 25.144C39.9794 25.144 39.6594 25.096 39.3794 25C39.1074 24.904 38.9034 24.812 38.7674 24.724V27.22H37.6514V18.952C37.9154 18.888 38.2434 18.82 38.6354 18.748C39.0354 18.668 39.4954 18.628 40.0154 18.628C40.4954 18.628 40.9274 18.704 41.3114 18.856C41.6954 19.008 42.0234 19.224 42.2954 19.504C42.5674 19.784 42.7754 20.128 42.9194 20.536C43.0714 20.936 43.1474 21.388 43.1474 21.892ZM44.7178 18.94C44.9738 18.876 45.3098 18.808 45.7258 18.736C46.1498 18.664 46.6378 18.628 47.1898 18.628C47.5898 18.628 47.9258 18.684 48.1978 18.796C48.4698 18.9 48.6978 19.056 48.8818 19.264C48.9378 19.224 49.0258 19.168 49.1458 19.096C49.2658 19.024 49.4138 18.956 49.5898 18.892C49.7658 18.82 49.9618 18.76 50.1778 18.712C50.3938 18.656 50.6258 18.628 50.8738 18.628C51.3538 18.628 51.7458 18.7 52.0498 18.844C52.3538 18.98 52.5898 19.176 52.7578 19.432C52.9338 19.688 53.0498 19.992 53.1058 20.344C53.1698 20.696 53.2018 21.08 53.2018 21.496V25H52.0858V21.736C52.0858 21.368 52.0658 21.052 52.0258 20.788C51.9938 20.524 51.9258 20.304 51.8218 20.128C51.7258 19.952 51.5898 19.824 51.4138 19.744C51.2458 19.656 51.0258 19.612 50.7538 19.612C50.3778 19.612 50.0658 19.664 49.8178 19.768C49.5778 19.864 49.4138 19.952 49.3258 20.032C49.3898 20.24 49.4378 20.468 49.4698 20.716C49.5018 20.964 49.5178 21.224 49.5178 21.496V25H48.4018V21.736C48.4018 21.368 48.3818 21.052 48.3418 20.788C48.3018 20.524 48.2298 20.304 48.1258 20.128C48.0298 19.952 47.8938 19.824 47.7178 19.744C47.5498 19.656 47.3338 19.612 47.0698 19.612C46.9578 19.612 46.8378 19.616 46.7098 19.624C46.5818 19.632 46.4578 19.644 46.3378 19.66C46.2258 19.668 46.1218 19.68 46.0258 19.696C45.9298 19.712 45.8658 19.724 45.8338 19.732V25H44.7178V18.94ZM54.7057 21.892C54.7057 21.34 54.7858 20.86 54.9458 20.452C55.1057 20.036 55.3177 19.692 55.5817 19.42C55.8458 19.148 56.1498 18.944 56.4938 18.808C56.8378 18.672 57.1897 18.604 57.5497 18.604C58.3898 18.604 59.0338 18.868 59.4818 19.396C59.9297 19.916 60.1537 20.712 60.1537 21.784C60.1537 21.832 60.1537 21.896 60.1537 21.976C60.1537 22.048 60.1497 22.116 60.1418 22.18H55.8698C55.9178 22.828 56.1057 23.32 56.4337 23.656C56.7617 23.992 57.2738 24.16 57.9698 24.16C58.3618 24.16 58.6898 24.128 58.9538 24.064C59.2258 23.992 59.4298 23.924 59.5658 23.86L59.7218 24.796C59.5857 24.868 59.3457 24.944 59.0018 25.024C58.6658 25.104 58.2818 25.144 57.8497 25.144C57.3058 25.144 56.8338 25.064 56.4337 24.904C56.0417 24.736 55.7177 24.508 55.4618 24.22C55.2058 23.932 55.0138 23.592 54.8857 23.2C54.7657 22.8 54.7057 22.364 54.7057 21.892ZM58.9897 21.28C58.9978 20.776 58.8698 20.364 58.6057 20.044C58.3498 19.716 57.9938 19.552 57.5378 19.552C57.2817 19.552 57.0537 19.604 56.8538 19.708C56.6618 19.804 56.4977 19.932 56.3617 20.092C56.2258 20.252 56.1178 20.436 56.0378 20.644C55.9657 20.852 55.9178 21.064 55.8938 21.28H58.9897ZM61.7569 18.94C62.0129 18.876 62.3529 18.808 62.7769 18.736C63.2009 18.664 63.6889 18.628 64.2409 18.628C64.7369 18.628 65.1489 18.7 65.4769 18.844C65.8049 18.98 66.0649 19.176 66.2569 19.432C66.4569 19.68 66.5969 19.98 66.6769 20.332C66.7569 20.684 66.7969 21.072 66.7969 21.496V25H65.6809V21.736C65.6809 21.352 65.6529 21.024 65.5969 20.752C65.5489 20.48 65.4649 20.26 65.3449 20.092C65.2249 19.924 65.0649 19.804 64.8649 19.732C64.6649 19.652 64.4169 19.612 64.1209 19.612C64.0009 19.612 63.8769 19.616 63.7489 19.624C63.6209 19.632 63.4969 19.644 63.3769 19.66C63.2649 19.668 63.1609 19.68 63.0649 19.696C62.9769 19.712 62.9129 19.724 62.8729 19.732V25H61.7569V18.94ZM69.6915 18.76H72.0555V19.696H69.6915V22.576C69.6915 22.888 69.7155 23.148 69.7635 23.356C69.8115 23.556 69.8835 23.716 69.9795 23.836C70.0755 23.948 70.1955 24.028 70.3395 24.076C70.4835 24.124 70.6515 24.148 70.8435 24.148C71.1795 24.148 71.4475 24.112 71.6475 24.04C71.8555 23.96 71.9995 23.904 72.0795 23.872L72.2955 24.796C72.1835 24.852 71.9875 24.92 71.7075 25C71.4275 25.088 71.1075 25.132 70.7475 25.132C70.3235 25.132 69.9715 25.08 69.6915 24.976C69.4195 24.864 69.1995 24.7 69.0315 24.484C68.8635 24.268 68.7435 24.004 68.6715 23.692C68.6075 23.372 68.5755 23.004 68.5755 22.588V17.02L69.6915 16.828V18.76Z"
              transform="translate(457.499 99.0764)" fill="#565561"/>
        <path d="M0 0C0 0 0.134418 0.230091 13.7154 53.0992" transform="translate(385.235 115.716) rotate(-109.403)"
              stroke="#5BC99C"/>
        <line y1="-0.5" x2="17.6357" y2="-0.5" transform="translate(430.507 85.77)" stroke="#5BC99C"/>
        <g class="b-chart-piece" mask="url(#mask0)">
            <path d="M0 184.5V33.9759L17 0L323 385L0 184.5Z" transform="translate(293.5 -5.07861)" fill="#5BC99C"/>
        </g>
    </g>
    <g class="b-chart-part">
        <path d="M1.62 7.118C2.316 6.842 3.012 6.488 3.708 6.056C4.416 5.624 5.04 5.114 5.58 4.526H7.11V17H4.932V7.442C4.608 7.694 4.2 7.94 3.708 8.18C3.216 8.42 2.742 8.618 2.286 8.774L1.62 7.118ZM18.8885 7.766C18.8885 8.198 18.7985 8.624 18.6185 9.044C18.4385 9.452 18.2045 9.854 17.9165 10.25C17.6405 10.634 17.3225 11.012 16.9625 11.384C16.6025 11.744 16.2425 12.098 15.8825 12.446C15.6905 12.626 15.4745 12.842 15.2345 13.094C14.9945 13.346 14.7665 13.598 14.5505 13.85C14.3345 14.102 14.1485 14.348 13.9925 14.588C13.8365 14.816 13.7525 15.008 13.7405 15.164H19.2845V17H11.3465C11.3345 16.904 11.3285 16.79 11.3285 16.658C11.3285 16.514 11.3285 16.406 11.3285 16.334C11.3285 15.758 11.4185 15.23 11.5985 14.75C11.7905 14.258 12.0365 13.802 12.3365 13.382C12.6365 12.962 12.9725 12.566 13.3445 12.194C13.7165 11.822 14.0885 11.456 14.4605 11.096C14.7485 10.82 15.0245 10.55 15.2885 10.286C15.5525 10.022 15.7805 9.764 15.9725 9.512C16.1765 9.248 16.3385 8.984 16.4585 8.72C16.5785 8.444 16.6385 8.162 16.6385 7.874C16.6385 7.25 16.4585 6.806 16.0985 6.542C15.7385 6.278 15.3005 6.146 14.7845 6.146C14.4485 6.146 14.1365 6.194 13.8485 6.29C13.5605 6.386 13.3025 6.5 13.0745 6.632C12.8585 6.764 12.6665 6.902 12.4985 7.046C12.3305 7.178 12.2045 7.286 12.1205 7.37L11.0405 5.84C11.5445 5.36 12.1325 4.976 12.8045 4.688C13.4885 4.388 14.2205 4.238 15.0005 4.238C16.3325 4.238 17.3105 4.556 17.9345 5.192C18.5705 5.816 18.8885 6.674 18.8885 7.766ZM27.3549 7.658C27.3549 8.75 27.0729 9.59 26.5089 10.178C25.9569 10.766 25.2309 11.06 24.3309 11.06C23.8869 11.06 23.4789 10.988 23.1069 10.844C22.7349 10.688 22.4169 10.466 22.1529 10.178C21.8889 9.89 21.6789 9.536 21.5229 9.116C21.3789 8.684 21.3069 8.198 21.3069 7.658C21.3069 6.554 21.5829 5.714 22.1349 5.138C22.6989 4.55 23.4309 4.256 24.3309 4.256C25.2309 4.256 25.9569 4.55 26.5089 5.138C27.0729 5.714 27.3549 6.554 27.3549 7.658ZM25.6449 7.658C25.6449 7.022 25.5249 6.548 25.2849 6.236C25.0569 5.912 24.7389 5.75 24.3309 5.75C23.9229 5.75 23.6049 5.912 23.3769 6.236C23.1489 6.548 23.0349 7.022 23.0349 7.658C23.0349 8.294 23.1489 8.774 23.3769 9.098C23.6049 9.41 23.9229 9.566 24.3309 9.566C24.7389 9.566 25.0569 9.41 25.2849 9.098C25.5249 8.774 25.6449 8.294 25.6449 7.658ZM31.0089 4.526H33.0789L26.0409 17H23.9709L31.0089 4.526ZM35.7609 13.886C35.7609 14.978 35.4789 15.818 34.9149 16.406C34.3629 16.994 33.6369 17.288 32.7369 17.288C32.2929 17.288 31.8849 17.21 31.5129 17.054C31.1409 16.91 30.8229 16.694 30.5589 16.406C30.2949 16.118 30.0849 15.764 29.9289 15.344C29.7849 14.912 29.7129 14.426 29.7129 13.886C29.7129 12.782 29.9889 11.942 30.5409 11.366C31.1049 10.778 31.8369 10.484 32.7369 10.484C33.6369 10.484 34.3629 10.778 34.9149 11.366C35.4789 11.942 35.7609 12.782 35.7609 13.886ZM34.0509 13.886C34.0509 13.25 33.9309 12.776 33.6909 12.464C33.4629 12.14 33.1449 11.978 32.7369 11.978C32.3289 11.978 32.0109 12.14 31.7829 12.464C31.5549 12.776 31.4409 13.25 31.4409 13.886C31.4409 14.522 31.5549 15.002 31.7829 15.326C32.0109 15.638 32.3289 15.794 32.7369 15.794C33.1449 15.794 33.4629 15.638 33.6909 15.326C33.9309 15.002 34.0509 14.522 34.0509 13.886Z"
              transform="translate(362.499 318.749)" fill="#565561"/>
        <path d="M0 0C0 0 0.134418 0.230091 13.7154 53.0992" transform="translate(322.643 276.149)" stroke="#577AAB"/>
        <line y1="-0.5" x2="17.6357" y2="-0.5" transform="translate(335.885 329.386)" stroke="#577AAB"/>
        <path d="M1.032 2.684H2.196V11H1.032V2.684ZM4.18266 4.94C4.43866 4.876 4.77866 4.808 5.20266 4.736C5.62666 4.664 6.11466 4.628 6.66666 4.628C7.16266 4.628 7.57466 4.7 7.90266 4.844C8.23066 4.98 8.49066 5.176 8.68266 5.432C8.88266 5.68 9.02266 5.98 9.10266 6.332C9.18266 6.684 9.22266 7.072 9.22266 7.496V11H8.10666V7.736C8.10666 7.352 8.07866 7.024 8.02266 6.752C7.97466 6.48 7.89066 6.26 7.77066 6.092C7.65066 5.924 7.49066 5.804 7.29066 5.732C7.09066 5.652 6.84266 5.612 6.54666 5.612C6.42666 5.612 6.30266 5.616 6.17466 5.624C6.04666 5.632 5.92266 5.644 5.80266 5.66C5.69066 5.668 5.58666 5.68 5.49066 5.696C5.40266 5.712 5.33866 5.724 5.29866 5.732V11H4.18266V4.94ZM13.5093 1.688C13.8373 1.688 14.1173 1.712 14.3493 1.76C14.5893 1.808 14.7573 1.852 14.8533 1.892L14.6493 2.852C14.5533 2.804 14.4173 2.76 14.2413 2.72C14.0653 2.672 13.8493 2.648 13.5933 2.648C13.0733 2.648 12.7093 2.792 12.5013 3.08C12.2933 3.36 12.1893 3.74 12.1893 4.22V4.76H14.5893V5.696H12.1893V11H11.0733V4.196C11.0733 3.396 11.2693 2.78 11.6613 2.348C12.0533 1.908 12.6693 1.688 13.5093 1.688ZM18.0062 4.628C18.1022 4.628 18.2102 4.636 18.3302 4.652C18.4582 4.66 18.5822 4.676 18.7022 4.7C18.8222 4.716 18.9302 4.736 19.0262 4.76C19.1302 4.776 19.2062 4.792 19.2542 4.808L19.0622 5.78C18.9742 5.748 18.8262 5.712 18.6182 5.672C18.4182 5.624 18.1582 5.6 17.8382 5.6C17.6302 5.6 17.4222 5.624 17.2142 5.672C17.0142 5.712 16.8822 5.74 16.8182 5.756V11H15.7022V5.024C15.9662 4.928 16.2942 4.84 16.6862 4.76C17.0782 4.672 17.5182 4.628 18.0062 4.628ZM22.4431 10.196C22.7071 10.196 22.9391 10.192 23.1391 10.184C23.3471 10.168 23.5191 10.144 23.6551 10.112V8.252C23.5751 8.212 23.4431 8.18 23.2591 8.156C23.0831 8.124 22.8671 8.108 22.6111 8.108C22.4431 8.108 22.2631 8.12 22.0711 8.144C21.8871 8.168 21.7151 8.22 21.5551 8.3C21.4031 8.372 21.2751 8.476 21.1711 8.612C21.0671 8.74 21.0151 8.912 21.0151 9.128C21.0151 9.528 21.1431 9.808 21.3991 9.968C21.6551 10.12 22.0031 10.196 22.4431 10.196ZM22.3471 4.604C22.7951 4.604 23.1711 4.664 23.4751 4.784C23.7871 4.896 24.0351 5.06 24.2191 5.276C24.4111 5.484 24.5471 5.736 24.6271 6.032C24.7071 6.32 24.7471 6.64 24.7471 6.992V10.892C24.6511 10.908 24.5151 10.932 24.3391 10.964C24.1711 10.988 23.9791 11.012 23.7631 11.036C23.5471 11.06 23.3111 11.08 23.0551 11.096C22.8071 11.12 22.5591 11.132 22.3111 11.132C21.9591 11.132 21.6351 11.096 21.3391 11.024C21.0431 10.952 20.7871 10.84 20.5711 10.688C20.3551 10.528 20.1871 10.32 20.0671 10.064C19.9471 9.808 19.8871 9.5 19.8871 9.14C19.8871 8.796 19.9551 8.5 20.0911 8.252C20.2351 8.004 20.4271 7.804 20.6671 7.652C20.9071 7.5 21.1871 7.388 21.5071 7.316C21.8271 7.244 22.1631 7.208 22.5151 7.208C22.6271 7.208 22.7431 7.216 22.8631 7.232C22.9831 7.24 23.0951 7.256 23.1991 7.28C23.3111 7.296 23.4071 7.312 23.4871 7.328C23.5671 7.344 23.6231 7.356 23.6551 7.364V7.052C23.6551 6.868 23.6351 6.688 23.5951 6.512C23.5551 6.328 23.4831 6.168 23.3791 6.032C23.2751 5.888 23.1311 5.776 22.9471 5.696C22.7711 5.608 22.5391 5.564 22.2511 5.564C21.8831 5.564 21.5591 5.592 21.2791 5.648C21.0071 5.696 20.8031 5.748 20.6671 5.804L20.5351 4.88C20.6791 4.816 20.9191 4.756 21.2551 4.7C21.5911 4.636 21.9551 4.604 22.3471 4.604ZM28.0526 10.196C28.5086 10.196 28.8446 10.136 29.0606 10.016C29.2846 9.896 29.3966 9.704 29.3966 9.44C29.3966 9.168 29.2886 8.952 29.0726 8.792C28.8566 8.632 28.5006 8.452 28.0046 8.252C27.7646 8.156 27.5326 8.06 27.3086 7.964C27.0926 7.86 26.9046 7.74 26.7446 7.604C26.5846 7.468 26.4566 7.304 26.3606 7.112C26.2646 6.92 26.2166 6.684 26.2166 6.404C26.2166 5.852 26.4206 5.416 26.8286 5.096C27.2366 4.768 27.7926 4.604 28.4966 4.604C28.6726 4.604 28.8486 4.616 29.0246 4.64C29.2006 4.656 29.3646 4.68 29.5166 4.712C29.6686 4.736 29.8006 4.764 29.9126 4.796C30.0326 4.828 30.1246 4.856 30.1886 4.88L29.9846 5.84C29.8646 5.776 29.6766 5.712 29.4206 5.648C29.1646 5.576 28.8566 5.54 28.4966 5.54C28.1846 5.54 27.9126 5.604 27.6806 5.732C27.4486 5.852 27.3326 6.044 27.3326 6.308C27.3326 6.444 27.3566 6.564 27.4046 6.668C27.4606 6.772 27.5406 6.868 27.6446 6.956C27.7566 7.036 27.8926 7.112 28.0526 7.184C28.2126 7.256 28.4046 7.332 28.6286 7.412C28.9246 7.524 29.1886 7.636 29.4206 7.748C29.6526 7.852 29.8486 7.976 30.0086 8.12C30.1766 8.264 30.3046 8.44 30.3926 8.648C30.4806 8.848 30.5246 9.096 30.5246 9.392C30.5246 9.968 30.3086 10.404 29.8766 10.7C29.4526 10.996 28.8446 11.144 28.0526 11.144C27.5006 11.144 27.0686 11.096 26.7566 11C26.4446 10.912 26.2326 10.844 26.1206 10.796L26.3246 9.836C26.4526 9.884 26.6566 9.956 26.9366 10.052C27.2166 10.148 27.5886 10.196 28.0526 10.196ZM33.0001 4.76H35.3641V5.696H33.0001V8.576C33.0001 8.888 33.0241 9.148 33.0721 9.356C33.1201 9.556 33.1921 9.716 33.2881 9.836C33.3841 9.948 33.5041 10.028 33.6481 10.076C33.7921 10.124 33.9601 10.148 34.1521 10.148C34.4881 10.148 34.7561 10.112 34.9561 10.04C35.1641 9.96 35.3081 9.904 35.3881 9.872L35.6041 10.796C35.4921 10.852 35.2961 10.92 35.0161 11C34.7361 11.088 34.4161 11.132 34.0561 11.132C33.6321 11.132 33.2801 11.08 33.0001 10.976C32.7281 10.864 32.5081 10.7 32.3401 10.484C32.1721 10.268 32.0521 10.004 31.9801 9.692C31.9161 9.372 31.8841 9.004 31.8841 8.588V3.02L33.0001 2.828V4.76ZM39.0882 4.628C39.1842 4.628 39.2922 4.636 39.4122 4.652C39.5402 4.66 39.6642 4.676 39.7842 4.7C39.9042 4.716 40.0122 4.736 40.1082 4.76C40.2122 4.776 40.2882 4.792 40.3362 4.808L40.1442 5.78C40.0562 5.748 39.9082 5.712 39.7002 5.672C39.5002 5.624 39.2402 5.6 38.9202 5.6C38.7122 5.6 38.5042 5.624 38.2962 5.672C38.0962 5.712 37.9642 5.74 37.9002 5.756V11H36.7842V5.024C37.0482 4.928 37.3762 4.84 37.7682 4.76C38.1602 4.672 38.6002 4.628 39.0882 4.628ZM46.3811 10.82C46.1251 10.884 45.7851 10.952 45.3611 11.024C44.9451 11.096 44.4611 11.132 43.9091 11.132C43.4291 11.132 43.0251 11.064 42.6971 10.928C42.3691 10.784 42.1051 10.584 41.9051 10.328C41.7051 10.072 41.5611 9.772 41.4731 9.428C41.3851 9.076 41.3411 8.688 41.3411 8.264V4.76H42.4571V8.024C42.4571 8.784 42.5771 9.328 42.8171 9.656C43.0571 9.984 43.4611 10.148 44.0291 10.148C44.1491 10.148 44.2731 10.144 44.4011 10.136C44.5291 10.128 44.6491 10.12 44.7611 10.112C44.8731 10.096 44.9731 10.084 45.0611 10.076C45.1571 10.06 45.2251 10.044 45.2651 10.028V4.76H46.3811V10.82ZM51.0157 11.144C50.5117 11.144 50.0677 11.064 49.6837 10.904C49.3077 10.744 48.9878 10.52 48.7238 10.232C48.4677 9.944 48.2757 9.604 48.1478 9.212C48.0197 8.812 47.9557 8.372 47.9557 7.892C47.9557 7.412 48.0238 6.972 48.1598 6.572C48.3038 6.172 48.5038 5.828 48.7598 5.54C49.0158 5.244 49.3278 5.016 49.6957 4.856C50.0717 4.688 50.4878 4.604 50.9438 4.604C51.2238 4.604 51.5038 4.628 51.7838 4.676C52.0638 4.724 52.3318 4.8 52.5878 4.904L52.3358 5.852C52.1678 5.772 51.9718 5.708 51.7478 5.66C51.5318 5.612 51.2997 5.588 51.0517 5.588C50.4277 5.588 49.9478 5.784 49.6117 6.176C49.2837 6.568 49.1198 7.14 49.1198 7.892C49.1198 8.228 49.1558 8.536 49.2278 8.816C49.3077 9.096 49.4277 9.336 49.5878 9.536C49.7558 9.736 49.9678 9.892 50.2237 10.004C50.4798 10.108 50.7918 10.16 51.1597 10.16C51.4557 10.16 51.7237 10.132 51.9637 10.076C52.2037 10.02 52.3917 9.96 52.5278 9.896L52.6837 10.832C52.6198 10.872 52.5278 10.912 52.4077 10.952C52.2878 10.984 52.1518 11.012 51.9998 11.036C51.8477 11.068 51.6837 11.092 51.5078 11.108C51.3398 11.132 51.1758 11.144 51.0157 11.144ZM54.9259 4.76H57.2899V5.696H54.9259V8.576C54.9259 8.888 54.9499 9.148 54.9979 9.356C55.0459 9.556 55.1179 9.716 55.2139 9.836C55.3099 9.948 55.4299 10.028 55.5739 10.076C55.7179 10.124 55.8859 10.148 56.0779 10.148C56.4139 10.148 56.6819 10.112 56.8819 10.04C57.0899 9.96 57.2339 9.904 57.3139 9.872L57.5299 10.796C57.4179 10.852 57.2219 10.92 56.9419 11C56.6619 11.088 56.3419 11.132 55.9819 11.132C55.5579 11.132 55.2059 11.08 54.9259 10.976C54.6539 10.864 54.4339 10.7 54.2659 10.484C54.0979 10.268 53.9779 10.004 53.9059 9.692C53.8419 9.372 53.8099 9.004 53.8099 8.588V3.02L54.9259 2.828V4.76ZM63.678 10.82C63.422 10.884 63.082 10.952 62.658 11.024C62.242 11.096 61.758 11.132 61.206 11.132C60.726 11.132 60.322 11.064 59.994 10.928C59.666 10.784 59.402 10.584 59.202 10.328C59.002 10.072 58.858 9.772 58.77 9.428C58.682 9.076 58.638 8.688 58.638 8.264V4.76H59.754V8.024C59.754 8.784 59.874 9.328 60.114 9.656C60.354 9.984 60.758 10.148 61.326 10.148C61.446 10.148 61.57 10.144 61.698 10.136C61.826 10.128 61.946 10.12 62.058 10.112C62.17 10.096 62.27 10.084 62.358 10.076C62.454 10.06 62.522 10.044 62.562 10.028V4.76H63.678V10.82ZM67.9046 4.628C68.0006 4.628 68.1086 4.636 68.2286 4.652C68.3566 4.66 68.4806 4.676 68.6006 4.7C68.7206 4.716 68.8286 4.736 68.9246 4.76C69.0286 4.776 69.1046 4.792 69.1526 4.808L68.9606 5.78C68.8726 5.748 68.7246 5.712 68.5166 5.672C68.3166 5.624 68.0566 5.6 67.7366 5.6C67.5286 5.6 67.3206 5.624 67.1126 5.672C66.9126 5.712 66.7806 5.74 66.7166 5.756V11H65.6006V5.024C65.8646 4.928 66.1926 4.84 66.5846 4.76C66.9766 4.672 67.4166 4.628 67.9046 4.628ZM69.8815 7.892C69.8815 7.34 69.9615 6.86 70.1215 6.452C70.2815 6.036 70.4935 5.692 70.7575 5.42C71.0215 5.148 71.3255 4.944 71.6695 4.808C72.0135 4.672 72.3655 4.604 72.7255 4.604C73.5655 4.604 74.2095 4.868 74.6575 5.396C75.1055 5.916 75.3295 6.712 75.3295 7.784C75.3295 7.832 75.3295 7.896 75.3295 7.976C75.3295 8.048 75.3255 8.116 75.3175 8.18H71.0455C71.0935 8.828 71.2815 9.32 71.6095 9.656C71.9375 9.992 72.4495 10.16 73.1455 10.16C73.5375 10.16 73.8655 10.128 74.1295 10.064C74.4015 9.992 74.6055 9.924 74.7415 9.86L74.8975 10.796C74.7615 10.868 74.5215 10.944 74.1775 11.024C73.8415 11.104 73.4575 11.144 73.0255 11.144C72.4815 11.144 72.0095 11.064 71.6095 10.904C71.2175 10.736 70.8935 10.508 70.6375 10.22C70.3815 9.932 70.1895 9.592 70.0615 9.2C69.9415 8.8 69.8815 8.364 69.8815 7.892ZM74.1655 7.28C74.1735 6.776 74.0455 6.364 73.7815 6.044C73.5255 5.716 73.1695 5.552 72.7135 5.552C72.4575 5.552 72.2295 5.604 72.0295 5.708C71.8375 5.804 71.6735 5.932 71.5375 6.092C71.4015 6.252 71.2935 6.436 71.2135 6.644C71.1415 6.852 71.0935 7.064 71.0695 7.28H74.1655ZM78.1087 9.632C78.1167 9.696 78.1207 9.76 78.1207 9.824C78.1207 9.88 78.1207 9.94 78.1207 10.004C78.1207 10.508 78.0447 11.004 77.8927 11.492C77.7487 11.988 77.5487 12.46 77.2927 12.908L76.4287 12.632C76.6287 12.224 76.7607 11.808 76.8247 11.384C76.8887 10.968 76.9207 10.576 76.9207 10.208C76.9207 10.104 76.9167 10.004 76.9087 9.908C76.9087 9.812 76.9047 9.72 76.8967 9.632H78.1087ZM2.412 24.196C2.868 24.196 3.204 24.136 3.42 24.016C3.644 23.896 3.756 23.704 3.756 23.44C3.756 23.168 3.648 22.952 3.432 22.792C3.216 22.632 2.86 22.452 2.364 22.252C2.124 22.156 1.892 22.06 1.668 21.964C1.452 21.86 1.264 21.74 1.104 21.604C0.944 21.468 0.816 21.304 0.72 21.112C0.624 20.92 0.576 20.684 0.576 20.404C0.576 19.852 0.78 19.416 1.188 19.096C1.596 18.768 2.152 18.604 2.856 18.604C3.032 18.604 3.208 18.616 3.384 18.64C3.56 18.656 3.724 18.68 3.876 18.712C4.028 18.736 4.16 18.764 4.272 18.796C4.392 18.828 4.484 18.856 4.548 18.88L4.344 19.84C4.224 19.776 4.036 19.712 3.78 19.648C3.524 19.576 3.216 19.54 2.856 19.54C2.544 19.54 2.272 19.604 2.04 19.732C1.808 19.852 1.692 20.044 1.692 20.308C1.692 20.444 1.716 20.564 1.764 20.668C1.82 20.772 1.9 20.868 2.004 20.956C2.116 21.036 2.252 21.112 2.412 21.184C2.572 21.256 2.764 21.332 2.988 21.412C3.284 21.524 3.548 21.636 3.78 21.748C4.012 21.852 4.208 21.976 4.368 22.12C4.536 22.264 4.664 22.44 4.752 22.648C4.84 22.848 4.884 23.096 4.884 23.392C4.884 23.968 4.668 24.404 4.236 24.7C3.812 24.996 3.204 25.144 2.412 25.144C1.86 25.144 1.428 25.096 1.116 25C0.804 24.912 0.592 24.844 0.48 24.796L0.684 23.836C0.812 23.884 1.016 23.956 1.296 24.052C1.576 24.148 1.948 24.196 2.412 24.196ZM5.96747 21.892C5.96747 21.34 6.04747 20.86 6.20747 20.452C6.36747 20.036 6.57947 19.692 6.84347 19.42C7.10747 19.148 7.41147 18.944 7.75547 18.808C8.09947 18.672 8.45147 18.604 8.81147 18.604C9.65147 18.604 10.2955 18.868 10.7435 19.396C11.1915 19.916 11.4155 20.712 11.4155 21.784C11.4155 21.832 11.4155 21.896 11.4155 21.976C11.4155 22.048 11.4115 22.116 11.4035 22.18H7.13147C7.17947 22.828 7.36747 23.32 7.69547 23.656C8.02347 23.992 8.53547 24.16 9.23147 24.16C9.62347 24.16 9.95147 24.128 10.2155 24.064C10.4875 23.992 10.6915 23.924 10.8275 23.86L10.9835 24.796C10.8475 24.868 10.6075 24.944 10.2635 25.024C9.92747 25.104 9.54347 25.144 9.11147 25.144C8.56747 25.144 8.09547 25.064 7.69547 24.904C7.30347 24.736 6.97947 24.508 6.72347 24.22C6.46747 23.932 6.27547 23.592 6.14747 23.2C6.02747 22.8 5.96747 22.364 5.96747 21.892ZM10.2515 21.28C10.2595 20.776 10.1315 20.364 9.86747 20.044C9.61147 19.716 9.25547 19.552 8.79947 19.552C8.54347 19.552 8.31547 19.604 8.11547 19.708C7.92347 19.804 7.75947 19.932 7.62347 20.092C7.48747 20.252 7.37947 20.436 7.29947 20.644C7.22747 20.852 7.17947 21.064 7.15547 21.28H10.2515ZM15.7306 25.144C15.2266 25.144 14.7826 25.064 14.3986 24.904C14.0226 24.744 13.7026 24.52 13.4386 24.232C13.1826 23.944 12.9906 23.604 12.8626 23.212C12.7346 22.812 12.6706 22.372 12.6706 21.892C12.6706 21.412 12.7386 20.972 12.8746 20.572C13.0186 20.172 13.2186 19.828 13.4746 19.54C13.7306 19.244 14.0426 19.016 14.4106 18.856C14.7866 18.688 15.2026 18.604 15.6586 18.604C15.9386 18.604 16.2186 18.628 16.4986 18.676C16.7786 18.724 17.0466 18.8 17.3026 18.904L17.0506 19.852C16.8826 19.772 16.6866 19.708 16.4626 19.66C16.2466 19.612 16.0146 19.588 15.7666 19.588C15.1426 19.588 14.6626 19.784 14.3266 20.176C13.9986 20.568 13.8346 21.14 13.8346 21.892C13.8346 22.228 13.8706 22.536 13.9426 22.816C14.0226 23.096 14.1426 23.336 14.3026 23.536C14.4706 23.736 14.6826 23.892 14.9386 24.004C15.1946 24.108 15.5066 24.16 15.8746 24.16C16.1706 24.16 16.4386 24.132 16.6786 24.076C16.9186 24.02 17.1066 23.96 17.2426 23.896L17.3986 24.832C17.3346 24.872 17.2426 24.912 17.1226 24.952C17.0026 24.984 16.8666 25.012 16.7146 25.036C16.5626 25.068 16.3986 25.092 16.2226 25.108C16.0546 25.132 15.8906 25.144 15.7306 25.144ZM23.5647 24.82C23.3087 24.884 22.9687 24.952 22.5447 25.024C22.1287 25.096 21.6447 25.132 21.0927 25.132C20.6127 25.132 20.2087 25.064 19.8807 24.928C19.5527 24.784 19.2887 24.584 19.0887 24.328C18.8887 24.072 18.7447 23.772 18.6567 23.428C18.5687 23.076 18.5247 22.688 18.5247 22.264V18.76H19.6407V22.024C19.6407 22.784 19.7607 23.328 20.0007 23.656C20.2407 23.984 20.6447 24.148 21.2127 24.148C21.3327 24.148 21.4567 24.144 21.5847 24.136C21.7127 24.128 21.8327 24.12 21.9447 24.112C22.0567 24.096 22.1567 24.084 22.2447 24.076C22.3407 24.06 22.4087 24.044 22.4487 24.028V18.76H23.5647V24.82ZM27.7913 18.628C27.8873 18.628 27.9953 18.636 28.1153 18.652C28.2433 18.66 28.3673 18.676 28.4873 18.7C28.6073 18.716 28.7153 18.736 28.8113 18.76C28.9153 18.776 28.9913 18.792 29.0393 18.808L28.8473 19.78C28.7593 19.748 28.6113 19.712 28.4033 19.672C28.2033 19.624 27.9433 19.6 27.6233 19.6C27.4153 19.6 27.2073 19.624 26.9993 19.672C26.7993 19.712 26.6673 19.74 26.6033 19.756V25H25.4873V19.024C25.7513 18.928 26.0793 18.84 26.4713 18.76C26.8633 18.672 27.3033 18.628 27.7913 18.628ZM31.2322 25H30.1162V18.76H31.2322V25ZM30.6683 17.632C30.4683 17.632 30.2963 17.568 30.1522 17.44C30.0162 17.304 29.9482 17.124 29.9482 16.9C29.9482 16.676 30.0162 16.5 30.1522 16.372C30.2963 16.236 30.4683 16.168 30.6683 16.168C30.8682 16.168 31.0362 16.236 31.1722 16.372C31.3163 16.5 31.3883 16.676 31.3883 16.9C31.3883 17.124 31.3163 17.304 31.1722 17.44C31.0362 17.568 30.8682 17.632 30.6683 17.632ZM34.1954 18.76H36.5594V19.696H34.1954V22.576C34.1954 22.888 34.2194 23.148 34.2674 23.356C34.3154 23.556 34.3874 23.716 34.4834 23.836C34.5794 23.948 34.6994 24.028 34.8434 24.076C34.9874 24.124 35.1554 24.148 35.3474 24.148C35.6834 24.148 35.9514 24.112 36.1514 24.04C36.3594 23.96 36.5034 23.904 36.5834 23.872L36.7994 24.796C36.6874 24.852 36.4914 24.92 36.2114 25C35.9314 25.088 35.6114 25.132 35.2514 25.132C34.8274 25.132 34.4754 25.08 34.1954 24.976C33.9234 24.864 33.7034 24.7 33.5354 24.484C33.3674 24.268 33.2474 24.004 33.1754 23.692C33.1114 23.372 33.0794 23.004 33.0794 22.588V17.02L34.1954 16.828V18.76ZM37.2475 26.164C37.3355 26.204 37.4475 26.24 37.5835 26.272C37.7275 26.312 37.8675 26.332 38.0035 26.332C38.4435 26.332 38.7875 26.232 39.0355 26.032C39.2835 25.84 39.5075 25.524 39.7075 25.084C39.2035 24.124 38.7315 23.108 38.2915 22.036C37.8595 20.956 37.4995 19.864 37.2115 18.76H38.4115C38.4995 19.12 38.6035 19.508 38.7235 19.924C38.8515 20.34 38.9915 20.768 39.1435 21.208C39.2955 21.648 39.4595 22.088 39.6355 22.528C39.8115 22.968 39.9955 23.392 40.1875 23.8C40.4915 22.96 40.7555 22.128 40.9795 21.304C41.2035 20.48 41.4155 19.632 41.6155 18.76H42.7675C42.4795 19.936 42.1595 21.068 41.8075 22.156C41.4555 23.236 41.0755 24.248 40.6675 25.192C40.5075 25.552 40.3395 25.86 40.1635 26.116C39.9955 26.38 39.8075 26.596 39.5995 26.764C39.3915 26.932 39.1555 27.056 38.8915 27.136C38.6355 27.216 38.3435 27.256 38.0155 27.256C37.9275 27.256 37.8355 27.248 37.7395 27.232C37.6435 27.224 37.5475 27.208 37.4515 27.184C37.3635 27.168 37.2795 27.148 37.1995 27.124C37.1275 27.1 37.0755 27.08 37.0435 27.064L37.2475 26.164ZM43.5364 22.792C43.5364 22.48 43.5844 22.204 43.6804 21.964C43.7764 21.716 43.9044 21.496 44.0644 21.304C44.2324 21.104 44.4244 20.932 44.6404 20.788C44.8564 20.636 45.0804 20.504 45.3124 20.392C44.7204 19.8 44.4244 19.188 44.4244 18.556C44.4244 18.236 44.4764 17.948 44.5804 17.692C44.6924 17.436 44.8404 17.22 45.0244 17.044C45.2164 16.868 45.4404 16.732 45.6964 16.636C45.9604 16.54 46.2484 16.492 46.5604 16.492C46.8804 16.492 47.1644 16.54 47.4124 16.636C47.6684 16.732 47.8804 16.86 48.0484 17.02C48.2244 17.18 48.3564 17.372 48.4444 17.596C48.5324 17.82 48.5764 18.056 48.5764 18.304C48.5764 18.584 48.5284 18.836 48.4324 19.06C48.3444 19.284 48.2204 19.488 48.0604 19.672C47.9084 19.856 47.7324 20.024 47.5324 20.176C47.3324 20.328 47.1204 20.464 46.8964 20.584L48.8404 22.564C49.1124 22.06 49.2884 21.5 49.3684 20.884L50.2924 21.004C50.2604 21.332 50.1764 21.692 50.0404 22.084C49.9124 22.468 49.7284 22.852 49.4884 23.236C49.7684 23.54 50.0244 23.84 50.2564 24.136C50.4964 24.432 50.6924 24.72 50.8444 25H49.6684C49.5724 24.84 49.4524 24.676 49.3084 24.508C49.1724 24.34 49.0284 24.172 48.8764 24.004C48.5484 24.332 48.1684 24.6 47.7364 24.808C47.3044 25.008 46.8084 25.108 46.2484 25.108C45.7284 25.108 45.2964 25.036 44.9524 24.892C44.6084 24.74 44.3284 24.552 44.1124 24.328C43.9044 24.096 43.7564 23.844 43.6684 23.572C43.5804 23.3 43.5364 23.04 43.5364 22.792ZM44.6524 22.768C44.6524 22.912 44.6804 23.068 44.7364 23.236C44.7924 23.404 44.8844 23.56 45.0124 23.704C45.1404 23.84 45.3044 23.956 45.5044 24.052C45.7124 24.14 45.9684 24.184 46.2724 24.184C46.6644 24.184 47.0244 24.112 47.3524 23.968C47.6884 23.824 47.9844 23.62 48.2404 23.356L45.9004 20.992C45.7564 21.064 45.6084 21.148 45.4564 21.244C45.3124 21.34 45.1804 21.46 45.0604 21.604C44.9404 21.74 44.8404 21.904 44.7604 22.096C44.6884 22.288 44.6524 22.512 44.6524 22.768ZM47.5684 18.34C47.5684 18.068 47.4764 17.84 47.2924 17.656C47.1164 17.464 46.8724 17.368 46.5604 17.368C46.2084 17.368 45.9364 17.476 45.7444 17.692C45.5604 17.9 45.4684 18.16 45.4684 18.472C45.4684 18.992 45.7404 19.5 46.2844 19.996C46.4604 19.908 46.6244 19.812 46.7764 19.708C46.9364 19.604 47.0724 19.484 47.1844 19.348C47.3044 19.212 47.3964 19.064 47.4604 18.904C47.5324 18.736 47.5684 18.548 47.5684 18.34ZM53.0526 25H51.9366V18.76H53.0526V25ZM52.4886 17.632C52.2886 17.632 52.1166 17.568 51.9726 17.44C51.8366 17.304 51.7686 17.124 51.7686 16.9C51.7686 16.676 51.8366 16.5 51.9726 16.372C52.1166 16.236 52.2886 16.168 52.4886 16.168C52.6886 16.168 52.8566 16.236 52.9926 16.372C53.1366 16.5 53.2086 16.676 53.2086 16.9C53.2086 17.124 53.1366 17.304 52.9926 17.44C52.8566 17.568 52.6886 17.632 52.4886 17.632ZM54.9717 18.94C55.2277 18.876 55.5677 18.808 55.9917 18.736C56.4157 18.664 56.9037 18.628 57.4557 18.628C57.9517 18.628 58.3637 18.7 58.6917 18.844C59.0197 18.98 59.2797 19.176 59.4717 19.432C59.6717 19.68 59.8117 19.98 59.8917 20.332C59.9717 20.684 60.0117 21.072 60.0117 21.496V25H58.8957V21.736C58.8957 21.352 58.8677 21.024 58.8117 20.752C58.7637 20.48 58.6797 20.26 58.5597 20.092C58.4397 19.924 58.2797 19.804 58.0797 19.732C57.8797 19.652 57.6317 19.612 57.3357 19.612C57.2157 19.612 57.0917 19.616 56.9637 19.624C56.8357 19.632 56.7117 19.644 56.5917 19.66C56.4797 19.668 56.3757 19.68 56.2797 19.696C56.1917 19.712 56.1277 19.724 56.0877 19.732V25H54.9717V18.94ZM62.9063 18.76H65.2703V19.696H62.9063V22.576C62.9063 22.888 62.9303 23.148 62.9783 23.356C63.0263 23.556 63.0983 23.716 63.1943 23.836C63.2903 23.948 63.4103 24.028 63.5543 24.076C63.6983 24.124 63.8663 24.148 64.0583 24.148C64.3943 24.148 64.6623 24.112 64.8623 24.04C65.0703 23.96 65.2143 23.904 65.2943 23.872L65.5103 24.796C65.3983 24.852 65.2023 24.92 64.9223 25C64.6423 25.088 64.3223 25.132 63.9623 25.132C63.5383 25.132 63.1863 25.08 62.9063 24.976C62.6343 24.864 62.4143 24.7 62.2463 24.484C62.0783 24.268 61.9583 24.004 61.8863 23.692C61.8223 23.372 61.7903 23.004 61.7903 22.588V17.02L62.9063 16.828V18.76ZM66.2253 21.892C66.2253 21.34 66.3053 20.86 66.4653 20.452C66.6253 20.036 66.8373 19.692 67.1013 19.42C67.3653 19.148 67.6693 18.944 68.0133 18.808C68.3573 18.672 68.7093 18.604 69.0693 18.604C69.9093 18.604 70.5533 18.868 71.0013 19.396C71.4493 19.916 71.6733 20.712 71.6733 21.784C71.6733 21.832 71.6733 21.896 71.6733 21.976C71.6733 22.048 71.6693 22.116 71.6613 22.18H67.3893C67.4373 22.828 67.6253 23.32 67.9533 23.656C68.2813 23.992 68.7933 24.16 69.4893 24.16C69.8813 24.16 70.2093 24.128 70.4733 24.064C70.7453 23.992 70.9493 23.924 71.0853 23.86L71.2413 24.796C71.1053 24.868 70.8653 24.944 70.5213 25.024C70.1853 25.104 69.8013 25.144 69.3693 25.144C68.8253 25.144 68.3533 25.064 67.9533 24.904C67.5613 24.736 67.2373 24.508 66.9813 24.22C66.7253 23.932 66.5333 23.592 66.4053 23.2C66.2853 22.8 66.2253 22.364 66.2253 21.892ZM70.5093 21.28C70.5173 20.776 70.3893 20.364 70.1253 20.044C69.8693 19.716 69.5133 19.552 69.0573 19.552C68.8013 19.552 68.5733 19.604 68.3733 19.708C68.1813 19.804 68.0173 19.932 67.8813 20.092C67.7453 20.252 67.6373 20.436 67.5573 20.644C67.4853 20.852 67.4373 21.064 67.4133 21.28H70.5093ZM77.1884 24.376C77.0924 24.44 76.9044 24.524 76.6244 24.628C76.3524 24.724 76.0324 24.772 75.6644 24.772C75.2884 24.772 74.9324 24.712 74.5964 24.592C74.2684 24.472 73.9804 24.288 73.7324 24.04C73.4844 23.784 73.2884 23.468 73.1444 23.092C73.0004 22.716 72.9284 22.268 72.9284 21.748C72.9284 21.292 72.9964 20.876 73.1324 20.5C73.2684 20.116 73.4644 19.788 73.7204 19.516C73.9844 19.236 74.3044 19.02 74.6804 18.868C75.0564 18.708 75.4804 18.628 75.9524 18.628C76.4724 18.628 76.9244 18.668 77.3084 18.748C77.7004 18.82 78.0284 18.888 78.2924 18.952V24.52C78.2924 25.48 78.0444 26.176 77.5484 26.608C77.0524 27.04 76.3004 27.256 75.2924 27.256C74.9004 27.256 74.5284 27.224 74.1764 27.16C73.8324 27.096 73.5324 27.02 73.2764 26.932L73.4804 25.96C73.7044 26.048 73.9764 26.124 74.2964 26.188C74.6244 26.26 74.9644 26.296 75.3164 26.296C75.9804 26.296 76.4564 26.164 76.7444 25.9C77.0404 25.636 77.1884 25.216 77.1884 24.64V24.376ZM77.1764 19.744C77.0644 19.712 76.9124 19.684 76.7204 19.66C76.5364 19.628 76.2844 19.612 75.9644 19.612C75.3644 19.612 74.9004 19.808 74.5724 20.2C74.2524 20.592 74.0924 21.112 74.0924 21.76C74.0924 22.12 74.1364 22.428 74.2244 22.684C74.3204 22.94 74.4444 23.152 74.5964 23.32C74.7564 23.488 74.9364 23.612 75.1364 23.692C75.3444 23.772 75.5564 23.812 75.7724 23.812C76.0684 23.812 76.3404 23.772 76.5884 23.692C76.8364 23.604 77.0324 23.504 77.1764 23.392V19.744ZM82.5179 18.628C82.6139 18.628 82.7219 18.636 82.8419 18.652C82.9699 18.66 83.0939 18.676 83.2139 18.7C83.3339 18.716 83.4419 18.736 83.5379 18.76C83.6419 18.776 83.7179 18.792 83.7659 18.808L83.5739 19.78C83.4859 19.748 83.3379 19.712 83.1299 19.672C82.9299 19.624 82.6699 19.6 82.3499 19.6C82.1419 19.6 81.9339 19.624 81.7259 19.672C81.5259 19.712 81.3939 19.74 81.3299 19.756V25H80.2139V19.024C80.4779 18.928 80.8059 18.84 81.1979 18.76C81.5899 18.672 82.0299 18.628 82.5179 18.628ZM86.9548 24.196C87.2188 24.196 87.4508 24.192 87.6508 24.184C87.8588 24.168 88.0308 24.144 88.1668 24.112V22.252C88.0868 22.212 87.9548 22.18 87.7708 22.156C87.5948 22.124 87.3788 22.108 87.1228 22.108C86.9548 22.108 86.7748 22.12 86.5828 22.144C86.3988 22.168 86.2268 22.22 86.0668 22.3C85.9148 22.372 85.7868 22.476 85.6828 22.612C85.5788 22.74 85.5268 22.912 85.5268 23.128C85.5268 23.528 85.6548 23.808 85.9108 23.968C86.1668 24.12 86.5148 24.196 86.9548 24.196ZM86.8588 18.604C87.3068 18.604 87.6828 18.664 87.9868 18.784C88.2988 18.896 88.5468 19.06 88.7308 19.276C88.9228 19.484 89.0588 19.736 89.1388 20.032C89.2188 20.32 89.2588 20.64 89.2588 20.992V24.892C89.1628 24.908 89.0268 24.932 88.8508 24.964C88.6828 24.988 88.4908 25.012 88.2748 25.036C88.0588 25.06 87.8228 25.08 87.5668 25.096C87.3188 25.12 87.0708 25.132 86.8228 25.132C86.4708 25.132 86.1468 25.096 85.8508 25.024C85.5548 24.952 85.2988 24.84 85.0828 24.688C84.8668 24.528 84.6988 24.32 84.5788 24.064C84.4588 23.808 84.3988 23.5 84.3988 23.14C84.3988 22.796 84.4668 22.5 84.6028 22.252C84.7468 22.004 84.9388 21.804 85.1788 21.652C85.4188 21.5 85.6988 21.388 86.0188 21.316C86.3388 21.244 86.6748 21.208 87.0268 21.208C87.1388 21.208 87.2548 21.216 87.3748 21.232C87.4948 21.24 87.6068 21.256 87.7108 21.28C87.8228 21.296 87.9188 21.312 87.9988 21.328C88.0788 21.344 88.1348 21.356 88.1668 21.364V21.052C88.1668 20.868 88.1468 20.688 88.1068 20.512C88.0668 20.328 87.9948 20.168 87.8908 20.032C87.7868 19.888 87.6428 19.776 87.4588 19.696C87.2828 19.608 87.0508 19.564 86.7628 19.564C86.3948 19.564 86.0708 19.592 85.7908 19.648C85.5188 19.696 85.3148 19.748 85.1788 19.804L85.0468 18.88C85.1908 18.816 85.4308 18.756 85.7668 18.7C86.1028 18.636 86.4668 18.604 86.8588 18.604ZM92.1563 18.76H94.5203V19.696H92.1563V22.576C92.1563 22.888 92.1803 23.148 92.2283 23.356C92.2763 23.556 92.3483 23.716 92.4443 23.836C92.5403 23.948 92.6603 24.028 92.8043 24.076C92.9483 24.124 93.1163 24.148 93.3083 24.148C93.6443 24.148 93.9123 24.112 94.1123 24.04C94.3203 23.96 94.4643 23.904 94.5443 23.872L94.7603 24.796C94.6483 24.852 94.4523 24.92 94.1723 25C93.8923 25.088 93.5723 25.132 93.2123 25.132C92.7883 25.132 92.4363 25.08 92.1563 24.976C91.8843 24.864 91.6643 24.7 91.4963 24.484C91.3283 24.268 91.2083 24.004 91.1363 23.692C91.0723 23.372 91.0403 23.004 91.0403 22.588V17.02L92.1563 16.828V18.76ZM97.0565 25H95.9405V18.76H97.0565V25ZM96.4925 17.632C96.2925 17.632 96.1205 17.568 95.9765 17.44C95.8405 17.304 95.7725 17.124 95.7725 16.9C95.7725 16.676 95.8405 16.5 95.9765 16.372C96.1205 16.236 96.2925 16.168 96.4925 16.168C96.6925 16.168 96.8605 16.236 96.9965 16.372C97.1405 16.5 97.2125 16.676 97.2125 16.9C97.2125 17.124 97.1405 17.304 96.9965 17.44C96.8605 17.568 96.6925 17.632 96.4925 17.632ZM104.484 21.88C104.484 22.376 104.412 22.824 104.268 23.224C104.124 23.624 103.92 23.968 103.656 24.256C103.4 24.544 103.092 24.768 102.732 24.928C102.372 25.08 101.98 25.156 101.556 25.156C101.132 25.156 100.74 25.08 100.38 24.928C100.02 24.768 99.7076 24.544 99.4436 24.256C99.1876 23.968 98.9876 23.624 98.8436 23.224C98.6996 22.824 98.6276 22.376 98.6276 21.88C98.6276 21.392 98.6996 20.948 98.8436 20.548C98.9876 20.14 99.1876 19.792 99.4436 19.504C99.7076 19.216 100.02 18.996 100.38 18.844C100.74 18.684 101.132 18.604 101.556 18.604C101.98 18.604 102.372 18.684 102.732 18.844C103.092 18.996 103.4 19.216 103.656 19.504C103.92 19.792 104.124 20.14 104.268 20.548C104.412 20.948 104.484 21.392 104.484 21.88ZM103.32 21.88C103.32 21.176 103.16 20.62 102.84 20.212C102.528 19.796 102.1 19.588 101.556 19.588C101.012 19.588 100.58 19.796 100.26 20.212C99.9476 20.62 99.7916 21.176 99.7916 21.88C99.7916 22.584 99.9476 23.144 100.26 23.56C100.58 23.968 101.012 24.172 101.556 24.172C102.1 24.172 102.528 23.968 102.84 23.56C103.16 23.144 103.32 22.584 103.32 21.88ZM106.054 18.94C106.31 18.876 106.65 18.808 107.074 18.736C107.498 18.664 107.986 18.628 108.538 18.628C109.034 18.628 109.446 18.7 109.774 18.844C110.102 18.98 110.362 19.176 110.554 19.432C110.754 19.68 110.894 19.98 110.974 20.332C111.054 20.684 111.094 21.072 111.094 21.496V25H109.978V21.736C109.978 21.352 109.95 21.024 109.894 20.752C109.846 20.48 109.762 20.26 109.642 20.092C109.522 19.924 109.362 19.804 109.162 19.732C108.962 19.652 108.714 19.612 108.418 19.612C108.298 19.612 108.174 19.616 108.046 19.624C107.918 19.632 107.794 19.644 107.674 19.66C107.562 19.668 107.458 19.68 107.362 19.696C107.274 19.712 107.21 19.724 107.17 19.732V25H106.054V18.94ZM114.396 24.196C114.852 24.196 115.188 24.136 115.404 24.016C115.628 23.896 115.74 23.704 115.74 23.44C115.74 23.168 115.632 22.952 115.416 22.792C115.2 22.632 114.844 22.452 114.348 22.252C114.108 22.156 113.876 22.06 113.652 21.964C113.436 21.86 113.248 21.74 113.088 21.604C112.928 21.468 112.8 21.304 112.704 21.112C112.608 20.92 112.56 20.684 112.56 20.404C112.56 19.852 112.764 19.416 113.172 19.096C113.58 18.768 114.136 18.604 114.84 18.604C115.016 18.604 115.192 18.616 115.368 18.64C115.544 18.656 115.708 18.68 115.86 18.712C116.012 18.736 116.144 18.764 116.256 18.796C116.376 18.828 116.468 18.856 116.532 18.88L116.328 19.84C116.208 19.776 116.02 19.712 115.764 19.648C115.508 19.576 115.2 19.54 114.84 19.54C114.528 19.54 114.256 19.604 114.024 19.732C113.792 19.852 113.676 20.044 113.676 20.308C113.676 20.444 113.7 20.564 113.748 20.668C113.804 20.772 113.884 20.868 113.988 20.956C114.1 21.036 114.236 21.112 114.396 21.184C114.556 21.256 114.748 21.332 114.972 21.412C115.268 21.524 115.532 21.636 115.764 21.748C115.996 21.852 116.192 21.976 116.352 22.12C116.52 22.264 116.648 22.44 116.736 22.648C116.824 22.848 116.868 23.096 116.868 23.392C116.868 23.968 116.652 24.404 116.22 24.7C115.796 24.996 115.188 25.144 114.396 25.144C113.844 25.144 113.412 25.096 113.1 25C112.788 24.912 112.576 24.844 112.464 24.796L112.668 23.836C112.796 23.884 113 23.956 113.28 24.052C113.56 24.148 113.932 24.196 114.396 24.196Z"
              transform="translate(362.499 345.202)" fill="#565561"/>
        <g class="b-chart-piece" mask="url(#mask1)">
            <path d="M31.8464 212.098L0 0L295.5 182.5L31.8464 212.098Z" transform="translate(293.5 179.421)"
                  fill="#577AAB"/>
        </g>
    </g>
    <g class="b-chart-part">
        <path d="M54.6328 17.27C54.3088 17.27 53.9728 17.246 53.6248 17.198C53.2888 17.162 52.9648 17.108 52.6528 17.036C52.3528 16.976 52.0768 16.91 51.8248 16.838C51.5728 16.754 51.3808 16.676 51.2488 16.604L51.6808 14.75C51.9328 14.87 52.2988 15.008 52.7788 15.164C53.2588 15.308 53.8528 15.38 54.5608 15.38C55.5088 15.38 56.1928 15.2 56.6128 14.84C57.0328 14.468 57.2428 13.976 57.2428 13.364C57.2428 12.968 57.1588 12.638 56.9908 12.374C56.8348 12.11 56.6128 11.9 56.3248 11.744C56.0488 11.576 55.7248 11.462 55.3528 11.402C54.9928 11.33 54.6088 11.294 54.2008 11.294H53.4628V9.53H54.3628C54.6388 9.53 54.9148 9.506 55.1908 9.458C55.4788 9.398 55.7368 9.302 55.9648 9.17C56.1928 9.026 56.3788 8.84 56.5228 8.612C56.6668 8.384 56.7388 8.09 56.7388 7.73C56.7388 7.442 56.6848 7.196 56.5768 6.992C56.4688 6.788 56.3248 6.62 56.1448 6.488C55.9768 6.356 55.7788 6.26 55.5508 6.2C55.3228 6.14 55.0828 6.11 54.8308 6.11C54.2908 6.11 53.8108 6.194 53.3908 6.362C52.9708 6.518 52.5988 6.698 52.2748 6.902L51.4828 5.282C51.6508 5.174 51.8548 5.06 52.0948 4.94C52.3348 4.82 52.5988 4.706 52.8868 4.598C53.1868 4.49 53.5048 4.406 53.8408 4.346C54.1768 4.274 54.5308 4.238 54.9028 4.238C55.5988 4.238 56.1988 4.322 56.7028 4.49C57.2068 4.658 57.6208 4.898 57.9448 5.21C58.2808 5.51 58.5268 5.87 58.6828 6.29C58.8508 6.698 58.9348 7.148 58.9348 7.64C58.9348 8.216 58.7728 8.732 58.4488 9.188C58.1368 9.644 57.7288 9.992 57.2248 10.232C57.8728 10.46 58.4068 10.838 58.8268 11.366C59.2588 11.894 59.4748 12.572 59.4748 13.4C59.4748 13.952 59.3788 14.468 59.1868 14.948C58.9948 15.416 58.7008 15.824 58.3048 16.172C57.9088 16.508 57.4048 16.778 56.7928 16.982C56.1928 17.174 55.4728 17.27 54.6328 17.27ZM66.6812 7.208C66.3932 7.556 66.0932 7.928 65.7812 8.324C65.4812 8.72 65.1872 9.134 64.8992 9.566C64.6112 9.998 64.3352 10.442 64.0712 10.898C63.8072 11.342 63.5672 11.786 63.3512 12.23H66.6812V7.208ZM68.8052 4.526V12.23H70.2092V14.012H68.8052V17H66.6812V14.012H61.2092V12.464C61.4492 11.936 61.7672 11.33 62.1632 10.646C62.5712 9.962 63.0212 9.26 63.5132 8.54C64.0052 7.82 64.5272 7.112 65.0792 6.416C65.6312 5.72 66.1832 5.09 66.7352 4.526H68.8052ZM77.7397 7.658C77.7397 8.75 77.4577 9.59 76.8937 10.178C76.3417 10.766 75.6157 11.06 74.7157 11.06C74.2717 11.06 73.8637 10.988 73.4917 10.844C73.1197 10.688 72.8017 10.466 72.5377 10.178C72.2737 9.89 72.0637 9.536 71.9077 9.116C71.7637 8.684 71.6917 8.198 71.6917 7.658C71.6917 6.554 71.9677 5.714 72.5197 5.138C73.0837 4.55 73.8157 4.256 74.7157 4.256C75.6157 4.256 76.3417 4.55 76.8937 5.138C77.4577 5.714 77.7397 6.554 77.7397 7.658ZM76.0297 7.658C76.0297 7.022 75.9097 6.548 75.6697 6.236C75.4417 5.912 75.1237 5.75 74.7157 5.75C74.3077 5.75 73.9897 5.912 73.7617 6.236C73.5337 6.548 73.4197 7.022 73.4197 7.658C73.4197 8.294 73.5337 8.774 73.7617 9.098C73.9897 9.41 74.3077 9.566 74.7157 9.566C75.1237 9.566 75.4417 9.41 75.6697 9.098C75.9097 8.774 76.0297 8.294 76.0297 7.658ZM81.3937 4.526H83.4637L76.4257 17H74.3557L81.3937 4.526ZM86.1457 13.886C86.1457 14.978 85.8637 15.818 85.2997 16.406C84.7477 16.994 84.0217 17.288 83.1217 17.288C82.6777 17.288 82.2697 17.21 81.8977 17.054C81.5257 16.91 81.2077 16.694 80.9437 16.406C80.6797 16.118 80.4697 15.764 80.3137 15.344C80.1697 14.912 80.0977 14.426 80.0977 13.886C80.0977 12.782 80.3737 11.942 80.9257 11.366C81.4897 10.778 82.2217 10.484 83.1217 10.484C84.0217 10.484 84.7477 10.778 85.2997 11.366C85.8637 11.942 86.1457 12.782 86.1457 13.886ZM84.4357 13.886C84.4357 13.25 84.3157 12.776 84.0757 12.464C83.8477 12.14 83.5297 11.978 83.1217 11.978C82.7137 11.978 82.3957 12.14 82.1677 12.464C81.9397 12.776 81.8257 13.25 81.8257 13.886C81.8257 14.522 81.9397 15.002 82.1677 15.326C82.3957 15.638 82.7137 15.794 83.1217 15.794C83.5297 15.794 83.8477 15.638 84.0757 15.326C84.3157 15.002 84.4357 14.522 84.4357 13.886Z"
              transform="translate(32.2236 219.106)" fill="#565561"/>
        <path d="M44.889 9.848C44.809 9.656 44.701 9.412 44.565 9.116C44.437 8.82 44.297 8.5 44.145 8.156C43.993 7.812 43.829 7.46 43.653 7.1C43.485 6.732 43.325 6.388 43.173 6.068C43.021 5.74 42.877 5.448 42.741 5.192C42.613 4.936 42.509 4.74 42.429 4.604C42.341 5.548 42.269 6.572 42.213 7.676C42.157 8.772 42.109 9.88 42.069 11H40.929C40.961 10.28 40.997 9.556 41.037 8.828C41.077 8.092 41.121 7.372 41.169 6.668C41.225 5.956 41.281 5.264 41.337 4.592C41.401 3.92 41.469 3.284 41.541 2.684H42.561C42.777 3.036 43.009 3.452 43.257 3.932C43.505 4.412 43.753 4.916 44.001 5.444C44.249 5.964 44.489 6.488 44.721 7.016C44.953 7.536 45.165 8.012 45.357 8.444C45.549 8.012 45.761 7.536 45.993 7.016C46.225 6.488 46.465 5.964 46.713 5.444C46.961 4.916 47.209 4.412 47.457 3.932C47.705 3.452 47.937 3.036 48.153 2.684H49.173C49.445 5.364 49.649 8.136 49.785 11H48.645C48.605 9.88 48.557 8.772 48.501 7.676C48.445 6.572 48.373 5.548 48.285 4.604C48.205 4.74 48.097 4.936 47.961 5.192C47.833 5.448 47.693 5.74 47.541 6.068C47.389 6.388 47.225 6.732 47.049 7.1C46.881 7.46 46.721 7.812 46.569 8.156C46.417 8.5 46.273 8.82 46.137 9.116C46.009 9.412 45.905 9.656 45.825 9.848H44.889ZM53.6501 10.196C53.9141 10.196 54.1461 10.192 54.3461 10.184C54.5541 10.168 54.7261 10.144 54.8621 10.112V8.252C54.7821 8.212 54.6501 8.18 54.4661 8.156C54.2901 8.124 54.0741 8.108 53.8181 8.108C53.6501 8.108 53.4701 8.12 53.2781 8.144C53.0941 8.168 52.9221 8.22 52.7621 8.3C52.6101 8.372 52.4821 8.476 52.3781 8.612C52.2741 8.74 52.2221 8.912 52.2221 9.128C52.2221 9.528 52.3501 9.808 52.6061 9.968C52.8621 10.12 53.2101 10.196 53.6501 10.196ZM53.5541 4.604C54.0021 4.604 54.3781 4.664 54.6821 4.784C54.9941 4.896 55.2421 5.06 55.4261 5.276C55.6181 5.484 55.7541 5.736 55.8341 6.032C55.9141 6.32 55.9541 6.64 55.9541 6.992V10.892C55.8581 10.908 55.7221 10.932 55.5461 10.964C55.3781 10.988 55.1861 11.012 54.9701 11.036C54.7541 11.06 54.5181 11.08 54.2621 11.096C54.0141 11.12 53.7661 11.132 53.5181 11.132C53.1661 11.132 52.8421 11.096 52.5461 11.024C52.2501 10.952 51.9941 10.84 51.7781 10.688C51.5621 10.528 51.3941 10.32 51.2741 10.064C51.1541 9.808 51.0941 9.5 51.0941 9.14C51.0941 8.796 51.1621 8.5 51.2981 8.252C51.4421 8.004 51.6341 7.804 51.8741 7.652C52.1141 7.5 52.3941 7.388 52.7141 7.316C53.0341 7.244 53.3701 7.208 53.7221 7.208C53.8341 7.208 53.9501 7.216 54.0701 7.232C54.1901 7.24 54.3021 7.256 54.4061 7.28C54.5181 7.296 54.6141 7.312 54.6941 7.328C54.7741 7.344 54.8301 7.356 54.8621 7.364V7.052C54.8621 6.868 54.8421 6.688 54.8021 6.512C54.7621 6.328 54.6901 6.168 54.5861 6.032C54.4821 5.888 54.3381 5.776 54.1541 5.696C53.9781 5.608 53.7461 5.564 53.4581 5.564C53.0901 5.564 52.7661 5.592 52.4861 5.648C52.2141 5.696 52.0101 5.748 51.8741 5.804L51.7421 4.88C51.8861 4.816 52.1261 4.756 52.4621 4.7C52.7981 4.636 53.1621 4.604 53.5541 4.604ZM60.1117 4.628C60.2077 4.628 60.3157 4.636 60.4357 4.652C60.5637 4.66 60.6877 4.676 60.8077 4.7C60.9277 4.716 61.0357 4.736 61.1317 4.76C61.2357 4.776 61.3117 4.792 61.3597 4.808L61.1677 5.78C61.0797 5.748 60.9317 5.712 60.7237 5.672C60.5237 5.624 60.2637 5.6 59.9437 5.6C59.7357 5.6 59.5277 5.624 59.3197 5.672C59.1197 5.712 58.9877 5.74 58.9237 5.756V11H57.8077V5.024C58.0717 4.928 58.3997 4.84 58.7917 4.76C59.1837 4.672 59.6237 4.628 60.1117 4.628ZM64.6926 7.568C64.9326 7.752 65.1846 7.98 65.4486 8.252C65.7206 8.524 65.9846 8.82 66.2406 9.14C66.5046 9.452 66.7526 9.772 66.9846 10.1C67.2166 10.42 67.4126 10.72 67.5726 11H66.2646C66.0966 10.72 65.9006 10.436 65.6766 10.148C65.4606 9.852 65.2326 9.572 64.9926 9.308C64.7526 9.036 64.5086 8.788 64.2606 8.564C64.0126 8.34 63.7766 8.152 63.5526 8V11H62.4366V1.88L63.5526 1.688V7.376C63.7446 7.184 63.9566 6.972 64.1886 6.74C64.4206 6.508 64.6486 6.272 64.8726 6.032C65.0966 5.792 65.3086 5.564 65.5086 5.348C65.7086 5.124 65.8806 4.928 66.0246 4.76H67.3326C67.1486 4.96 66.9486 5.18 66.7326 5.42C66.5166 5.66 66.2926 5.904 66.0606 6.152C65.8286 6.392 65.5926 6.636 65.3526 6.884C65.1206 7.124 64.9006 7.352 64.6926 7.568ZM68.0417 7.892C68.0417 7.34 68.1217 6.86 68.2817 6.452C68.4417 6.036 68.6537 5.692 68.9177 5.42C69.1817 5.148 69.4857 4.944 69.8297 4.808C70.1737 4.672 70.5257 4.604 70.8857 4.604C71.7257 4.604 72.3697 4.868 72.8177 5.396C73.2657 5.916 73.4897 6.712 73.4897 7.784C73.4897 7.832 73.4897 7.896 73.4897 7.976C73.4897 8.048 73.4857 8.116 73.4777 8.18H69.2057C69.2537 8.828 69.4417 9.32 69.7697 9.656C70.0977 9.992 70.6097 10.16 71.3057 10.16C71.6977 10.16 72.0257 10.128 72.2897 10.064C72.5617 9.992 72.7657 9.924 72.9017 9.86L73.0577 10.796C72.9217 10.868 72.6817 10.944 72.3377 11.024C72.0017 11.104 71.6177 11.144 71.1857 11.144C70.6417 11.144 70.1697 11.064 69.7697 10.904C69.3777 10.736 69.0537 10.508 68.7977 10.22C68.5417 9.932 68.3497 9.592 68.2217 9.2C68.1017 8.8 68.0417 8.364 68.0417 7.892ZM72.3257 7.28C72.3337 6.776 72.2057 6.364 71.9417 6.044C71.6857 5.716 71.3297 5.552 70.8737 5.552C70.6177 5.552 70.3897 5.604 70.1897 5.708C69.9977 5.804 69.8337 5.932 69.6977 6.092C69.5617 6.252 69.4537 6.436 69.3737 6.644C69.3017 6.852 69.2537 7.064 69.2297 7.28H72.3257ZM76.1368 4.76H78.5008V5.696H76.1368V8.576C76.1368 8.888 76.1608 9.148 76.2088 9.356C76.2568 9.556 76.3288 9.716 76.4248 9.836C76.5208 9.948 76.6408 10.028 76.7848 10.076C76.9288 10.124 77.0968 10.148 77.2888 10.148C77.6248 10.148 77.8928 10.112 78.0928 10.04C78.3008 9.96 78.4448 9.904 78.5248 9.872L78.7408 10.796C78.6288 10.852 78.4328 10.92 78.1528 11C77.8728 11.088 77.5528 11.132 77.1928 11.132C76.7688 11.132 76.4168 11.08 76.1368 10.976C75.8648 10.864 75.6448 10.7 75.4768 10.484C75.3088 10.268 75.1888 10.004 75.1168 9.692C75.0528 9.372 75.0208 9.004 75.0208 8.588V3.02L76.1368 2.828V4.76ZM81.0369 11H79.9209V4.76H81.0369V11ZM80.4729 3.632C80.2729 3.632 80.1009 3.568 79.9569 3.44C79.8209 3.304 79.7529 3.124 79.7529 2.9C79.7529 2.676 79.8209 2.5 79.9569 2.372C80.1009 2.236 80.2729 2.168 80.4729 2.168C80.6729 2.168 80.8409 2.236 80.9769 2.372C81.1209 2.5 81.1929 2.676 81.1929 2.9C81.1929 3.124 81.1209 3.304 80.9769 3.44C80.8409 3.568 80.6729 3.632 80.4729 3.632ZM82.9561 4.94C83.2121 4.876 83.5521 4.808 83.9761 4.736C84.4001 4.664 84.8881 4.628 85.4401 4.628C85.9361 4.628 86.3481 4.7 86.6761 4.844C87.0041 4.98 87.2641 5.176 87.4561 5.432C87.6561 5.68 87.7961 5.98 87.8761 6.332C87.9561 6.684 87.9961 7.072 87.9961 7.496V11H86.8801V7.736C86.8801 7.352 86.8521 7.024 86.7961 6.752C86.7481 6.48 86.6641 6.26 86.5441 6.092C86.4241 5.924 86.2641 5.804 86.0641 5.732C85.8641 5.652 85.6161 5.612 85.3201 5.612C85.2001 5.612 85.0761 5.616 84.9481 5.624C84.8201 5.632 84.6961 5.644 84.5761 5.66C84.4641 5.668 84.3601 5.68 84.2641 5.696C84.1761 5.712 84.1121 5.724 84.0721 5.732V11H82.9561V4.94ZM93.7587 10.376C93.6627 10.44 93.4747 10.524 93.1947 10.628C92.9227 10.724 92.6027 10.772 92.2347 10.772C91.8587 10.772 91.5027 10.712 91.1667 10.592C90.8387 10.472 90.5507 10.288 90.3027 10.04C90.0547 9.784 89.8587 9.468 89.7147 9.092C89.5707 8.716 89.4987 8.268 89.4987 7.748C89.4987 7.292 89.5667 6.876 89.7027 6.5C89.8387 6.116 90.0347 5.788 90.2907 5.516C90.5547 5.236 90.8747 5.02 91.2507 4.868C91.6267 4.708 92.0507 4.628 92.5227 4.628C93.0427 4.628 93.4947 4.668 93.8787 4.748C94.2707 4.82 94.5987 4.888 94.8627 4.952V10.52C94.8627 11.48 94.6147 12.176 94.1187 12.608C93.6227 13.04 92.8707 13.256 91.8627 13.256C91.4707 13.256 91.0987 13.224 90.7467 13.16C90.4027 13.096 90.1027 13.02 89.8467 12.932L90.0507 11.96C90.2747 12.048 90.5467 12.124 90.8667 12.188C91.1947 12.26 91.5347 12.296 91.8867 12.296C92.5507 12.296 93.0267 12.164 93.3147 11.9C93.6107 11.636 93.7587 11.216 93.7587 10.64V10.376ZM93.7467 5.744C93.6347 5.712 93.4827 5.684 93.2907 5.66C93.1067 5.628 92.8547 5.612 92.5347 5.612C91.9347 5.612 91.4707 5.808 91.1427 6.2C90.8227 6.592 90.6627 7.112 90.6627 7.76C90.6627 8.12 90.7067 8.428 90.7947 8.684C90.8907 8.94 91.0147 9.152 91.1667 9.32C91.3267 9.488 91.5067 9.612 91.7067 9.692C91.9147 9.772 92.1267 9.812 92.3427 9.812C92.6387 9.812 92.9107 9.772 93.1587 9.692C93.4067 9.604 93.6027 9.504 93.7467 9.392V5.744ZM96.3762 8.792C96.3762 8.48 96.4242 8.204 96.5202 7.964C96.6162 7.716 96.7442 7.496 96.9042 7.304C97.0722 7.104 97.2642 6.932 97.4802 6.788C97.6962 6.636 97.9202 6.504 98.1522 6.392C97.5602 5.8 97.2642 5.188 97.2642 4.556C97.2642 4.236 97.3162 3.948 97.4202 3.692C97.5322 3.436 97.6802 3.22 97.8642 3.044C98.0562 2.868 98.2802 2.732 98.5362 2.636C98.8002 2.54 99.0882 2.492 99.4002 2.492C99.7202 2.492 100.004 2.54 100.252 2.636C100.508 2.732 100.72 2.86 100.888 3.02C101.064 3.18 101.196 3.372 101.284 3.596C101.372 3.82 101.416 4.056 101.416 4.304C101.416 4.584 101.368 4.836 101.272 5.06C101.184 5.284 101.06 5.488 100.9 5.672C100.748 5.856 100.572 6.024 100.372 6.176C100.172 6.328 99.9602 6.464 99.7362 6.584L101.68 8.564C101.952 8.06 102.128 7.5 102.208 6.884L103.132 7.004C103.1 7.332 103.016 7.692 102.88 8.084C102.752 8.468 102.568 8.852 102.328 9.236C102.608 9.54 102.864 9.84 103.096 10.136C103.336 10.432 103.532 10.72 103.684 11H102.508C102.412 10.84 102.292 10.676 102.148 10.508C102.012 10.34 101.868 10.172 101.716 10.004C101.388 10.332 101.008 10.6 100.576 10.808C100.144 11.008 99.6482 11.108 99.0882 11.108C98.5682 11.108 98.1362 11.036 97.7922 10.892C97.4482 10.74 97.1682 10.552 96.9522 10.328C96.7442 10.096 96.5962 9.844 96.5082 9.572C96.4202 9.3 96.3762 9.04 96.3762 8.792ZM97.4922 8.768C97.4922 8.912 97.5202 9.068 97.5762 9.236C97.6322 9.404 97.7242 9.56 97.8522 9.704C97.9802 9.84 98.1442 9.956 98.3442 10.052C98.5522 10.14 98.8082 10.184 99.1122 10.184C99.5042 10.184 99.8642 10.112 100.192 9.968C100.528 9.824 100.824 9.62 101.08 9.356L98.7402 6.992C98.5962 7.064 98.4482 7.148 98.2962 7.244C98.1522 7.34 98.0202 7.46 97.9002 7.604C97.7802 7.74 97.6802 7.904 97.6002 8.096C97.5282 8.288 97.4922 8.512 97.4922 8.768ZM100.408 4.34C100.408 4.068 100.316 3.84 100.132 3.656C99.9562 3.464 99.7122 3.368 99.4002 3.368C99.0482 3.368 98.7762 3.476 98.5842 3.692C98.4002 3.9 98.3082 4.16 98.3082 4.472C98.3082 4.992 98.5802 5.5 99.1242 5.996C99.3002 5.908 99.4642 5.812 99.6162 5.708C99.7762 5.604 99.9122 5.484 100.024 5.348C100.144 5.212 100.236 5.064 100.3 4.904C100.372 4.736 100.408 4.548 100.408 4.34ZM107.056 2.6C108.224 2.6 109.12 2.824 109.744 3.272C110.376 3.712 110.692 4.372 110.692 5.252C110.692 5.732 110.604 6.144 110.428 6.488C110.26 6.824 110.012 7.1 109.684 7.316C109.364 7.524 108.972 7.676 108.508 7.772C108.044 7.868 107.52 7.916 106.936 7.916H106.012V11H104.848V2.804C105.176 2.724 105.54 2.672 105.94 2.648C106.348 2.616 106.72 2.6 107.056 2.6ZM107.152 3.62C106.656 3.62 106.276 3.632 106.012 3.656V6.92H106.888C107.288 6.92 107.648 6.896 107.968 6.848C108.288 6.792 108.556 6.704 108.772 6.584C108.996 6.456 109.168 6.284 109.288 6.068C109.408 5.852 109.468 5.576 109.468 5.24C109.468 4.92 109.404 4.656 109.276 4.448C109.156 4.24 108.988 4.076 108.772 3.956C108.564 3.828 108.32 3.74 108.04 3.692C107.76 3.644 107.464 3.62 107.152 3.62ZM116.217 7.52C116.345 7.68 116.505 7.892 116.697 8.156C116.897 8.412 117.101 8.7 117.309 9.02C117.517 9.332 117.721 9.66 117.921 10.004C118.129 10.348 118.305 10.68 118.449 11H117.177C117.017 10.696 116.841 10.388 116.649 10.076C116.465 9.764 116.277 9.468 116.085 9.188C115.893 8.9 115.701 8.632 115.509 8.384C115.325 8.136 115.157 7.92 115.005 7.736C114.901 7.744 114.793 7.748 114.681 7.748C114.577 7.748 114.469 7.748 114.357 7.748H113.313V11H112.149V2.804C112.477 2.724 112.841 2.672 113.241 2.648C113.649 2.616 114.021 2.6 114.357 2.6C115.525 2.6 116.413 2.82 117.021 3.26C117.637 3.7 117.945 4.356 117.945 5.228C117.945 5.78 117.797 6.252 117.501 6.644C117.213 7.036 116.785 7.328 116.217 7.52ZM114.453 3.62C113.957 3.62 113.577 3.632 113.313 3.656V6.788H114.141C114.541 6.788 114.901 6.768 115.221 6.728C115.541 6.688 115.809 6.612 116.025 6.5C116.249 6.388 116.421 6.232 116.541 6.032C116.661 5.824 116.721 5.552 116.721 5.216C116.721 4.904 116.661 4.644 116.541 4.436C116.421 4.228 116.257 4.064 116.049 3.944C115.849 3.824 115.609 3.74 115.329 3.692C115.057 3.644 114.765 3.62 114.453 3.62Z"
              transform="translate(0.540039 242.606)" fill="#565561"/>
        <path d="M0 0C0 0 0.134418 0.230091 13.7154 53.0992" transform="translate(144.397 229.326) rotate(-95.1651)"
              stroke="#0D2546"/>
        <line y1="-0.5" x2="17.6357" y2="-0.5" transform="translate(127.159 229.747)" stroke="#0D2546"/>
        <g class="b-chart-piece" mask="url(#mask2)">
            <path d="M49.4834 0L226.369 105.898L262.714 342.688L0 154.649L49.4834 0Z"
                  transform="translate(67.1309 73.0234)"
                  fill="#0D2546"/>
        </g>
    </g>
    <g class="b-chart-part">
        <path d="M0 0C0 0 0.134418 0.230091 13.7154 53.0992"
              transform="translate(238.36 88.3113) scale(1 -1) rotate(70.5974)" stroke="#29446A"/>
        <path d="M27.8718 6.836C27.8718 6.124 27.9758 5.496 28.1838 4.952C28.3998 4.408 28.6878 3.956 29.0478 3.596C29.4158 3.228 29.8398 2.952 30.3198 2.768C30.8078 2.584 31.3238 2.492 31.8678 2.492C32.4038 2.492 32.9078 2.584 33.3798 2.768C33.8598 2.952 34.2798 3.228 34.6398 3.596C34.9998 3.956 35.2838 4.408 35.4918 4.952C35.7078 5.496 35.8158 6.124 35.8158 6.836C35.8158 7.548 35.7078 8.176 35.4918 8.72C35.2838 9.264 34.9998 9.72 34.6398 10.088C34.2798 10.448 33.8598 10.72 33.3798 10.904C32.9078 11.088 32.4038 11.18 31.8678 11.18C31.3238 11.18 30.8078 11.088 30.3198 10.904C29.8398 10.72 29.4158 10.448 29.0478 10.088C28.6878 9.72 28.3998 9.264 28.1838 8.72C27.9758 8.176 27.8718 7.548 27.8718 6.836ZM29.0958 6.836C29.0958 7.34 29.1598 7.8 29.2878 8.216C29.4158 8.624 29.5958 8.972 29.8278 9.26C30.0678 9.548 30.3558 9.772 30.6918 9.932C31.0358 10.084 31.4198 10.16 31.8438 10.16C32.2678 10.16 32.6478 10.084 32.9838 9.932C33.3198 9.772 33.6038 9.548 33.8358 9.26C34.0758 8.972 34.2598 8.624 34.3878 8.216C34.5158 7.8 34.5798 7.34 34.5798 6.836C34.5798 6.332 34.5158 5.876 34.3878 5.468C34.2598 5.052 34.0758 4.7 33.8358 4.412C33.6038 4.124 33.3198 3.904 32.9838 3.752C32.6478 3.592 32.2678 3.512 31.8438 3.512C31.4198 3.512 31.0358 3.592 30.6918 3.752C30.3558 3.904 30.0678 4.124 29.8278 4.412C29.5958 4.7 29.4158 5.052 29.2878 5.468C29.1598 5.876 29.0958 6.332 29.0958 6.836ZM38.5196 4.76H40.8836V5.696H38.5196V8.576C38.5196 8.888 38.5436 9.148 38.5916 9.356C38.6396 9.556 38.7116 9.716 38.8076 9.836C38.9036 9.948 39.0236 10.028 39.1676 10.076C39.3116 10.124 39.4796 10.148 39.6716 10.148C40.0076 10.148 40.2756 10.112 40.4756 10.04C40.6836 9.96 40.8276 9.904 40.9076 9.872L41.1236 10.796C41.0116 10.852 40.8156 10.92 40.5356 11C40.2556 11.088 39.9356 11.132 39.5756 11.132C39.1516 11.132 38.7996 11.08 38.5196 10.976C38.2476 10.864 38.0276 10.7 37.8596 10.484C37.6916 10.268 37.5716 10.004 37.4996 9.692C37.4356 9.372 37.4036 9.004 37.4036 8.588V3.02L38.5196 2.828V4.76ZM42.3037 11V1.88L43.4197 1.688V4.88C43.6277 4.8 43.8478 4.74 44.0798 4.7C44.3197 4.652 44.5557 4.628 44.7878 4.628C45.2838 4.628 45.6957 4.7 46.0237 4.844C46.3517 4.98 46.6118 5.176 46.8038 5.432C47.0037 5.68 47.1437 5.98 47.2238 6.332C47.3038 6.684 47.3438 7.072 47.3438 7.496V11H46.2278V7.736C46.2278 7.352 46.1998 7.024 46.1438 6.752C46.0957 6.48 46.0117 6.26 45.8918 6.092C45.7717 5.924 45.6117 5.804 45.4117 5.732C45.2118 5.652 44.9638 5.612 44.6678 5.612C44.5477 5.612 44.4237 5.62 44.2958 5.636C44.1678 5.652 44.0438 5.672 43.9238 5.696C43.8118 5.712 43.7078 5.732 43.6117 5.756C43.5238 5.78 43.4597 5.8 43.4197 5.816V11H42.3037ZM48.8112 7.892C48.8112 7.34 48.8912 6.86 49.0512 6.452C49.2112 6.036 49.4232 5.692 49.6872 5.42C49.9512 5.148 50.2552 4.944 50.5992 4.808C50.9432 4.672 51.2952 4.604 51.6552 4.604C52.4952 4.604 53.1392 4.868 53.5872 5.396C54.0352 5.916 54.2592 6.712 54.2592 7.784C54.2592 7.832 54.2592 7.896 54.2592 7.976C54.2592 8.048 54.2552 8.116 54.2472 8.18H49.9752C50.0232 8.828 50.2112 9.32 50.5392 9.656C50.8672 9.992 51.3792 10.16 52.0752 10.16C52.4672 10.16 52.7952 10.128 53.0592 10.064C53.3312 9.992 53.5352 9.924 53.6712 9.86L53.8272 10.796C53.6912 10.868 53.4512 10.944 53.1072 11.024C52.7712 11.104 52.3872 11.144 51.9552 11.144C51.4112 11.144 50.9392 11.064 50.5392 10.904C50.1472 10.736 49.8232 10.508 49.5672 10.22C49.3112 9.932 49.1192 9.592 48.9912 9.2C48.8712 8.8 48.8112 8.364 48.8112 7.892ZM53.0952 7.28C53.1032 6.776 52.9752 6.364 52.7112 6.044C52.4552 5.716 52.0992 5.552 51.6432 5.552C51.3872 5.552 51.1592 5.604 50.9592 5.708C50.7672 5.804 50.6032 5.932 50.4672 6.092C50.3312 6.252 50.2232 6.436 50.1432 6.644C50.0712 6.852 50.0232 7.064 49.9992 7.28H53.0952ZM58.1663 4.628C58.2623 4.628 58.3703 4.636 58.4903 4.652C58.6183 4.66 58.7423 4.676 58.8623 4.7C58.9823 4.716 59.0903 4.736 59.1863 4.76C59.2903 4.776 59.3663 4.792 59.4143 4.808L59.2223 5.78C59.1343 5.748 58.9863 5.712 58.7783 5.672C58.5783 5.624 58.3183 5.6 57.9983 5.6C57.7903 5.6 57.5823 5.624 57.3743 5.672C57.1743 5.712 57.0423 5.74 56.9783 5.756V11H55.8623V5.024C56.1263 4.928 56.4543 4.84 56.8463 4.76C57.2383 4.672 57.6783 4.628 58.1663 4.628ZM68.7766 7.88C68.7766 8.376 68.7046 8.824 68.5606 9.224C68.4166 9.624 68.2126 9.968 67.9486 10.256C67.6926 10.544 67.3846 10.768 67.0246 10.928C66.6646 11.08 66.2726 11.156 65.8486 11.156C65.4246 11.156 65.0326 11.08 64.6726 10.928C64.3126 10.768 64.0006 10.544 63.7366 10.256C63.4806 9.968 63.2806 9.624 63.1366 9.224C62.9926 8.824 62.9206 8.376 62.9206 7.88C62.9206 7.392 62.9926 6.948 63.1366 6.548C63.2806 6.14 63.4806 5.792 63.7366 5.504C64.0006 5.216 64.3126 4.996 64.6726 4.844C65.0326 4.684 65.4246 4.604 65.8486 4.604C66.2726 4.604 66.6646 4.684 67.0246 4.844C67.3846 4.996 67.6926 5.216 67.9486 5.504C68.2126 5.792 68.4166 6.14 68.5606 6.548C68.7046 6.948 68.7766 7.392 68.7766 7.88ZM67.6126 7.88C67.6126 7.176 67.4526 6.62 67.1326 6.212C66.8206 5.796 66.3926 5.588 65.8486 5.588C65.3046 5.588 64.8726 5.796 64.5526 6.212C64.2406 6.62 64.0846 7.176 64.0846 7.88C64.0846 8.584 64.2406 9.144 64.5526 9.56C64.8726 9.968 65.3046 10.172 65.8486 10.172C66.3926 10.172 66.8206 9.968 67.1326 9.56C67.4526 9.144 67.6126 8.584 67.6126 7.88ZM75.0547 4.76C74.7427 5.928 74.3747 7.048 73.9507 8.12C73.5347 9.192 73.1307 10.152 72.7387 11H71.7307C71.3387 10.152 70.9307 9.192 70.5067 8.12C70.0907 7.048 69.7267 5.928 69.4147 4.76H70.6147C70.7107 5.152 70.8227 5.572 70.9507 6.02C71.0867 6.46 71.2267 6.9 71.3707 7.34C71.5227 7.772 71.6747 8.192 71.8267 8.6C71.9787 9.008 72.1227 9.372 72.2587 9.692C72.3947 9.372 72.5387 9.008 72.6907 8.6C72.8427 8.192 72.9907 7.772 73.1347 7.34C73.2867 6.9 73.4267 6.46 73.5547 6.02C73.6907 5.572 73.8067 5.152 73.9027 4.76H75.0547ZM75.694 7.892C75.694 7.34 75.774 6.86 75.934 6.452C76.094 6.036 76.306 5.692 76.57 5.42C76.834 5.148 77.138 4.944 77.482 4.808C77.826 4.672 78.178 4.604 78.538 4.604C79.378 4.604 80.022 4.868 80.47 5.396C80.918 5.916 81.142 6.712 81.142 7.784C81.142 7.832 81.142 7.896 81.142 7.976C81.142 8.048 81.138 8.116 81.13 8.18H76.858C76.906 8.828 77.094 9.32 77.422 9.656C77.75 9.992 78.262 10.16 78.958 10.16C79.35 10.16 79.678 10.128 79.942 10.064C80.214 9.992 80.418 9.924 80.554 9.86L80.71 10.796C80.574 10.868 80.334 10.944 79.99 11.024C79.654 11.104 79.27 11.144 78.838 11.144C78.294 11.144 77.822 11.064 77.422 10.904C77.03 10.736 76.706 10.508 76.45 10.22C76.194 9.932 76.002 9.592 75.874 9.2C75.754 8.8 75.694 8.364 75.694 7.892ZM79.978 7.28C79.986 6.776 79.858 6.364 79.594 6.044C79.338 5.716 78.982 5.552 78.526 5.552C78.27 5.552 78.042 5.604 77.842 5.708C77.65 5.804 77.486 5.932 77.35 6.092C77.214 6.252 77.106 6.436 77.026 6.644C76.954 6.852 76.906 7.064 76.882 7.28H79.978ZM85.0492 4.628C85.1452 4.628 85.2532 4.636 85.3732 4.652C85.5012 4.66 85.6252 4.676 85.7452 4.7C85.8652 4.716 85.9732 4.736 86.0692 4.76C86.1732 4.776 86.2492 4.792 86.2972 4.808L86.1052 5.78C86.0172 5.748 85.8692 5.712 85.6612 5.672C85.4612 5.624 85.2012 5.6 84.8812 5.6C84.6732 5.6 84.4652 5.624 84.2572 5.672C84.0572 5.712 83.9252 5.74 83.8612 5.756V11H82.7452V5.024C83.0092 4.928 83.3372 4.84 83.7292 4.76C84.1212 4.672 84.5612 4.628 85.0492 4.628ZM87.3741 11V1.88L88.4901 1.688V4.88C88.6981 4.8 88.9181 4.74 89.1501 4.7C89.3901 4.652 89.6261 4.628 89.8581 4.628C90.3541 4.628 90.7661 4.7 91.0941 4.844C91.4221 4.98 91.6821 5.176 91.8741 5.432C92.0741 5.68 92.2141 5.98 92.2941 6.332C92.3741 6.684 92.4141 7.072 92.4141 7.496V11H91.2981V7.736C91.2981 7.352 91.2701 7.024 91.2141 6.752C91.1661 6.48 91.0821 6.26 90.9621 6.092C90.8421 5.924 90.6821 5.804 90.4821 5.732C90.2821 5.652 90.0341 5.612 89.7381 5.612C89.6181 5.612 89.4941 5.62 89.3661 5.636C89.2381 5.652 89.1141 5.672 88.9941 5.696C88.8821 5.712 88.7781 5.732 88.6821 5.756C88.5941 5.78 88.5301 5.8 88.4901 5.816V11H87.3741ZM93.8815 7.892C93.8815 7.34 93.9615 6.86 94.1215 6.452C94.2815 6.036 94.4935 5.692 94.7575 5.42C95.0215 5.148 95.3255 4.944 95.6695 4.808C96.0135 4.672 96.3655 4.604 96.7255 4.604C97.5655 4.604 98.2095 4.868 98.6575 5.396C99.1055 5.916 99.3295 6.712 99.3295 7.784C99.3295 7.832 99.3295 7.896 99.3295 7.976C99.3295 8.048 99.3255 8.116 99.3175 8.18H95.0455C95.0935 8.828 95.2815 9.32 95.6095 9.656C95.9375 9.992 96.4495 10.16 97.1455 10.16C97.5375 10.16 97.8655 10.128 98.1295 10.064C98.4015 9.992 98.6055 9.924 98.7415 9.86L98.8975 10.796C98.7615 10.868 98.5215 10.944 98.1775 11.024C97.8415 11.104 97.4575 11.144 97.0255 11.144C96.4815 11.144 96.0095 11.064 95.6095 10.904C95.2175 10.736 94.8935 10.508 94.6375 10.22C94.3815 9.932 94.1895 9.592 94.0615 9.2C93.9415 8.8 93.8815 8.364 93.8815 7.892ZM98.1655 7.28C98.1735 6.776 98.0455 6.364 97.7815 6.044C97.5255 5.716 97.1695 5.552 96.7135 5.552C96.4575 5.552 96.2295 5.604 96.0295 5.708C95.8375 5.804 95.6735 5.932 95.5375 6.092C95.4015 6.252 95.2935 6.436 95.2135 6.644C95.1415 6.852 95.0935 7.064 95.0695 7.28H98.1655ZM103.045 10.196C103.309 10.196 103.541 10.192 103.741 10.184C103.949 10.168 104.121 10.144 104.257 10.112V8.252C104.177 8.212 104.045 8.18 103.861 8.156C103.685 8.124 103.469 8.108 103.213 8.108C103.045 8.108 102.865 8.12 102.673 8.144C102.489 8.168 102.317 8.22 102.157 8.3C102.005 8.372 101.877 8.476 101.773 8.612C101.669 8.74 101.617 8.912 101.617 9.128C101.617 9.528 101.745 9.808 102.001 9.968C102.257 10.12 102.605 10.196 103.045 10.196ZM102.949 4.604C103.397 4.604 103.773 4.664 104.077 4.784C104.389 4.896 104.637 5.06 104.821 5.276C105.013 5.484 105.149 5.736 105.229 6.032C105.309 6.32 105.349 6.64 105.349 6.992V10.892C105.253 10.908 105.117 10.932 104.941 10.964C104.773 10.988 104.581 11.012 104.365 11.036C104.149 11.06 103.913 11.08 103.657 11.096C103.409 11.12 103.161 11.132 102.913 11.132C102.561 11.132 102.237 11.096 101.941 11.024C101.645 10.952 101.389 10.84 101.173 10.688C100.957 10.528 100.789 10.32 100.669 10.064C100.549 9.808 100.489 9.5 100.489 9.14C100.489 8.796 100.557 8.5 100.693 8.252C100.837 8.004 101.029 7.804 101.269 7.652C101.509 7.5 101.789 7.388 102.109 7.316C102.429 7.244 102.765 7.208 103.117 7.208C103.229 7.208 103.345 7.216 103.465 7.232C103.585 7.24 103.697 7.256 103.801 7.28C103.913 7.296 104.009 7.312 104.089 7.328C104.169 7.344 104.225 7.356 104.257 7.364V7.052C104.257 6.868 104.237 6.688 104.197 6.512C104.157 6.328 104.085 6.168 103.981 6.032C103.877 5.888 103.733 5.776 103.549 5.696C103.373 5.608 103.141 5.564 102.853 5.564C102.485 5.564 102.161 5.592 101.881 5.648C101.609 5.696 101.405 5.748 101.269 5.804L101.137 4.88C101.281 4.816 101.521 4.756 101.857 4.7C102.193 4.636 102.557 4.604 102.949 4.604ZM111.234 6.08C111.098 5.968 110.902 5.86 110.646 5.756C110.39 5.652 110.11 5.6 109.806 5.6C109.486 5.6 109.21 5.66 108.978 5.78C108.754 5.892 108.57 6.052 108.426 6.26C108.282 6.46 108.178 6.7 108.114 6.98C108.05 7.26 108.018 7.56 108.018 7.88C108.018 8.608 108.198 9.172 108.558 9.572C108.918 9.964 109.398 10.16 109.998 10.16C110.302 10.16 110.554 10.148 110.754 10.124C110.962 10.092 111.122 10.06 111.234 10.028V6.08ZM111.234 1.88L112.35 1.688V10.82C112.094 10.892 111.766 10.964 111.366 11.036C110.966 11.108 110.506 11.144 109.986 11.144C109.506 11.144 109.074 11.068 108.69 10.916C108.306 10.764 107.978 10.548 107.706 10.268C107.434 9.988 107.222 9.648 107.07 9.248C106.926 8.84 106.854 8.384 106.854 7.88C106.854 7.4 106.914 6.96 107.034 6.56C107.162 6.16 107.346 5.816 107.586 5.528C107.826 5.24 108.118 5.016 108.462 4.856C108.814 4.696 109.214 4.616 109.662 4.616C110.022 4.616 110.338 4.664 110.61 4.76C110.89 4.856 111.098 4.948 111.234 5.036V1.88ZM115.721 10.196C116.177 10.196 116.513 10.136 116.729 10.016C116.953 9.896 117.065 9.704 117.065 9.44C117.065 9.168 116.957 8.952 116.741 8.792C116.525 8.632 116.169 8.452 115.673 8.252C115.433 8.156 115.201 8.06 114.977 7.964C114.761 7.86 114.573 7.74 114.413 7.604C114.253 7.468 114.125 7.304 114.029 7.112C113.933 6.92 113.885 6.684 113.885 6.404C113.885 5.852 114.089 5.416 114.497 5.096C114.905 4.768 115.461 4.604 116.165 4.604C116.341 4.604 116.517 4.616 116.693 4.64C116.869 4.656 117.033 4.68 117.185 4.712C117.337 4.736 117.469 4.764 117.581 4.796C117.701 4.828 117.793 4.856 117.857 4.88L117.653 5.84C117.533 5.776 117.345 5.712 117.089 5.648C116.833 5.576 116.525 5.54 116.165 5.54C115.853 5.54 115.581 5.604 115.349 5.732C115.117 5.852 115.001 6.044 115.001 6.308C115.001 6.444 115.025 6.564 115.073 6.668C115.129 6.772 115.209 6.868 115.313 6.956C115.425 7.036 115.561 7.112 115.721 7.184C115.881 7.256 116.073 7.332 116.297 7.412C116.593 7.524 116.857 7.636 117.089 7.748C117.321 7.852 117.517 7.976 117.677 8.12C117.845 8.264 117.973 8.44 118.061 8.648C118.149 8.848 118.193 9.096 118.193 9.392C118.193 9.968 117.977 10.404 117.545 10.7C117.121 10.996 116.513 11.144 115.721 11.144C115.169 11.144 114.737 11.096 114.425 11C114.113 10.912 113.901 10.844 113.789 10.796L113.993 9.836C114.121 9.884 114.325 9.956 114.605 10.052C114.885 10.148 115.257 10.196 115.721 10.196Z"
              transform="translate(49.835 69.1509)" fill="#565561"/>
        <path d="M56.0048 7.118C56.7008 6.842 57.3968 6.488 58.0928 6.056C58.8008 5.624 59.4248 5.114 59.9648 4.526H61.4948V17H59.3168V7.442C58.9928 7.694 58.5848 7.94 58.0928 8.18C57.6008 8.42 57.1268 8.618 56.6708 8.774L56.0048 7.118ZM71.5092 13.436C71.5092 13.04 71.4312 12.686 71.2752 12.374C71.1192 12.062 70.8432 11.798 70.4472 11.582C70.0632 11.366 69.5412 11.204 68.8812 11.096C68.2332 10.988 67.4112 10.934 66.4152 10.934C66.5472 9.782 66.6492 8.69 66.7212 7.658C66.7932 6.614 66.8532 5.57 66.9012 4.526H73.2732V6.362H68.7552C68.7432 6.566 68.7252 6.8 68.7012 7.064C68.6892 7.316 68.6712 7.574 68.6472 7.838C68.6352 8.102 68.6172 8.354 68.5932 8.594C68.5692 8.834 68.5452 9.038 68.5212 9.206C70.2972 9.302 71.6052 9.71 72.4452 10.43C73.2972 11.138 73.7232 12.11 73.7232 13.346C73.7232 13.91 73.6272 14.432 73.4352 14.912C73.2432 15.392 72.9492 15.806 72.5532 16.154C72.1572 16.502 71.6592 16.778 71.0592 16.982C70.4592 17.174 69.7572 17.27 68.9532 17.27C68.6292 17.27 68.2992 17.246 67.9632 17.198C67.6272 17.15 67.3032 17.09 66.9912 17.018C66.6912 16.958 66.4212 16.892 66.1812 16.82C65.9412 16.748 65.7612 16.682 65.6412 16.622L66.0552 14.786C66.3072 14.906 66.6672 15.038 67.1352 15.182C67.6152 15.314 68.1972 15.38 68.8812 15.38C69.3492 15.38 69.7512 15.332 70.0872 15.236C70.4232 15.128 70.6932 14.984 70.8972 14.804C71.1132 14.624 71.2692 14.42 71.3652 14.192C71.4612 13.952 71.5092 13.7 71.5092 13.436ZM81.7397 7.658C81.7397 8.75 81.4577 9.59 80.8937 10.178C80.3417 10.766 79.6157 11.06 78.7157 11.06C78.2717 11.06 77.8637 10.988 77.4917 10.844C77.1197 10.688 76.8017 10.466 76.5377 10.178C76.2737 9.89 76.0637 9.536 75.9077 9.116C75.7637 8.684 75.6917 8.198 75.6917 7.658C75.6917 6.554 75.9677 5.714 76.5197 5.138C77.0837 4.55 77.8157 4.256 78.7157 4.256C79.6157 4.256 80.3417 4.55 80.8937 5.138C81.4577 5.714 81.7397 6.554 81.7397 7.658ZM80.0297 7.658C80.0297 7.022 79.9097 6.548 79.6697 6.236C79.4417 5.912 79.1237 5.75 78.7157 5.75C78.3077 5.75 77.9897 5.912 77.7617 6.236C77.5337 6.548 77.4197 7.022 77.4197 7.658C77.4197 8.294 77.5337 8.774 77.7617 9.098C77.9897 9.41 78.3077 9.566 78.7157 9.566C79.1237 9.566 79.4417 9.41 79.6697 9.098C79.9097 8.774 80.0297 8.294 80.0297 7.658ZM85.3937 4.526H87.4637L80.4257 17H78.3557L85.3937 4.526ZM90.1457 13.886C90.1457 14.978 89.8637 15.818 89.2997 16.406C88.7477 16.994 88.0217 17.288 87.1217 17.288C86.6777 17.288 86.2697 17.21 85.8977 17.054C85.5257 16.91 85.2077 16.694 84.9437 16.406C84.6797 16.118 84.4697 15.764 84.3137 15.344C84.1697 14.912 84.0977 14.426 84.0977 13.886C84.0977 12.782 84.3737 11.942 84.9257 11.366C85.4897 10.778 86.2217 10.484 87.1217 10.484C88.0217 10.484 88.7477 10.778 89.2997 11.366C89.8637 11.942 90.1457 12.782 90.1457 13.886ZM88.4357 13.886C88.4357 13.25 88.3157 12.776 88.0757 12.464C87.8477 12.14 87.5297 11.978 87.1217 11.978C86.7137 11.978 86.3957 12.14 86.1677 12.464C85.9397 12.776 85.8257 13.25 85.8257 13.886C85.8257 14.522 85.9397 15.002 86.1677 15.326C86.3957 15.638 86.7137 15.794 87.1217 15.794C87.5297 15.794 87.8477 15.638 88.0757 15.326C88.3157 15.002 88.4357 14.522 88.4357 13.886Z"
              transform="translate(78.5 46.1572)" fill="#565561"/>
        <line y1="-0.5" x2="17.6357" y2="-0.5" transform="translate(193.089 58.365) scale(-1 1)" stroke="#29446A"/>
        <g class="b-chart-piece" mask="url(#mask3)">
            <path d="M137.971 0L146.296 159.799L0 75.8934L137.971 0Z" transform="translate(147.204 19.6226)"
                  fill="#29446A"/>
        </g>
    </g>
    <g class="b-chart-part">
        <path d="M8.658 7.766C8.658 8.198 8.568 8.624 8.388 9.044C8.208 9.452 7.974 9.854 7.686 10.25C7.41 10.634 7.092 11.012 6.732 11.384C6.372 11.744 6.012 12.098 5.652 12.446C5.46 12.626 5.244 12.842 5.004 13.094C4.764 13.346 4.536 13.598 4.32 13.85C4.104 14.102 3.918 14.348 3.762 14.588C3.606 14.816 3.522 15.008 3.51 15.164H9.054V17H1.116C1.104 16.904 1.098 16.79 1.098 16.658C1.098 16.514 1.098 16.406 1.098 16.334C1.098 15.758 1.188 15.23 1.368 14.75C1.56 14.258 1.806 13.802 2.106 13.382C2.406 12.962 2.742 12.566 3.114 12.194C3.486 11.822 3.858 11.456 4.23 11.096C4.518 10.82 4.794 10.55 5.058 10.286C5.322 10.022 5.55 9.764 5.742 9.512C5.946 9.248 6.108 8.984 6.228 8.72C6.348 8.444 6.408 8.162 6.408 7.874C6.408 7.25 6.228 6.806 5.868 6.542C5.508 6.278 5.07 6.146 4.554 6.146C4.218 6.146 3.906 6.194 3.618 6.29C3.33 6.386 3.072 6.5 2.844 6.632C2.628 6.764 2.436 6.902 2.268 7.046C2.1 7.178 1.974 7.286 1.89 7.37L0.81 5.84C1.314 5.36 1.902 4.976 2.574 4.688C3.258 4.388 3.99 4.238 4.77 4.238C6.102 4.238 7.08 4.556 7.704 5.192C8.34 5.816 8.658 6.674 8.658 7.766ZM17.1245 7.658C17.1245 8.75 16.8425 9.59 16.2785 10.178C15.7265 10.766 15.0005 11.06 14.1005 11.06C13.6565 11.06 13.2485 10.988 12.8765 10.844C12.5045 10.688 12.1865 10.466 11.9225 10.178C11.6585 9.89 11.4485 9.536 11.2925 9.116C11.1485 8.684 11.0765 8.198 11.0765 7.658C11.0765 6.554 11.3525 5.714 11.9045 5.138C12.4685 4.55 13.2005 4.256 14.1005 4.256C15.0005 4.256 15.7265 4.55 16.2785 5.138C16.8425 5.714 17.1245 6.554 17.1245 7.658ZM15.4145 7.658C15.4145 7.022 15.2945 6.548 15.0545 6.236C14.8265 5.912 14.5085 5.75 14.1005 5.75C13.6925 5.75 13.3745 5.912 13.1465 6.236C12.9185 6.548 12.8045 7.022 12.8045 7.658C12.8045 8.294 12.9185 8.774 13.1465 9.098C13.3745 9.41 13.6925 9.566 14.1005 9.566C14.5085 9.566 14.8265 9.41 15.0545 9.098C15.2945 8.774 15.4145 8.294 15.4145 7.658ZM20.7785 4.526H22.8485L15.8105 17H13.7405L20.7785 4.526ZM25.5305 13.886C25.5305 14.978 25.2485 15.818 24.6845 16.406C24.1325 16.994 23.4065 17.288 22.5065 17.288C22.0625 17.288 21.6545 17.21 21.2825 17.054C20.9105 16.91 20.5925 16.694 20.3285 16.406C20.0645 16.118 19.8545 15.764 19.6985 15.344C19.5545 14.912 19.4825 14.426 19.4825 13.886C19.4825 12.782 19.7585 11.942 20.3105 11.366C20.8745 10.778 21.6065 10.484 22.5065 10.484C23.4065 10.484 24.1325 10.778 24.6845 11.366C25.2485 11.942 25.5305 12.782 25.5305 13.886ZM23.8205 13.886C23.8205 13.25 23.7005 12.776 23.4605 12.464C23.2325 12.14 22.9145 11.978 22.5065 11.978C22.0985 11.978 21.7805 12.14 21.5525 12.464C21.3245 12.776 21.2105 13.25 21.2105 13.886C21.2105 14.522 21.3245 15.002 21.5525 15.326C21.7805 15.638 22.0985 15.794 22.5065 15.794C22.9145 15.794 23.2325 15.638 23.4605 15.326C23.7005 15.002 23.8205 14.522 23.8205 13.886Z"
              transform="translate(310.19 0.622559)" fill="#565561"/>
        <path d="M2.964 10.172C4.18 10.172 4.788 9.756 4.788 8.924C4.788 8.668 4.732 8.452 4.62 8.276C4.516 8.092 4.372 7.936 4.188 7.808C4.004 7.672 3.792 7.556 3.552 7.46C3.32 7.364 3.072 7.268 2.808 7.172C2.504 7.068 2.216 6.952 1.944 6.824C1.672 6.688 1.436 6.532 1.236 6.356C1.036 6.172 0.876 5.956 0.756 5.708C0.644 5.46 0.588 5.16 0.588 4.808C0.588 4.08 0.836 3.512 1.332 3.104C1.828 2.696 2.512 2.492 3.384 2.492C3.888 2.492 4.344 2.548 4.752 2.66C5.168 2.764 5.472 2.88 5.664 3.008L5.292 3.956C5.124 3.852 4.872 3.752 4.536 3.656C4.208 3.552 3.824 3.5 3.384 3.5C3.16 3.5 2.952 3.524 2.76 3.572C2.568 3.62 2.4 3.692 2.256 3.788C2.112 3.884 1.996 4.008 1.908 4.16C1.828 4.304 1.788 4.476 1.788 4.676C1.788 4.9 1.832 5.088 1.92 5.24C2.008 5.392 2.132 5.528 2.292 5.648C2.452 5.76 2.636 5.864 2.844 5.96C3.06 6.056 3.296 6.152 3.552 6.248C3.912 6.392 4.24 6.536 4.536 6.68C4.84 6.824 5.1 6.996 5.316 7.196C5.54 7.396 5.712 7.636 5.832 7.916C5.952 8.188 6.012 8.52 6.012 8.912C6.012 9.64 5.744 10.2 5.208 10.592C4.68 10.984 3.932 11.18 2.964 11.18C2.636 11.18 2.332 11.156 2.052 11.108C1.78 11.068 1.536 11.02 1.32 10.964C1.104 10.9 0.916 10.836 0.756 10.772C0.604 10.7 0.484 10.64 0.396 10.592L0.744 9.632C0.928 9.736 1.208 9.852 1.584 9.98C1.96 10.108 2.42 10.172 2.964 10.172ZM12.3147 10.82C12.0587 10.884 11.7187 10.952 11.2947 11.024C10.8787 11.096 10.3947 11.132 9.84272 11.132C9.36272 11.132 8.95872 11.064 8.63072 10.928C8.30272 10.784 8.03872 10.584 7.83872 10.328C7.63872 10.072 7.49472 9.772 7.40672 9.428C7.31872 9.076 7.27472 8.688 7.27472 8.264V4.76H8.39072V8.024C8.39072 8.784 8.51072 9.328 8.75072 9.656C8.99072 9.984 9.39472 10.148 9.96272 10.148C10.0827 10.148 10.2067 10.144 10.3347 10.136C10.4627 10.128 10.5827 10.12 10.6947 10.112C10.8067 10.096 10.9067 10.084 10.9947 10.076C11.0907 10.06 11.1587 10.044 11.1987 10.028V4.76H12.3147V10.82ZM18.5693 7.892C18.5693 7.164 18.3893 6.604 18.0293 6.212C17.6693 5.82 17.1893 5.624 16.5893 5.624C16.2533 5.624 15.9893 5.636 15.7973 5.66C15.6133 5.684 15.4653 5.712 15.3533 5.744V9.68C15.4893 9.792 15.6853 9.9 15.9413 10.004C16.1973 10.108 16.4773 10.16 16.7813 10.16C17.1013 10.16 17.3733 10.104 17.5973 9.992C17.8293 9.872 18.0173 9.712 18.1613 9.512C18.3053 9.304 18.4093 9.064 18.4733 8.792C18.5373 8.512 18.5693 8.212 18.5693 7.892ZM19.7333 7.892C19.7333 8.364 19.6693 8.8 19.5413 9.2C19.4213 9.6 19.2413 9.944 19.0013 10.232C18.7613 10.52 18.4653 10.744 18.1133 10.904C17.7693 11.064 17.3733 11.144 16.9253 11.144C16.5653 11.144 16.2453 11.096 15.9653 11C15.6933 10.904 15.4893 10.812 15.3533 10.724V13.22H14.2373V4.952C14.5013 4.888 14.8293 4.82 15.2213 4.748C15.6213 4.668 16.0813 4.628 16.6013 4.628C17.0813 4.628 17.5133 4.704 17.8973 4.856C18.2813 5.008 18.6093 5.224 18.8813 5.504C19.1533 5.784 19.3613 6.128 19.5053 6.536C19.6573 6.936 19.7333 7.388 19.7333 7.892ZM25.6358 7.892C25.6358 7.164 25.4558 6.604 25.0957 6.212C24.7358 5.82 24.2558 5.624 23.6557 5.624C23.3197 5.624 23.0557 5.636 22.8637 5.66C22.6798 5.684 22.5318 5.712 22.4197 5.744V9.68C22.5557 9.792 22.7517 9.9 23.0078 10.004C23.2638 10.108 23.5438 10.16 23.8477 10.16C24.1677 10.16 24.4397 10.104 24.6638 9.992C24.8958 9.872 25.0838 9.712 25.2278 9.512C25.3718 9.304 25.4758 9.064 25.5397 8.792C25.6038 8.512 25.6358 8.212 25.6358 7.892ZM26.7997 7.892C26.7997 8.364 26.7357 8.8 26.6078 9.2C26.4878 9.6 26.3078 9.944 26.0677 10.232C25.8277 10.52 25.5317 10.744 25.1797 10.904C24.8358 11.064 24.4398 11.144 23.9917 11.144C23.6317 11.144 23.3118 11.096 23.0318 11C22.7598 10.904 22.5557 10.812 22.4197 10.724V13.22H21.3037V4.952C21.5677 4.888 21.8957 4.82 22.2878 4.748C22.6877 4.668 23.1478 4.628 23.6678 4.628C24.1478 4.628 24.5798 4.704 24.9637 4.856C25.3477 5.008 25.6758 5.224 25.9478 5.504C26.2197 5.784 26.4277 6.128 26.5717 6.536C26.7237 6.936 26.7997 7.388 26.7997 7.892ZM33.8782 7.88C33.8782 8.376 33.8062 8.824 33.6622 9.224C33.5182 9.624 33.3142 9.968 33.0502 10.256C32.7942 10.544 32.4862 10.768 32.1262 10.928C31.7662 11.08 31.3742 11.156 30.9502 11.156C30.5262 11.156 30.1342 11.08 29.7742 10.928C29.4142 10.768 29.1022 10.544 28.8382 10.256C28.5822 9.968 28.3822 9.624 28.2382 9.224C28.0942 8.824 28.0222 8.376 28.0222 7.88C28.0222 7.392 28.0942 6.948 28.2382 6.548C28.3822 6.14 28.5822 5.792 28.8382 5.504C29.1022 5.216 29.4142 4.996 29.7742 4.844C30.1342 4.684 30.5262 4.604 30.9502 4.604C31.3742 4.604 31.7662 4.684 32.1262 4.844C32.4862 4.996 32.7942 5.216 33.0502 5.504C33.3142 5.792 33.5182 6.14 33.6622 6.548C33.8062 6.948 33.8782 7.392 33.8782 7.88ZM32.7142 7.88C32.7142 7.176 32.5542 6.62 32.2342 6.212C31.9222 5.796 31.4942 5.588 30.9502 5.588C30.4062 5.588 29.9742 5.796 29.6542 6.212C29.3422 6.62 29.1862 7.176 29.1862 7.88C29.1862 8.584 29.3422 9.144 29.6542 9.56C29.9742 9.968 30.4062 10.172 30.9502 10.172C31.4942 10.172 31.9222 9.968 32.2342 9.56C32.5542 9.144 32.7142 8.584 32.7142 7.88ZM37.7523 4.628C37.8483 4.628 37.9563 4.636 38.0763 4.652C38.2043 4.66 38.3283 4.676 38.4483 4.7C38.5683 4.716 38.6763 4.736 38.7723 4.76C38.8763 4.776 38.9523 4.792 39.0003 4.808L38.8083 5.78C38.7203 5.748 38.5723 5.712 38.3643 5.672C38.1643 5.624 37.9043 5.6 37.5843 5.6C37.3763 5.6 37.1683 5.624 36.9603 5.672C36.7603 5.712 36.6283 5.74 36.5643 5.756V11H35.4483V5.024C35.7123 4.928 36.0403 4.84 36.4323 4.76C36.8243 4.672 37.2643 4.628 37.7523 4.628ZM41.1212 4.76H43.4852V5.696H41.1212V8.576C41.1212 8.888 41.1452 9.148 41.1932 9.356C41.2412 9.556 41.3132 9.716 41.4092 9.836C41.5052 9.948 41.6252 10.028 41.7692 10.076C41.9132 10.124 42.0812 10.148 42.2732 10.148C42.6092 10.148 42.8772 10.112 43.0772 10.04C43.2852 9.96 43.4292 9.904 43.5092 9.872L43.7252 10.796C43.6132 10.852 43.4172 10.92 43.1372 11C42.8572 11.088 42.5372 11.132 42.1772 11.132C41.7532 11.132 41.4012 11.08 41.1212 10.976C40.8492 10.864 40.6292 10.7 40.4612 10.484C40.2932 10.268 40.1732 10.004 40.1012 9.692C40.0372 9.372 40.0052 9.004 40.0052 8.588V3.02L41.1212 2.828V4.76Z"
              transform="translate(310.19 24.6226)" fill="#565561"/>
        <line y1="-0.5" x2="17.6357" y2="-0.5" transform="translate(306.82 12.4521) scale(-1 1)" stroke="#92B4E4"/>
        <line y1="-0.5" x2="41.0403" y2="-0.5" transform="translate(290.512 53.4897) rotate(-90.6452)"
              stroke="#92B4E4"/>
        <g class="b-chart-piece" mask="url(#mask4)">
            <path d="M9.99087 0V202L-8.62436e-05 10.6803L9.99087 0Z" transform="translate(283.7 -22.5786)"
                  fill="#92B4E4"/>
        </g>
    </g>
    <circle cx="80.2023" cy="80.2023" r="80.2023" transform="translate(213.575 98.219)" fill="#F2F2F2"/>
    <circle cx="67.5" cy="67.5" r="67.5" transform="translate(226.5 111.421)" fill="white"/>
    <mask id="mask0" mask-type="alpha" maskUnits="userSpaceOnUse" x="169" y="53" width="250" height="250">
        <circle cx="124.639" cy="124.639" r="124.639" transform="translate(169.5 53.4214)" fill="#C4C4C4"/>
    </mask>
    <mask id="mask1" mask-type="alpha" maskUnits="userSpaceOnUse" x="169" y="53" width="250" height="250">
        <circle cx="124.639" cy="124.639" r="124.639" transform="translate(169.5 53.4214)" fill="#C4C4C4"/>
    </mask>
    <mask id="mask2" mask-type="alpha" maskUnits="userSpaceOnUse" x="170" y="53" width="250" height="250">
        <circle cx="124.639" cy="124.639" r="124.639" transform="translate(170.223 53.144)" fill="#C4C4C4"/>
    </mask>
    <mask id="mask3" mask-type="alpha" maskUnits="userSpaceOnUse" x="170" y="53" width="250" height="250">
        <circle cx="124.639" cy="124.639" r="124.639" transform="translate(170.223 53.4214)" fill="#C4C4C4"/>
    </mask>
    <mask id="mask4" mask-type="alpha" maskUnits="userSpaceOnUse" x="170" y="53" width="250" height="250">
        <circle cx="124.639" cy="124.639" r="124.639" transform="translate(170.223 53.4214)" fill="#C4C4C4"/>
    </mask>
</svg>