<svg width="133" height="105" viewBox="0 0 133 79" fill="none" xmlns="http://www.w3.org/2000/svg"><g class="ellipse-anim" transform="translate(52 -15)"><ellipse class="ellipse-item-2" cx="5.872" cy="5.884" rx="5.872" ry="5.884" transform="translate(49.03 .2)" fill="#fff" style="transform:translateX(32.1px) translateY(13.8px)"/></g><g class="ellipse-anim" transform="translate(39 -14)"><ellipse class="ellipse-item-1" cx="5.872" cy="5.884" rx="5.872" ry="5.884" transform="translate(83.38 .2)" fill="#5BC99C" style="transform:translateX(10.5px) translateY(13.9px)"/></g><ellipse cx="5.872" cy="5.884" rx="5.872" ry="5.884" transform="translate(83.38 20.5)" fill="#fff"/><ellipse cx="5.872" cy="5.884" rx="5.872" ry="5.884" transform="translate(60.48 20.5)" fill="#5BC99C"/><ellipse cx="5.872" cy="5.884" rx="5.872" ry="5.884" transform="translate(37.58 20.5)" fill="#5BC99C"/><path d="M11.447 71.433v-9.629c0-3.551-2.217-4.883-5.611-4.883-1.88 0-3.788.527-4.938 1.054l.617 1.637c.982-.471 2.721-.915 4.124-.915 2.104 0 3.591.693 3.591 2.913v1.138c-4.573.25-9.23.888-9.23 5.16 0 2.83 2.076 4.579 6.228 4.579 1.992 0 4.153-.472 5.219-1.054zM9.23 70.267c-.533.25-1.907.472-3.058.472-2.637 0-3.956-1.138-3.956-2.886 0-3.107 3.648-3.302 7.014-3.496v5.91zm12.466-17.48c0-.777-.673-1.443-1.487-1.443-.813 0-1.487.666-1.487 1.443s.674 1.415 1.487 1.415c.814 0 1.487-.638 1.487-1.415zm-.308 19.395V57.226h-2.33v14.956h2.33zm14.176-.084v-1.942c-.225.083-.618.139-.982.139-1.235 0-2.273-.583-2.273-2.109v-9.212h3.255v-1.748h-3.255V52.87l-2.272.749v3.607h-2.189v1.748h2.189v9.323c0 2.72 1.515 4.051 3.984 4.051.645 0 1.234-.11 1.543-.25zm13.514-15.066a11.145 11.145 0 0 0-1.487-.111c-2.077 0-4.153.444-5.527 1.054v14.207h2.356V59.335c.702-.305 1.824-.472 2.862-.472.477 0 .954.028 1.347.111l.449-1.942zm16.659 14.401v-9.629c0-3.551-2.216-4.883-5.611-4.883-1.88 0-3.788.527-4.938 1.054l.617 1.637c.982-.471 2.722-.915 4.124-.915 2.105 0 3.592.693 3.592 2.913v1.138c-4.573.25-9.23.888-9.23 5.16 0 2.83 2.075 4.579 6.228 4.579 1.992 0 4.152-.472 5.218-1.054zm-2.216-1.166c-.533.25-1.908.472-3.058.472-2.638 0-3.956-1.138-3.956-2.886 0-3.107 3.647-3.302 7.014-3.496v5.91zm21.163 1.166V50.4h-2.329v7.076c-.561-.194-1.683-.389-2.721-.389-4.517 0-6.986 3.219-6.986 7.797 0 4.634 2.58 7.603 7.182 7.603 1.992 0 3.956-.527 4.854-1.054zm-2.329-1.305c-.42.222-1.599.472-2.553.472-3.114 0-4.826-2.247-4.826-5.716 0-3.44 1.656-5.965 4.826-5.965.926 0 2.104.166 2.553.36v10.85zm12.56-17.341c0-.777-.673-1.443-1.487-1.443-.813 0-1.486.666-1.486 1.443s.673 1.415 1.486 1.415c.814 0 1.487-.638 1.487-1.415zm-.308 19.395V57.226h-2.329v14.956h2.329zm19.17 0V61.888c0-3.136-2.048-4.967-6.032-4.967-2.217 0-4.096.444-5.555 1.054v14.207h2.356V59.335c.73-.278 1.908-.527 3.227-.527 2.441 0 3.675 1.276 3.675 3.274v10.1h2.329zm18.926.055V57.975c-1.15-.61-2.918-1.054-4.769-1.054-4.181 0-7.267 2.33-7.267 7.575 0 4.55 2.694 7.13 6.481 7.13 1.178 0 2.441-.277 3.255-.665v1.276c0 2.692-1.375 4.218-4.097 4.218-1.571 0-3.198-.472-4.152-.971l-.729 1.83c1.15.583 3.058 1.11 5.05 1.11 3.928 0 6.228-2.247 6.228-6.187zm-2.3-3.024c-.674.36-1.88.582-2.89.582-2.637 0-4.517-1.803-4.517-5.383 0-4.05 2.132-5.632 4.797-5.632 1.066 0 2.076.222 2.61.472v9.96z" fill="#fff"/><path class="ellipse-path-1" d="M10.5 13.9c-1.3-.5-.6-7.5 1.9-8.1s4.8 3 8.9 7.8 4.2 5.3 5.5 5.1 3.5-2.5 4-4.6C32 8.9 27.1 2 22.6 1.9c-6.2-.2-10.3 12.8-12.1 12z"/><path class="ellipse-path-2" d="M32.1 13.8c0 2.9-5.2 5.3-8.9 5.9s-10.3-.8-12.7-5.7c-1.4-2.9-1.7-6.4.6-8.4s7.3-.4 12.1 1.6 9 3.7 8.9 6.6z"/></svg>