<svg width="17" height="22" fill="none" xmlns="http://www.w3.org/2000/svg"><path d="M16.504 5.962L10.807.292a.522.522 0 0 0-.376-.16H2.686A2.685 2.685 0 0 0 0 2.818v15.593a2.685 2.685 0 0 0 2.686 2.686h11.29a2.685 2.685 0 0 0 2.687-2.686V6.338a.534.534 0 0 0-.16-.376zm-5.481-.458V2.015l3.787 3.757h-3.52a.239.239 0 0 1-.267-.211v-.057zm4.57 12.907c0 .89-.72 1.61-1.611 1.61H2.686c-.89 0-1.61-.72-1.61-1.61V2.818c0-.89.72-1.61 1.61-1.61h7.261V5.51c0 .74.603 1.343 1.344 1.343h4.302V18.41z" fill="#fff"/><path d="M9.323 8.123a.44.44 0 0 1 .007.084v5.798l.054-.105a.98.98 0 0 1 .216-.275l1.492-1.345a.604.604 0 0 1 .714-.07.456.456 0 0 1 .07.73L9.18 15.371a.582.582 0 0 1-.763 0L5.718 12.94a.454.454 0 0 1 0-.688.528.528 0 0 1 .054-.042.604.604 0 0 1 .715.071l1.494 1.343c.08.071.146.153.197.243l.073.146V8.234c-.01-.248.182-.466.453-.513.294-.043.571.137.619.402z" fill="#5BC99C"/></svg>