<svg width="116" height="20" fill="none" xmlns="http://www.w3.org/2000/svg"><ellipse cx="3.487" cy="3.5" rx="3.487" ry="3.5" transform="translate(27.201 12.075)" fill="#4D5DCC"/><ellipse cx="3.487" cy="3.5" rx="3.487" ry="3.5" transform="translate(27.201)" fill="#4D5DCC"/><ellipse cx="3.487" cy="3.5" rx="3.487" ry="3.5" transform="translate(6.8)" fill="#76E2A2"/><ellipse cx="3.487" cy="3.5" rx="3.487" ry="3.5" transform="translate(13.6 12.075)" fill="#76E2A2"/><ellipse cx="3.487" cy="3.5" rx="3.487" ry="3.5" transform="translate(0 12.075)" fill="#76E2A2"/><path d="M52.697 14.828v-5.1c0-1.882-1.157-2.588-2.93-2.588-.981 0-1.977.28-2.578.559l.323.867c.512-.25 1.42-.485 2.153-.485 1.098 0 1.875.367 1.875 1.543v.603c-2.388.132-4.82.47-4.82 2.734 0 1.5 1.085 2.426 3.252 2.426 1.04 0 2.168-.25 2.725-.559zm-1.157-.617c-.279.132-.996.25-1.597.25-1.377 0-2.065-.603-2.065-1.53 0-1.646 1.904-1.749 3.662-1.851v3.13zm6.507-9.261a.78.78 0 0 0-.776-.765.78.78 0 0 0-.776.765c0 .411.351.75.776.75.425 0 .776-.339.776-.75zm-.16 10.275V7.302H56.67v7.923h1.215zm7.4-.045v-1.028a1.65 1.65 0 0 1-.513.073c-.644 0-1.186-.308-1.186-1.117v-4.88h1.699v-.926h-1.699V4.994l-1.186.397V7.3h-1.143v.927h1.143v4.939c0 1.44.79 2.146 2.08 2.146.336 0 .644-.059.805-.132zm7.055-7.981a5.778 5.778 0 0 0-.776-.059c-1.084 0-2.168.235-2.886.559v7.526h1.23V8.419c.367-.162.953-.25 1.495-.25.249 0 .498.015.703.059l.234-1.03zm8.698 7.629v-5.1c0-1.882-1.158-2.588-2.93-2.588-.981 0-1.977.28-2.578.559l.322.867c.513-.25 1.421-.485 2.153-.485 1.099 0 1.875.367 1.875 1.543v.603c-2.387.132-4.819.47-4.819 2.734 0 1.5 1.084 2.426 3.252 2.426 1.04 0 2.168-.25 2.724-.559zm-1.158-.617c-.278.132-.996.25-1.596.25-1.377 0-2.066-.603-2.066-1.53 0-1.646 1.905-1.749 3.662-1.851v3.13zm11.048.617V3.685h-1.215v3.749c-.293-.103-.879-.206-1.42-.206-2.359 0-3.648 1.705-3.648 4.13 0 2.456 1.348 4.029 3.75 4.029 1.04 0 2.065-.28 2.534-.559zm-1.215-.69c-.22.117-.835.25-1.333.25-1.626 0-2.52-1.192-2.52-3.03 0-1.822.865-3.16 2.52-3.16.483 0 1.099.089 1.333.191v5.748zm6.557-9.188a.78.78 0 0 0-.776-.765.78.78 0 0 0-.776.765c0 .411.351.75.776.75.425 0 .776-.339.776-.75zm-.161 10.275V7.302h-1.216v7.923h1.216zm10.008 0V9.771c0-1.66-1.07-2.631-3.15-2.631-1.156 0-2.138.235-2.9.559v7.526h1.231V8.419c.38-.147.996-.28 1.684-.28 1.275 0 1.92.677 1.92 1.735v5.351h1.215zm9.881.029V7.7c-.601-.324-1.524-.559-2.49-.559-2.183 0-3.794 1.235-3.794 4.013 0 2.41 1.406 3.778 3.384 3.778.615 0 1.274-.147 1.699-.353v.676c0 1.426-.718 2.235-2.139 2.235-.82 0-1.67-.25-2.168-.515l-.38.97c.6.31 1.596.588 2.636.588 2.05 0 3.252-1.19 3.252-3.278zm-1.201-1.602c-.352.191-.982.309-1.51.309-1.376 0-2.357-.956-2.357-2.852 0-2.146 1.113-2.984 2.504-2.984.557 0 1.084.117 1.362.25v5.277z" fill="#333"/></svg>