<svg width="10" height="12" fill="none" xmlns="http://www.w3.org/2000/svg"><path d="M8.253 1.37A4.837 4.837 0 0 0 4.697.002 4.882 4.882 0 0 0 .444 6.914c.495 1.167 1.572 2.963 3.9 4.896a.822.822 0 0 0 1.052 0c2.328-1.936 3.405-3.73 3.9-4.896a4.78 4.78 0 0 0 .358-1.122c.056-.3.085-.61.085-.916 0-1.335-.529-2.58-1.486-3.507zm.536 4.265c0 .008-.003.013-.003.02l-.022.1v.005a4 4 0 0 1-.273.805c-.453 1.071-1.447 2.726-3.619 4.542-2.171-1.813-3.165-3.47-3.619-4.542l-.005-.012A3.948 3.948 0 0 1 .98 5.76v-.005a4.942 4.942 0 0 1-.022-.1l-.002-.02a3.886 3.886 0 0 1-.061-1.152A3.997 3.997 0 0 1 4.726.88 3.957 3.957 0 0 1 7.643 2a3.966 3.966 0 0 1 1.219 2.877c0 .254-.025.51-.073.76z" fill="#5BC99C"/><path d="M4.87 2.328a2.598 2.598 0 0 0-2.593 2.597A2.598 2.598 0 0 0 4.87 7.52a.44.44 0 0 0 0-.878 1.72 1.72 0 0 1-1.715-1.718c0-.947.77-1.718 1.715-1.718A1.72 1.72 0 0 1 6.174 6.04a.439.439 0 1 0 .668.571A2.598 2.598 0 0 0 4.87 2.328z" fill="#5BC99C"/></svg>