<svg width="94" height="70" xmlns="http://www.w3.org/2000/svg" xmlns:xlink="http://www.w3.org/1999/xlink"><use xlink:href="#path0_fill" fill="#59DBAA"/><defs><path id="path0_fill" d="M0 69.12v-6.048c0-2.112.096-4.128.288-6.048.768-9.984 2.976-19.872 6.624-29.664C10.56 17.568 14.976 8.448 20.16 0l20.736 6.624c-4.032 8.448-7.104 16.992-9.216 25.632-1.92 8.64-2.88 16.704-2.88 24.192v6.336l.576 6.336H0zm52.416 0v-6.048c0-2.112.096-4.128.288-6.048.768-9.984 2.976-19.872 6.624-29.664C62.976 17.568 67.392 8.448 72.576 0l20.736 6.624c-4.032 8.448-7.104 16.992-9.216 25.632-1.92 8.64-2.88 16.704-2.88 24.192v6.336l.576 6.336H52.416z"/></defs></svg>