<svg width="14" height="17" xmlns="http://www.w3.org/2000/svg"><path d="M11.414 9.635c-.217-.497-.625-.897-1.222-1.198.904-.25 1.423-.904 1.56-1.961.051-.383.026-.73-.077-1.043a1.949 1.949 0 0 0-.52-.816 3.673 3.673 0 0 0-.83-.59 7.084 7.084 0 0 0-1.092-.448l.484-2.15-1.25-.28-.47 2.088a43.552 43.552 0 0 0-.994-.206L7.478.925 6.228.643l-.484 2.15c-.18-.035-.443-.092-.789-.17l-1.718-.396-.315 1.399.9.203c.411.092.609.34.592.742L3.862 7.02a.805.805 0 0 1 .128.037l-.13-.029-.773 3.428c-.108.28-.298.39-.568.329l-.9-.203-.604 1.504 1.622.366.446.104c.194.047.34.081.437.103l-.49 2.175 1.25.281.484-2.148c.226.057.555.134.988.231l-.483 2.14 1.25.282.49-2.174a9.58 9.58 0 0 0 1.209.138c.357.015.708-.009 1.052-.072a2.71 2.71 0 0 0 .9-.322 2.41 2.41 0 0 0 .694-.64c.207-.276.375-.612.504-1.007.248-.774.264-1.41.046-1.907zM6.682 4.57a58.419 58.419 0 0 0 .762.158c.116.024.271.067.465.128.193.062.355.122.483.18.13.06.267.14.415.242.148.102.26.21.335.327a1.213 1.213 0 0 1 .156.935c-.036.16-.093.299-.17.419a.841.841 0 0 1-.294.279c-.117.066-.235.12-.352.162a1.37 1.37 0 0 1-.43.07 7.963 7.963 0 0 1-.438-.001 3.342 3.342 0 0 1-.457-.054c-.18-.032-.317-.056-.41-.074a8.502 8.502 0 0 1-.377-.085 30.681 30.681 0 0 0-.279-.068l.59-2.618zm2.102 6.577a1.247 1.247 0 0 1-.276.296c-.103.078-.229.14-.378.184a2.82 2.82 0 0 1-.426.092 3.057 3.057 0 0 1-.477.018 5.802 5.802 0 0 1-.961-.105 10.336 10.336 0 0 1-.821-.176 23.989 23.989 0 0 0-.3-.072l.65-2.882c.043.01.172.035.387.078a8.454 8.454 0 0 1 1.08.261c.234.07.428.141.583.212.155.07.32.163.496.278.176.114.312.236.408.365.096.13.166.282.211.46.046.177.045.368 0 .573-.037.16-.095.298-.176.418z" fill="#9F9EB7"/></svg>