<svg width="12" height="10" xmlns="http://www.w3.org/2000/svg"><g fill="#9F9EB7"><path d="M10.73 2.742c.127-.384.19-.782.19-1.194C10.92 1 10.802.483 10.563 0c-.5 0-.943.092-1.327.277-.384.185-.822.471-1.313.86A8.236 8.236 0 0 0 5.956.908c-.759 0-1.482.083-2.17.249C3.283.76 2.841.468 2.457.28 2.074.094 1.63 0 1.124 0 .885.483.766 1 .766 1.548c0 .417.063.82.19 1.208C.317 3.509 0 4.446 0 5.568c0 .985.145 1.769.435 2.351.155.308.356.58.604.817.248.236.532.428.85.575.319.147.64.269.962.366.323.097.68.168 1.071.213a15.634 15.634 0 0 0 2.034.11c.43 0 .821-.01 1.172-.032a10.08 10.08 0 0 0 1.205-.156c.452-.083.85-.195 1.194-.337.344-.142.674-.346.99-.611a2.86 2.86 0 0 0 .741-.945c.285-.587.428-1.37.428-2.35 0-1.128-.318-2.07-.955-2.827zm-.842 5.166c-.15.31-.34.554-.568.732-.23.177-.516.32-.857.426-.342.107-.67.176-.983.21-.314.033-.663.05-1.047.05h-1.18c-.384 0-.733-.017-1.046-.05a5.113 5.113 0 0 1-.984-.21 2.703 2.703 0 0 1-.856-.426 2.009 2.009 0 0 1-.57-.732 2.49 2.49 0 0 1-.224-1.09c0-.568.162-1.051.485-1.449.323-.398.76-.596 1.313-.596.201 0 .658.05 1.37.149.332.052.7.078 1.102.078.403 0 .77-.026 1.103-.078.72-.1 1.177-.15 1.37-.15.552 0 .99.2 1.312.597.324.398.485.88.485 1.45 0 .416-.075.78-.225 1.09z"/><path d="M4.408 6.242A.66.66 0 0 0 3.9 6a.66.66 0 0 0-.51.242 1.39 1.39 0 0 0-.301.54 2.03 2.03 0 0 0-.088.582c0 .19.03.383.088.582a1.4 1.4 0 0 0 .302.54.66.66 0 0 0 .509.241.66.66 0 0 0 .51-.241c.142-.161.243-.341.301-.54.059-.199.088-.393.088-.582 0-.19-.03-.384-.088-.583a1.403 1.403 0 0 0-.302-.54zm4 0A.66.66 0 0 0 7.9 6a.66.66 0 0 0-.51.242 1.39 1.39 0 0 0-.301.54 2.03 2.03 0 0 0-.088.582c0 .19.03.383.088.582a1.4 1.4 0 0 0 .302.54.66.66 0 0 0 .509.241.66.66 0 0 0 .51-.241c.142-.161.243-.341.301-.54.059-.199.088-.393.088-.582 0-.19-.03-.384-.088-.583a1.403 1.403 0 0 0-.302-.54z"/></g></svg>