<svg width="11" height="10" xmlns="http://www.w3.org/2000/svg"><path d="M2.466 3.25V10H.134V3.25h2.332zm.148-2.085a1.06 1.06 0 0 1-.357.83c-.242.223-.561.335-.957.335h-.014c-.386 0-.697-.112-.933-.334A1.097 1.097 0 0 1 0 1.165C0 .829.121.55.364.33.606.11.924 0 1.314 0c.391 0 .704.11.94.33.235.22.355.499.36.835zm8.238 4.966V10H8.527V6.39c0-.477-.095-.85-.286-1.12-.19-.271-.489-.406-.894-.406-.296 0-.545.078-.745.235-.2.156-.35.35-.449.582-.051.136-.077.32-.077.552V10H3.75c.01-1.812.015-3.281.015-4.407 0-1.127-.003-1.799-.008-2.017l-.007-.327h2.325v.981h-.014c.094-.145.19-.272.29-.381.098-.11.231-.227.398-.354.168-.128.373-.226.615-.297.243-.07.512-.105.809-.105.805 0 1.453.257 1.943.773.49.515.735 1.27.735 2.265z" fill="#9F9EB7"/></svg>