<svg width="17" height="14" fill="none" xmlns="http://www.w3.org/2000/svg"><path d="M11.94 7.512c.04.106.06.215.06.323 0 .218-.076.43-.202.603a.959.959 0 0 1-.51.362l-.005.001h-.002a.916.916 0 0 1-.297.05c-.233 0-.461-.084-.644-.227a.968.968 0 0 1-.362-.59v-.002l-.001-.002a.882.882 0 0 1-.02-.187c0-.21.072-.412.19-.579a.993.993 0 0 1 .478-.365h.001l.002-.001a.985.985 0 0 1 .34-.061c.21 0 .416.063.59.18.17.113.31.28.38.488l.001.004c0 .001 0 .002.002.003h-.001zm-.64 2.578a.509.509 0 0 0-.277-.086.434.434 0 0 0-.24.073 4.657 4.657 0 0 1-2.364.653 4.04 4.04 0 0 1-1.792-.405h-.003l-.003-.002c-.084-.034-.18-.107-.285-.177a1.037 1.037 0 0 0-.17-.094.446.446 0 0 0-.394.001.447.447 0 0 0-.222.186.532.532 0 0 0-.013.528c.04.075.103.14.184.184.797.538 1.736.781 2.678.78.85 0 1.704-.196 2.465-.554l.004-.003.004-.002c.1-.06.233-.113.36-.19a.795.795 0 0 0 .174-.145.546.546 0 0 0 .118-.219.445.445 0 0 0-.032-.31.533.533 0 0 0-.192-.218zM5.703 8.796a1.056 1.056 0 0 0 1.017-.222.947.947 0 0 0 .32-.698v-.023l.001-.04a.954.954 0 0 0-.317-.698 1.042 1.042 0 0 0-.7-.281.94.94 0 0 0-.21.024h-.003a1.018 1.018 0 0 0-.758.68.929.929 0 0 0-.048.295c0 .215.072.425.194.597a.96.96 0 0 0 .5.365l.004.001zm10.794-2.51v.001l.003.105c0 .388-.125.762-.333 1.079a2.171 2.171 0 0 1-.77.713c.02.155.031.311.031.466 0 .837-.288 1.66-.79 2.319h-.002c-.929 1.236-2.355 1.965-3.795 2.332l-.002.001a9.988 9.988 0 0 1-2.352.282c-1.18 0-2.36-.213-3.46-.654v-.002h-.001c-1.141-.47-2.228-1.217-2.895-2.313a3.77 3.77 0 0 1-.555-1.959c0-.155.01-.312.03-.466-.3-.169-.56-.409-.753-.695A2.047 2.047 0 0 1 .5 6.446v-.005c0-.534.232-1.039.592-1.412.36-.372.852-.615 1.38-.615h.021a2.18 2.18 0 0 1 .95.134h.002c.216.091.43.2.62.352.062-.032.13-.069.205-.097 1.156-.685 2.499-.949 3.808-1.025.011-.648.09-1.327.407-1.921.263-.494.72-.878 1.265-1.011l.002-.001h.003c.207-.04.416-.06.624-.06.553 0 1.1.132 1.611.336.226-.341.55-.608.929-.758l.003-.002.004-.001c.223-.07.458-.11.694-.11.249 0 .5.045.735.15l.005.002c.337.13.622.37.824.668a1.844 1.844 0 0 1 .31 1.23v.002l-.001.004c-.04.476-.281.894-.623 1.192-.343.3-.789.48-1.246.48-.073 0-.147-.004-.22-.013a1.851 1.851 0 0 1-1.187-.58 1.791 1.791 0 0 1-.512-1.231l.003-.069c-.425-.189-.877-.346-1.326-.346-.065 0-.13.004-.195.01a1.015 1.015 0 0 0-.8.55c-.23.448-.276.972-.283 1.491 1.288.084 2.585.393 3.721 1.047h.002l.016.01.098.053c.078-.063.16-.128.255-.184.345-.23.753-.344 1.162-.344.18 0 .362.023.538.068h.001l.007.002.007.002c.416.106.792.345 1.076.667.283.322.473.73.51 1.174zM12.7 2.069c0 .017 0 .035.002.053v.003a.864.864 0 0 0 .275.587.88.88 0 0 0 .593.25h.006a.892.892 0 0 0 .648-.246.863.863 0 0 0 .28-.59v-.003a.87.87 0 0 0-.277-.67.913.913 0 0 0-.622-.264.72.72 0 0 0-.215.032h-.002l-.002.001a.949.949 0 0 0-.484.314.84.84 0 0 0-.202.533zM3.19 5.523a1.257 1.257 0 0 0-.526-.137c-.03 0-.06.002-.09.005h-.008a1.098 1.098 0 0 0-.699.294.973.973 0 0 0-.328.676v.004a.904.904 0 0 0 .131.523c.062.106.144.203.236.287.295-.647.757-1.196 1.284-1.652zm11.225 3.164a2.82 2.82 0 0 0-.545-1.622c-.67-.935-1.713-1.545-2.797-1.885l-.007-.003a8.71 8.71 0 0 0-2.561-.385c-.872 0-1.742.13-2.576.387-1.084.344-2.129.949-2.8 1.886h.001a2.812 2.812 0 0 0-.539 1.629c0 .213.027.426.083.633h.001c.122.466.36.881.67 1.243a4.795 4.795 0 0 0 1.352 1.081c1.157.646 2.489.929 3.81.929.225 0 .45-.008.672-.024 1.331-.11 2.668-.503 3.75-1.306v-.001c.344-.255.663-.562.915-.912.253-.35.438-.742.52-1.168v.001c.035-.16.05-.32.05-.482zm1.051-2.295a.86.86 0 0 0-.102-.41h-.002v-.003a1.001 1.001 0 0 0-.42-.438 1.21 1.21 0 0 0-.593-.151 1.21 1.21 0 0 0-.542.126c.53.459.993 1.01 1.293 1.66.096-.084.179-.187.24-.3.08-.15.126-.318.126-.484z" fill="#9F9EB7"/></svg>