<svg width="12" height="9" xmlns="http://www.w3.org/2000/svg"><path d="M11.72 1.065a5.07 5.07 0 0 1-1.38.358A2.31 2.31 0 0 0 11.395.166c-.466.26-.98.45-1.528.552A2.464 2.464 0 0 0 8.114 0C6.786 0 5.709 1.018 5.709 2.272c0 .178.022.352.063.518-1.998-.095-3.77-1-4.955-2.375A2.162 2.162 0 0 0 .49 1.558c0 .788.425 1.484 1.07 1.891a2.51 2.51 0 0 1-1.09-.285v.028c0 1.101.83 2.02 1.929 2.23a2.567 2.567 0 0 1-1.086.037c.306.903 1.194 1.56 2.245 1.578a5 5 0 0 1-2.986.972A5.4 5.4 0 0 1 0 7.977 7.083 7.083 0 0 0 3.685 9c4.423 0 6.84-3.463 6.84-6.467l-.008-.294a4.665 4.665 0 0 0 1.203-1.174z" fill="#9F9EB7"/></svg>