<svg width="35" height="36" fill="none" xmlns="http://www.w3.org/2000/svg"><path d="M16.408 11.477v9.863H14.22v-5.48h-2.187v5.48H9.846v2.192h15.311V21.34H22.97v-7.672h-2.188v7.672h-2.187v-9.863h-2.187zm7.285-2.447l.749.518 4.652-4.665-.993-.76A17.448 17.448 0 0 0 19.833.689L18.595.524v6.594l.895.166c1.509.276 2.941.871 4.203 1.745zm-2.91-5.95a15.27 15.27 0 0 1 4.963 2.062L24.162 6.73a12.906 12.906 0 0 0-3.38-1.403V3.081zm10.619 4.346v.002l-.76-.993-4.654 4.662.518.751a10.925 10.925 0 0 1 0 12.408l-.518.75 4.655 4.663.759-.995a17.483 17.483 0 0 0 0-21.248zm-1.016 18.888L28.8 24.726a13.122 13.122 0 0 0 0-13.348l1.585-1.588a15.278 15.278 0 0 1 0 16.524z" fill="#9F9EB7"/><path d="M23.693 27.074c-4.971 3.432-11.777 2.176-15.202-2.806-3.424-4.981-2.17-11.801 2.8-15.233a10.918 10.918 0 0 1 4.222-1.752l.895-.165V.524L15.17.689a17.524 17.524 0 0 0-7.35 2.77l1.211 1.826a15.106 15.106 0 0 1 5.19-2.206v2.247C7.195 7.115 2.947 14.272 4.733 21.31c1.785 7.04 8.927 11.296 15.952 9.506a13.113 13.113 0 0 0 3.476-1.442l1.585 1.588a15.098 15.098 0 0 1-8.245 2.432c-8.463-.009-15.316-6.89-15.307-15.37.001-1.618.258-3.226.76-4.764l-2.077-.689c-3.016 9.206 1.988 19.118 11.175 22.14 1.758.578 3.597.873 5.448.874a17.314 17.314 0 0 0 10.602-3.605l.993-.76-4.654-4.665-.75.518z" fill="#9F9EB7"/><path d="M7.41 6.526L5.97 4.882a17.757 17.757 0 0 0-1.647 1.646L5.968 7.97c.448-.513.93-.995 1.442-1.444zM4.729 9.597L2.907 8.384a17.64 17.64 0 0 0-1.154 2.028l1.969.955c.296-.612.632-1.203 1.007-1.77z" fill="#9F9EB7"/></svg>