<svg width="36" height="35" fill="none" xmlns="http://www.w3.org/2000/svg"><path d="M24.53 8.48l1.918-3.327-1.896-1.096-1.915 3.327h-8.844l-1.915-3.326-1.896 1.096L11.9 8.48l-4.42 7.672H5.09v2.192h2.39l4.42 7.672-1.918 3.327 1.896 1.096 1.915-3.327h8.844l1.915 3.327 1.896-1.096-1.918-3.327 4.42-7.672h2.39v-2.192h-2.39L24.53 8.48zm-1.894 16.44h-8.842l-1.267-2.192h11.375l-1.266 2.192zm2.525-4.384h-1.477v-5.48h-2.188v5.48h-2.187v-8.768H17.12v8.768h-2.187v-3.288h-2.188v3.288h-1.478l-1.894-3.288 4.42-7.672h8.842l4.42 7.672-1.895 3.288zM2.902 16.152H.715v2.192h2.187v-2.192zm32.813 0h-2.188v2.192h2.188v-2.192zm-7.08-14.796L26.74.26l-1.093 1.9 1.894 1.096 1.094-1.899zM7.789 33.137l1.894 1.096 1.094-1.898-1.895-1.096-1.093 1.898zM10.783 2.16L9.689.26 7.795 1.356l1.093 1.898 1.895-1.095zm14.863 30.178l1.093 1.9 1.895-1.096-1.093-1.899-1.895 1.095z" fill="#9F9EB7"/></svg>