<svg width="36" height="40" fill="none" xmlns="http://www.w3.org/2000/svg"><path d="M4.055 10.128l-2.21-1.073c.389-.801.845-1.567 1.366-2.29l1.991 1.44c-.436.608-.82 1.251-1.147 1.923zm.899-5.381a15.382 15.382 0 0 1 2.062-1.691l1.383 2.03a12.95 12.95 0 0 0-1.732 1.42L4.954 4.747zM.9 11.551l2.364.67a12.944 12.944 0 0 0-.49 3.532 20.044 20.044 0 0 0 4.948 13.193l3.641 4.168v6.609H8.91v-5.684l-3.033-3.474A22.507 22.507 0 0 1 .319 15.753c0-1.421.195-2.835.582-4.202zM28.542 26.2h3.138l-3.138-8.38v-2.068c.002-7.128-5.765-12.908-12.881-12.91-1.832 0-3.643.39-5.312 1.146l-1.012-2.24c7.726-3.493 16.815-.05 20.301 7.69a15.397 15.397 0 0 1 1.359 6.314v1.62l4.225 11.287h-4.225v6.147H24.86v4.916h-2.454v-7.375h6.135v-6.146z" fill="#9F9EB7"/><path d="M18.726 10.22v7.376h-2.454V6.533h-2.454v11.063h-2.454v-4.917H8.909v4.917H6.455v2.458h17.18v-2.458H21.18V10.22h-2.455z" fill="#9F9EB7"/></svg>